<svg width="794" height="484" viewBox="0 0 794 484" fill="none" xmlns="http://www.w3.org/2000/svg">
<path d="M221.11 83.2449C220.47 81.9249 220.67 78.2148 224.13 78.6748C301.96 88.9848 290.31 13.4448 244.51 2.39484C204.45 -7.25515 167.71 15.3749 167.71 15.3749C167.71 15.3749 184.72 17.3648 180.39 27.7748C157.93 81.7748 225.31 109.545 242.62 144.685C255.46 170.745 219.31 187.885 218.35 188.335C219.25 187.475 252.84 155.215 220.39 135.545C183.82 113.375 122.07 142.895 99.93 155.655C61.65 177.725 47.36 212.575 47.36 212.575C133.7 245.115 211.98 204.135 213.73 203.215C160.8 256.105 30.45 218.745 30.45 218.745L0 236.795C0 236.795 33.11 258.145 126.36 255.175C206.85 252.605 295.05 208.995 271.88 155.255C259.95 127.595 227.04 95.5349 221.11 83.2449ZM234.13 23.3249C238.17 23.3249 241.45 26.6048 241.45 30.6448C241.45 34.6848 238.17 37.9548 234.13 37.9548C230.09 37.9548 226.82 34.6848 226.82 30.6448C226.82 26.6048 230.1 23.3249 234.13 23.3249Z" fill="#EC407A"/>
<path d="M288.76 42.2949L427.27 71.5549L278.24 69.4949C278.24 69.4949 290.13 61.9549 288.75 42.2949H288.76Z" fill="#FFA6C8"/>
<path d="M405.73 216.985C394.21 227.925 378.88 234.765 363.04 236.045C347.2 237.325 330.97 233.035 317.84 224.105C304.68 215.155 294.55 201.145 292.35 185.385C290.08 169.115 296.19 152.905 303.17 138.035C313.92 115.155 327.05 93.3853 342.27 73.1953C358.21 92.7253 366.1 118.185 363.64 143.285C362.47 155.225 359.08 167.155 360.78 179.025C362.24 189.215 367.57 198.805 375.46 205.415C383.35 212.025 395.44 217.325 405.73 216.985Z" fill="#F9EDD4"/>
<path d="M408.92 190.025V190.035" stroke="#C93F3F" stroke-miterlimit="10"/>
<path d="M381.09 18.7451C375.73 19.2851 370.36 20.4351 365.5 22.8551C360.64 25.2751 356.31 29.0551 353.78 33.9951C351.25 38.9351 350.7 45.0751 352.94 50.1651C360.83 51.1051 369.03 48.4651 374.43 42.4251C379.83 36.3851 382.59 26.8451 381.09 18.7451Z" fill="#F9EDD4"/>
<path d="M346.6 46.5352C342.9 47.4152 338.88 46.4351 335.73 44.3051C332.58 42.1751 330.26 38.9451 328.81 35.4251C327.36 31.9051 326.74 28.0952 326.54 24.2852C330.21 25.1152 333.72 26.0452 337.09 27.7252C340.46 29.4052 343.54 31.8351 345.5 35.0551C347.46 38.2751 347.84 42.9751 346.6 46.5251V46.5352Z" fill="#F9EDD4"/>
<path d="M200.71 479.275C197.54 478.285 188.63 475.755 182.62 473.275C180.85 472.545 179.45 471.685 178.4 470.895C176.79 469.685 175.87 467.765 175.86 465.745L175.13 365.155C178.28 362.785 180.36 358.725 180.36 354.095C180.36 349.465 178.21 345.275 174.97 342.925L174.33 254.275L161.53 259.075L162.2 343.105C160.96 344.045 159.89 345.265 159.05 346.665C158.27 345.355 157.28 344.215 156.15 343.295L155.51 254.275L142.71 259.075L143.37 342.745C139.99 345.065 137.73 349.275 137.73 354.095C137.73 358.915 140.07 363.285 143.55 365.575L144.34 466.465C144.34 467.525 144.3 468.585 144.16 469.635C143.68 473.185 143.38 483.825 157.05 483.825H200.7C201.88 483.825 202.79 482.755 202.57 481.605C202.38 480.645 201.89 479.655 200.71 479.285V479.275ZM163.19 472.675L159.9 470.435C158.11 469.215 157.04 467.205 157.02 465.045L156.29 364.775C157.36 363.885 158.29 362.785 159.04 361.535C159.92 363.005 161.05 364.265 162.36 365.225L163.18 468.495V472.675H163.19Z" fill="#FFA6C8"/>
<path d="M407.49 211.116C410.52 186.296 409.08 160.636 400.63 137.106C392.18 113.576 376.36 92.2957 354.8 79.6357C368.27 98.1757 374.53 121.166 371.38 143.866C370.2 152.386 367.79 160.716 366.95 169.276C366.11 177.836 366.99 186.966 371.81 194.086C375.42 199.416 380.96 203.186 386.87 205.716C392.78 208.246 401.21 209.776 407.5 211.126L407.49 211.116Z" fill="#F9EDD4"/>
<path d="M390.72 197.485C404.511 197.485 415.69 186.305 415.69 172.515C415.69 158.724 404.511 147.545 390.72 147.545C376.929 147.545 365.75 158.724 365.75 172.515C365.75 186.305 376.929 197.485 390.72 197.485Z" fill="white"/>
<path d="M382.32 161.235C385.99 159.095 390.33 163.925 387.81 167.345C388.53 163.845 385.87 160.885 382.32 161.235Z" fill="black"/>
<path d="M393.97 176.905C397.64 174.765 401.98 179.595 399.46 183.015C400.18 179.515 397.52 176.555 393.97 176.905Z" fill="black"/>
<path d="M403.98 172.366C406.54 171.666 408.44 169.386 408.72 166.746C405.76 168.096 402.38 168.096 399.35 166.916C407.99 165.626 404.98 153.866 402.64 151.976C408.6 152.536 424.66 174.666 403.98 172.366Z" fill="black"/>
<path d="M376.74 177.615C379.55 179.385 381.7 182.105 382.76 185.255C379.94 183.485 377.8 180.765 376.74 177.615Z" fill="black"/>
<path d="M483 125.715V45.665H504.95C513.78 45.665 520.09 45.955 523.89 46.545C527.43 47.095 530.53 48.095 533.2 49.565C536.12 51.275 538.36 53.445 539.93 56.065C541.5 58.835 542.28 62.035 542.28 65.675C542.28 70.305 541.12 73.935 538.81 76.575C536.5 79.215 532.8 81.225 527.74 82.615C533.28 83.055 537.73 85.025 541.08 88.525C544.29 92.095 545.89 96.875 545.89 102.855C545.89 107.085 544.98 110.825 543.16 114.065C541.34 117.425 538.77 119.955 535.45 121.665C532.9 123.015 529.54 124.075 525.39 124.835C521.08 125.415 514.49 125.705 505.63 125.705H483.02L483 125.715ZM503.29 77.655H507.66C513.09 77.655 516.79 77.075 518.76 75.915C520.76 74.675 521.77 72.625 521.77 69.755C521.77 66.735 520.84 64.615 518.98 63.375C516.94 62.105 513.27 61.465 507.99 61.465H503.29V77.655ZM503.29 109.375H510.94C516.12 109.375 519.76 108.695 521.88 107.345C524.07 106.105 525.16 103.965 525.16 100.925C525.16 97.635 524.18 95.275 522.21 93.845C520.24 92.525 516.6 91.875 511.27 91.875H503.29V109.375Z" fill="#EC407A"/>
<path d="M606.51 70.4951V98.7051C606.51 105.015 606.04 109.605 605.09 112.485C604.07 115.475 602.36 118.175 599.95 120.575C597.65 122.985 594.63 124.805 590.87 126.045C587.3 127.245 583 127.845 577.97 127.845C572.94 127.845 568.73 127.245 565.23 126.045C561.62 124.875 558.52 123.055 555.93 120.575C553.56 118.315 551.88 115.655 550.9 112.595C549.92 109.755 549.42 105.125 549.42 98.7051V70.4951H568.01V99.9651C568.01 104.595 568.79 107.915 570.36 109.915C571.78 112.025 574.24 113.085 577.74 113.085C581.24 113.085 583.69 112.065 585.2 110.025C586.71 107.985 587.47 104.635 587.47 99.9651V70.4951H606.5H606.51Z" fill="#EC407A"/>
<path d="M615.01 125.715V70.4851H633.38V83.4951C635.31 78.7151 637.88 75.1651 641.09 72.8351C644.41 70.4651 648.4 69.2852 653.06 69.2852C654.12 69.2852 654.9 69.3251 655.41 69.3951C655.81 69.4351 656.17 69.4552 656.5 69.4752C656.83 69.4952 657.25 69.5351 657.76 69.6151L655.9 87.3351C654.55 86.8951 653.38 86.5852 652.4 86.4052C650.94 86.2552 649.87 86.1852 649.17 86.1852C644.43 86.1852 640.77 87.6451 638.18 90.5551C635.63 93.4351 634.35 97.5352 634.35 102.855V125.715H614.99H615.01Z" fill="#EC407A"/>
<path d="M659.83 125.715V40.9648H679.41V125.715H659.83Z" fill="#EC407A"/>
<path d="M747.9 70.4949V125.725H729.96V116.755C727.38 120.585 724.49 123.385 721.31 125.175C718.12 126.965 714.4 127.855 710.14 127.855C702.75 127.855 696.87 125.155 692.5 119.765C690.35 117.105 688.71 113.965 687.59 110.365C686.46 106.755 685.9 102.695 685.9 98.1749C685.9 89.1349 688.21 81.9749 692.84 76.6849C697.46 71.3949 703.65 68.7549 711.41 68.7549C715.56 68.7549 719.13 69.6549 722.11 71.4449C725.13 73.1649 727.72 75.8949 729.86 79.6249V70.5049H747.91L747.9 70.4949ZM730.73 98.0749C730.73 93.7049 729.58 90.3249 727.29 87.9249C724.96 85.3749 721.83 84.1049 717.9 84.1049C713.97 84.1049 710.88 85.3449 708.62 87.8149C706.29 90.3649 705.13 93.7849 705.13 98.0749C705.13 102.365 706.29 105.805 708.62 108.275C710.84 110.715 713.93 111.935 717.9 111.935C721.87 111.935 724.95 110.715 727.26 108.275C729.57 105.835 730.73 102.435 730.73 98.0649V98.0749Z" fill="#EC407A"/>
<path d="M521.42 176.765C521.49 176.835 521.53 176.915 521.53 176.985C522.84 179.575 523.7 181.685 524.1 183.325C524.43 181.755 525.25 179.785 526.56 177.415C526.67 177.085 526.78 176.865 526.89 176.755L536.51 158.165H562.47L535.75 196.655L565.31 238.215H540.56L526.9 214.485C526.61 213.935 526.28 213.305 525.92 212.575C525.56 211.845 525.32 211.395 525.21 211.205C524.95 210.585 524.59 209.475 524.12 207.865C523.72 209.435 523.34 210.635 522.97 211.475C522.79 211.915 522.28 212.915 521.44 214.485L507.78 238.215H483.03L512.7 196.225L485.87 158.165H511.83L521.45 176.755L521.42 176.765Z" fill="#EC407A"/>
<path d="M626.41 182.995V238.225H608.47V229.255C605.89 233.085 603 235.885 599.82 237.675C596.63 239.465 592.91 240.355 588.65 240.355C581.26 240.355 575.38 237.655 571.01 232.265C568.86 229.605 567.22 226.465 566.1 222.855C564.97 219.245 564.41 215.185 564.41 210.665C564.41 201.625 566.72 194.465 571.35 189.175C575.97 183.885 582.16 181.245 589.92 181.245C594.07 181.245 597.64 182.145 600.62 183.935C603.64 185.655 606.23 188.385 608.37 192.115V182.995H626.42H626.41ZM609.24 210.585C609.24 206.215 608.09 202.835 605.8 200.435C603.47 197.885 600.34 196.615 596.41 196.615C592.48 196.615 589.39 197.855 587.13 200.325C584.8 202.875 583.64 206.295 583.64 210.585C583.64 214.875 584.8 218.315 587.13 220.785C589.35 223.225 592.44 224.445 596.41 224.445C600.38 224.445 603.46 223.225 605.77 220.785C608.08 218.345 609.24 214.945 609.24 210.575V210.585Z" fill="#EC407A"/>
<path d="M638.58 238.225L638.47 196.775H630.21V182.995H638.47V166.535H657.83V182.995H665.98V196.775H657.83V238.225H638.58Z" fill="#EC407A"/>
<path d="M726.1 182.995V211.205C726.1 217.515 725.63 222.105 724.68 224.985C723.66 227.975 721.95 230.675 719.54 233.075C717.24 235.485 714.22 237.305 710.46 238.545C706.89 239.745 702.59 240.345 697.56 240.345C692.53 240.345 688.32 239.745 684.82 238.545C681.21 237.375 678.11 235.555 675.52 233.075C673.15 230.815 671.47 228.155 670.49 225.095C669.51 222.255 669.01 217.625 669.01 211.205V182.995H687.6V212.465C687.6 217.095 688.38 220.415 689.95 222.415C691.37 224.525 693.83 225.585 697.33 225.585C700.83 225.585 703.28 224.565 704.79 222.525C706.3 220.485 707.06 217.135 707.06 212.465V182.995H726.09H726.1Z" fill="#EC407A"/>
<path d="M734.5 238.225V182.995H752.331V194.205C754.841 189.835 757.83 186.545 761.29 184.365C764.64 182.285 768.701 181.245 773.471 181.245C777.081 181.245 780.281 181.795 783.081 182.885C785.861 184.125 788.111 185.805 789.831 187.915C791.401 190.025 792.441 192.275 792.951 194.645C793.57 197.675 793.88 201.665 793.88 206.625V238.235H774.3V208.655C774.3 204.175 773.59 200.965 772.17 199.035C770.75 197.035 768.44 196.025 765.24 196.025C761.24 196.025 758.301 197.525 756.401 200.505C754.551 203.495 753.62 208.345 753.62 215.045V238.225H734.48H734.5Z" fill="#EC407A"/>
</svg>
