<svg width="13" height="11" viewBox="0 0 13 11" fill="none" xmlns="http://www.w3.org/2000/svg">
<path d="M11.5 6.24818C11.9132 6.24818 12.2482 5.91321 12.2482 5.5C12.2482 5.08679 11.9132 4.75182 11.5 4.75182V6.24818ZM0.970959 4.97096C0.678777 5.26314 0.678777 5.73686 0.970959 6.02904L5.73233 10.7904C6.02452 11.0826 6.49824 11.0826 6.79042 10.7904C7.0826 10.4982 7.0826 10.0245 6.79042 9.73233L2.55808 5.5L6.79042 1.26767C7.0826 0.975485 7.0826 0.501765 6.79042 0.209583C6.49824 -0.0825987 6.02452 -0.0825987 5.73233 0.209583L0.970959 4.97096ZM11.5 4.75182H1.5V6.24818H11.5V4.75182Z" fill="#55818A"/>
</svg>
