<svg width="13" height="11" viewBox="0 0 13 11" fill="none" xmlns="http://www.w3.org/2000/svg">
<path d="M1.5 4.75182C1.08679 4.75182 0.751822 5.08679 0.751822 5.5C0.751822 5.91321 1.08679 6.24818 1.5 6.24818V4.75182ZM12.029 6.02904C12.3212 5.73686 12.3212 5.26314 12.029 4.97096L7.26767 0.209583C6.97548 -0.0825987 6.50176 -0.0825987 6.20958 0.209583C5.9174 0.501765 5.9174 0.975485 6.20958 1.26767L10.4419 5.5L6.20958 9.73233C5.9174 10.0245 5.9174 10.4982 6.20958 10.7904C6.50176 11.0826 6.97548 11.0826 7.26767 10.7904L12.029 6.02904ZM1.5 6.24818H11.5V4.75182H1.5V6.24818Z" fill="#55818A"/>
</svg>
