<svg width="109" height="109" viewBox="0 0 109 109" fill="none" xmlns="http://www.w3.org/2000/svg">
<circle cx="54.5" cy="54.5" r="54" fill="#FEF2F2"/>
<g clip-path="url(#clip0_52_4268)">
<path d="M78.4394 53.0997C79.9233 60.1313 79.4318 67.7232 76.2134 74.1478C72.995 80.5724 67.1333 86.0819 60.0009 86.5861C51.366 87.1931 42.7775 82.8135 37.3053 76.0621C31.8331 69.3106 28.7631 60.178 29.4958 51.4936C30.108 44.2005 32.4824 36.8981 37.2125 31.342C41.952 25.7951 49.2328 22.2093 56.4579 22.9657C61.3365 23.4793 65.8441 25.9912 69.2294 29.5677C72.1788 32.6866 74.108 36.6553 75.3694 40.7734C76.6308 44.8822 77.549 48.8976 78.4394 53.1091V53.0997Z" fill="#FE4642"/>
<path d="M54.2321 88.407C54.9463 88.4724 55.6605 88.5004 56.3839 88.5004C66.0112 88.5004 75.3603 82.8135 79.1723 74.3905C82.706 66.5839 81.5466 57.694 80.0626 49.2617C78.9033 42.669 77.6604 36.7954 74.2937 31.6407C68.7102 23.1057 57.5061 18.7075 47.6655 21.1914C43.6773 22.1906 39.921 24.3103 36.7954 27.3079C32.5567 31.3699 29.4311 37.6265 27.4834 45.9C25.4429 54.5844 26.6208 64.3427 30.6461 71.9906C35.5154 81.254 44.5492 87.5479 54.2321 88.407ZM32.0002 46.9739C33.7346 39.5968 36.4244 34.1153 39.9952 30.6883C42.5365 28.2417 45.5787 26.5235 48.7878 25.7204C56.7827 23.7034 65.8814 27.2798 70.4168 34.2181C72.4572 37.3463 73.7372 41.2963 72.7169 45.0222C72.0863 47.3194 70.3797 50.2142 68.0702 51.12C65.6309 52.0818 63.5719 52.9223 61.7819 55.014C61.2068 55.6957 60.706 56.4054 60.2237 57.1057C59.7136 57.8434 59.2313 58.5345 58.6841 59.1414C58.1739 59.7017 56.8384 61.009 55.3544 60.869L55.1132 63.6611C55.2709 63.6797 55.4286 63.6797 55.5863 63.6797C57.9977 63.6797 59.8434 62.0362 60.7616 61.0184C61.4294 60.2807 61.9766 59.4776 62.5146 58.7025C64.9168 55.2381 68.9513 53.688 72.6427 56.5268C75.1099 58.4224 76.3063 61.6534 76.4083 64.7816C76.5011 67.4523 76.1394 71.4304 74.6183 73.6995C73.2642 75.7259 71.4741 77.7242 69.5635 79.2463C65.3898 82.5614 59.9454 84.2422 54.6402 83.766C46.6267 83.0469 38.8173 77.5748 34.7363 69.8149C31.2212 63.1288 30.2009 54.5938 31.991 46.9832L32.0002 46.9739Z" fill="#FE818B"/>
<path d="M53.5266 54.6776C55.2703 53.6037 57.1995 52.8473 59.2029 52.4458C59.6295 52.3617 60.084 52.2964 60.4735 52.4645C60.8631 52.6326 61.5958 53.2769 61.2248 53.501C58.8319 55.0138 56.7636 57.0495 55.0477 59.3093C59.9356 57.5444 65.5654 57.9926 70.1101 60.5232C70.5275 60.7567 70.9448 61.0088 71.2231 61.401C71.5013 61.7932 71.6034 62.3348 71.3622 62.7457C71.1211 63.1566 70.3884 63.5581 70.0823 63.1939C67.9676 63.2967 66.0848 63.2686 63.9794 63.362C65.1944 64.2024 66.4094 65.0522 67.6152 65.8926C67.9862 66.1541 68.3757 66.4249 68.6354 66.7891C68.9044 67.1626 69.0342 67.6669 68.8487 68.0871C68.6632 68.5073 68.1067 68.8435 67.6801 68.6847C63.8959 67.2747 59.6295 65.9113 55.8639 67.3587C52.6548 68.6007 48.8521 68.1525 46.014 66.1915C43.1759 64.2398 41.5806 61.373 41.1447 57.9366C40.6067 53.7344 40.3656 49.4296 41.2189 45.2835C42.0722 41.1374 44.1312 37.1126 47.498 34.5727C50.8647 32.0327 55.6413 31.211 59.3976 33.1253C62.5233 34.7221 64.6379 38.1398 64.6936 41.6603C64.74 45.1901 62.718 48.6639 59.648 50.3447C56.5688 52.0256 52.5713 51.8388 49.659 49.8778C51.1244 51.512 52.0612 53.0248 53.5266 54.6683V54.6776Z" fill="#FFC1C6"/>
<path d="M51.6625 51.2035C48.4441 50.279 45.9399 47.2348 45.6523 43.873" stroke="#2E1112" stroke-linecap="round" stroke-linejoin="round"/>
<path d="M55.7154 58.9729C54.4076 59.5239 53.0999 60.0748 51.7921 60.6351C50.3638 59.6079 48.2306 58.3846 46.793 57.3574" stroke="#2E1112" stroke-linecap="round" stroke-linejoin="round"/>
<path d="M65.0464 63.5488C61.1788 62.7271 56.9494 63.857 54 66.509" stroke="#2E1112" stroke-linecap="round" stroke-linejoin="round"/>
</g>
<defs>
<clipPath id="clip0_52_4268">
<rect width="55" height="68" fill="white" transform="translate(26.5 20.5)"/>
</clipPath>
</defs>
</svg>
