<svg width="102" height="101" viewBox="0 0 102 101" fill="none" xmlns="http://www.w3.org/2000/svg">
<path d="M29.9585 64.9811C25.4748 55.1509 16.2215 47.5273 10.417 49.7634C6.00159 51.4633 5.5436 65.8126 10.0855 75.7732C14.6274 85.7313 23.2962 93.3451 29.3816 90.8014C35.467 88.2578 34.4422 74.8138 29.961 64.9836L29.9585 64.9811Z" fill="#FF95FB"/>
<path d="M12.4161 53.6132C13.0943 55.9429 13.8356 58.2553 14.6403 60.5456C15.4449 62.8358 16.3153 65.104 17.2465 67.3475C18.1776 69.591 19.172 71.8149 20.2247 74.0068C21.2773 76.1986 22.3957 78.3684 23.5697 80.5037C24.7438 82.639 25.9811 84.7497 27.2741 86.8235C27.4335 87.0793 27.5954 87.3351 27.7548 87.591C27.9244 87.8591 28.3621 87.6131 28.1926 87.3425C26.8895 85.2859 25.6446 83.1949 24.4579 81.0719C23.2711 78.9489 22.1452 76.8013 21.0799 74.6242C20.0096 72.4397 19 70.2257 18.0537 67.9871C17.1073 65.7485 16.2318 63.505 15.4145 61.2294C14.5973 58.9539 13.8432 56.6563 13.1525 54.3414C13.0664 54.0536 12.9829 53.7682 12.8994 53.4804C12.8109 53.1753 12.3225 53.3057 12.4111 53.6108L12.4161 53.6132Z" fill="#303030"/>
<path d="M73.0901 27.6461C70.9419 25.0877 68.6899 25.4641 67.445 23.1443C66.3873 21.1713 67.9738 18.6621 66.1216 15.9832C64.1455 13.1271 61.8252 13.2771 59.7883 11.4838C59.1329 10.9081 58.4067 9.82081 58.007 8.07666L37.6152 12.0816C37.6152 20.3079 38.4072 26.143 43.1364 32.0569C49.748 40.325 62.9866 44.9991 71.1949 38.453C74.7778 35.5944 75.2535 30.2217 73.0926 27.6486L73.0901 27.6461Z" fill="#303030"/>
<path d="M68.8418 19.5918C68.8418 18.5537 68.7254 17.4983 68.361 16.5168C67.9967 15.5352 67.4375 14.7062 66.6683 14.0322C65.1754 12.7259 63.2043 12.1232 61.5039 11.1293C61.0965 10.8907 60.6993 10.63 60.3425 10.3225C59.9199 9.96083 59.5404 9.55247 59.1786 9.13427C58.4372 8.27326 57.7945 7.33846 57.086 6.45285C56.4838 5.70008 55.8284 4.98422 55.0643 4.38397C54.3001 3.78373 53.3816 3.27943 52.4201 2.9424C50.3402 2.21178 47.9643 2.20194 45.9299 3.07771C45.6769 3.18595 45.4314 3.31141 45.1936 3.44671C44.9127 3.60661 45.1683 4.03219 45.4491 3.87229C47.314 2.8071 49.6089 2.6595 51.6661 3.22531C52.6251 3.48853 53.5335 3.90427 54.3457 4.46762C55.1579 5.03096 55.7829 5.67302 56.3851 6.38151C57.7515 7.99282 58.8218 9.90671 60.6006 11.1416C62.1846 12.2413 64.0848 12.8071 65.6764 13.8895C66.481 14.4356 67.1414 15.1441 67.5868 15.9953C68.0321 16.8464 68.2497 17.8403 68.313 18.8095C68.3307 19.0678 68.3383 19.3286 68.3383 19.5893C68.3383 19.9067 68.8443 19.9067 68.8443 19.5893L68.8418 19.5918Z" fill="#303030"/>
<path d="M58.4519 15.3881C60.0544 10.152 56.7822 4.58483 51.1433 2.95361C45.5043 1.32239 39.634 4.24479 38.0315 9.48097C36.429 14.7172 39.7011 20.2843 45.3401 21.9155C50.979 23.5467 56.8494 20.6243 58.4519 15.3881Z" fill="#303030"/>
<path d="M48.8574 5.5946C46.9622 12.1678 40.1278 11.6364 40.1278 11.6364C40.3201 12.613 40.3859 13.6069 40.3303 14.5933C39.8799 13.4248 38.9968 12.34 37.7645 11.875C36.5323 11.4125 34.9534 11.725 34.2803 12.768C33.6148 13.7988 34.0121 15.2477 34.966 16.1013C35.9174 16.955 37.4356 17.4347 39.0246 17.1493C39.1967 18.4211 39.9482 19.8602 41.2893 21.0558L39.2397 26.6819L35.9528 27.4666C35.9528 27.4666 36.7043 31.2969 42.5569 31.4248C49.2445 31.5699 50.3326 28.1062 50.3326 28.1062L47.6631 27.3092L47.9212 24.2317C50.0998 24.6376 56.8228 24.5564 58.1942 16.431C58.47 14.8 58.3764 13.201 58.0095 11.7397C56.342 6.71144 52.4226 5.01895 48.8549 5.59706L48.8574 5.5946Z" fill="#FFCCCC"/>
<path d="M48.4783 21.85C48.4176 22.0271 48.2202 22.1206 48.038 22.0616C47.8559 22.0025 47.7597 21.8107 47.8204 21.6335C47.8812 21.4564 48.0785 21.3629 48.2607 21.422C48.4429 21.481 48.539 21.6729 48.4783 21.85Z" fill="#303030"/>
<path d="M43.6123 22.5366C43.6123 22.5366 45.0799 23.6928 47.9214 24.2291L47.8227 25.4124C47.8227 25.4124 44.9736 24.79 43.6123 22.5366Z" fill="#303030"/>
<path d="M51.1097 12.4995C51.2969 13.3777 51.4462 14.2658 51.555 15.1588C51.6157 15.6631 51.6588 16.224 51.3121 16.6471C51.0287 16.9915 50.5505 17.176 50.1001 17.1243" stroke="#303030" stroke-width="0.492003" stroke-linecap="round" stroke-linejoin="round"/>
<path d="M54.0249 10.7578C55.2496 11.0186 56.4768 11.7763 57.122 12.7947" stroke="#303030" stroke-width="0.492003" stroke-linecap="round" stroke-linejoin="round"/>
<path d="M49.3717 9.66564C48.2001 9.21054 46.4213 9.3237 45.103 9.81816" stroke="#303030" stroke-width="0.492003" stroke-linecap="round" stroke-linejoin="round"/>
<path d="M48.4957 18.4378C49.1232 18.701 49.8595 19.0996 49.8848 19.7269C50.4516 19.1857 51.0285 19.1709 51.0285 19.1709C51.0285 19.1709 50.5402 18.6272 49.8519 18.4599C49.1637 18.2927 48.4932 18.4378 48.4932 18.4378H48.4957Z" fill="#303030"/>
<path d="M47.3194 18.3545C47.413 18.726 47.9722 19.7297 49.3437 20.0027C49.6448 20.0544 49.7207 19.8846 49.8826 19.7247C49.9332 19.4468 49.6751 18.7973 48.4935 18.4357C48.1165 18.5218 47.6332 18.4505 47.3169 18.3521L47.3194 18.3545Z" fill="#FF95FB"/>
<path d="M51.6461 19.4098C50.9933 19.2105 50.5125 18.6398 49.8546 18.4578C49.3435 18.3151 48.797 18.4283 48.2656 18.4479C47.7342 18.4676 47.127 18.3471 46.8486 17.9067" stroke="#303030" stroke-width="0.492003" stroke-linecap="round" stroke-linejoin="round"/>
<path d="M51.0818 19.208C50.5782 19.2793 50.1278 19.4564 49.7863 19.823C49.7306 19.882 49.6218 20.0345 49.346 20.0026C48.8349 19.9411 47.5748 19.363 47.3091 18.3076" stroke="#303030" stroke-width="0.492003" stroke-linecap="round" stroke-linejoin="round"/>
<path d="M35.7861 13.3236C36.1404 13.2203 36.8969 13.2941 37.5472 13.7049C38.1975 14.1182 38.6074 14.8488 38.5922 15.5745" stroke="#303030" stroke-width="0.492003" stroke-linecap="round" stroke-linejoin="round"/>
<path d="M36.7505 14.4601C37.0111 14.3838 37.879 14.2584 38.4762 14.8709" stroke="#303030" stroke-width="0.492003" stroke-linecap="round" stroke-linejoin="round"/>
<path d="M48.6705 13.2254C47.5394 13.3779 46.378 13.068 45.4646 12.4111C45.3558 12.3324 45.1812 12.3939 45.1179 12.4997C45.042 12.6252 45.0977 12.758 45.209 12.8367C46.2414 13.5747 47.542 13.8724 48.8046 13.7002C48.9412 13.683 49.0146 13.5132 48.9817 13.3976C48.9412 13.2549 48.8071 13.2082 48.6705 13.2254Z" fill="#303030"/>
<path d="M52.7924 14.7703C53.7944 15.5354 55.0722 15.9167 56.3449 15.7838C56.4816 15.7691 56.598 15.6805 56.598 15.5378C56.598 15.4148 56.4816 15.2771 56.3449 15.2918C55.2139 15.4099 54.0499 15.1098 53.1517 14.4234C53.0454 14.3423 52.8987 14.3226 52.7949 14.4234C52.7063 14.5095 52.6861 14.6891 52.7949 14.7703H52.7924Z" fill="#303030"/>
<path d="M53.6166 29.2646C55.5725 29.3926 58.3735 30.8268 60.5521 32.8292C62.7307 34.8317 68.3986 39.4934 71.6678 43.8845C74.1854 47.2646 74.2411 48.534 74.1677 51.6336C74.0741 55.5893 72.318 63.9238 71.8221 65.0259L64.1249 59.3802L64.7018 51.4392L55.7142 43.6951C53.5255 38.2905 52.1035 33.1933 53.6166 29.2671V29.2646Z" fill="#FFCCCC"/>
<path d="M68.0722 47.3112C66.8576 48.0443 65.7038 48.8709 65.0029 50.1132C64.7777 50.5117 64.6006 50.9373 64.4589 51.3727C64.3602 51.6753 64.8486 51.8057 64.9472 51.5031C65.223 50.6495 65.6659 49.8647 66.3085 49.2177C66.9006 48.6249 67.6117 48.1698 68.3277 47.7343C68.6035 47.5671 68.3505 47.1415 68.0722 47.3088V47.3112Z" fill="#303030"/>
<path d="M53.4192 28.6719C57.3842 29.924 58.3559 30.2856 63.7151 35.245C60.4914 38.1897 58.2901 40.8342 57.2602 45.7075L55.6029 44.4184C55.6029 44.4184 50.269 34.1282 53.4192 28.6719Z" fill="white" stroke="#303030" stroke-width="0.492003" stroke-linecap="round" stroke-linejoin="round"/>
<path d="M53.4192 28.6718L49.4289 27.801C48.4953 30.5906 42.0987 30.6669 38.1337 26.7407C36.4586 26.9941 32.7163 27.9388 30.5807 29.0408C30.5807 29.0408 34.2775 38.6226 27.4355 43.4123C27.7898 45.6484 30.854 52.6398 31.0969 56.8243C29.7204 61.1342 29.3889 63.6459 29.3889 63.6459C29.3889 63.6459 37.2582 70.3839 50.8636 69.1268C64.4691 67.8698 65.8025 63.0309 65.9038 62.8464C65.9038 62.8464 69.8637 50.4701 59.3654 43.6337C63.1002 34.6817 53.4167 28.6694 53.4167 28.6694L53.4192 28.6718Z" fill="white" stroke="#303030" stroke-width="0.492003" stroke-linecap="round" stroke-linejoin="round"/>
<path d="M66.544 62.4256C71.0303 50.5707 63.7152 42.9496 60.6054 42.0763C60.2107 38.9791 59.7907 36.6421 57.2654 36.2879C55.3905 36.0247 48.1184 36.3518 44.0952 37.2547C40.0745 38.1575 39.0978 39.1833 38.9916 42.9225C38.8777 46.8561 38.9865 50.3715 38.1363 52.893C36.4537 57.8721 30.6087 56.8807 30.6087 56.8807C30.6087 56.8807 28.8223 62.0418 28.8223 63.6457C29.2549 70.1426 42.7997 80.7773 58.2548 80.2189C73.7073 79.6604 66.5466 62.4256 66.5466 62.4256H66.544Z" fill="#00826F"/>
<path d="M48.9838 43.1612C52.1112 41.8525 55.6182 41.1563 58.9911 41.8796C59.9071 42.0764 60.8003 42.3716 61.6404 42.7775C61.9313 42.9177 62.1869 42.4946 61.8959 42.3519C58.7001 40.807 54.9831 40.8144 51.6001 41.7344C50.6184 42.0026 49.6644 42.3445 48.7282 42.7356C48.6017 42.7873 48.5739 42.9669 48.6371 43.0727C48.713 43.1981 48.8573 43.2129 48.9838 43.1612Z" fill="#303030"/>
<path d="M33.2957 27.9536L34.9075 27.4616C34.9075 27.4616 36.3472 28.918 38.0274 31.8626C39.8036 34.977 41.2636 38.7925 41.2636 38.7925L44.925 37.7445C44.925 37.7445 43.7484 34.1971 41.4964 30.4382C39.2444 26.6793 38.1513 25.934 36.5345 26.1972C34.9151 26.4604 32.7846 27.1738 33.2982 27.9536H33.2957Z" fill="#00826F"/>
<path d="M43.3893 36.6346C43.3893 37.0873 43.0123 37.4538 42.5467 37.4538C42.0811 37.4538 41.7041 37.0873 41.7041 36.6346C41.7041 36.182 42.0811 35.8154 42.5467 35.8154C43.0123 35.8154 43.3893 36.182 43.3893 36.6346Z" fill="#303030"/>
<path d="M48.6066 27.5871L50.3348 28.1037C50.3348 28.1037 51.9998 29.0581 53.2421 31.4271C54.5377 33.897 55.107 36.8392 55.107 36.8392H58.3534C58.3534 36.8392 57.6221 33.6805 56.405 31.4271C54.9172 28.6695 53.7786 27.8085 51.7214 27.3165C50.0691 26.9204 48.6016 26.7384 48.6016 27.5871H48.6066Z" fill="#00826F"/>
<path d="M56.286 36.0173C56.7513 36.0173 57.1285 35.6505 57.1285 35.1981C57.1285 34.7457 56.7513 34.3789 56.286 34.3789C55.8206 34.3789 55.4434 34.7457 55.4434 35.1981C55.4434 35.6505 55.8206 36.0173 56.286 36.0173Z" fill="#303030"/>
<path d="M43.6802 40.3691C45.502 39.8869 47.3617 39.5425 49.2266 39.2694C51.0914 38.9964 53.0448 38.7897 54.9653 38.7184C55.8509 38.6864 56.7416 38.679 57.6272 38.743L57.3843 38.5634C57.5816 39.0382 57.7638 39.5204 57.9131 40.0124C58.0017 40.3051 58.0801 40.6028 58.1459 40.9004C58.1813 41.0579 58.2117 41.2178 58.2395 41.3777C58.2547 41.4589 58.2522 41.5646 58.2977 41.6384C58.3433 41.7122 58.4318 41.7541 58.5027 41.8008C59.3604 42.3715 59.9171 43.3039 60.3144 44.2165C60.4131 44.4429 60.5016 44.6741 60.5851 44.9078C60.6686 45.1415 60.7698 45.3949 60.8103 45.6458C60.8356 45.8131 60.8179 45.9533 60.7521 46.0616C60.7268 46.1009 60.7445 46.0739 60.7521 46.0616C60.742 46.0739 60.7293 46.0886 60.7167 46.1009C60.699 46.1206 60.6787 46.1378 60.661 46.155C60.5927 46.219 60.5219 46.2805 60.4535 46.342C59.5224 47.1661 58.5128 47.909 57.5184 48.6593C57.0098 49.0431 56.5037 49.4441 55.9142 49.7073C55.4992 49.8918 55.0539 49.973 54.5984 49.9558C54.024 49.9361 53.4573 49.7885 52.8981 49.6778C52.2022 49.54 51.5064 49.3998 50.8106 49.2522C49.429 48.9595 48.05 48.6397 46.6912 48.2534C46.4028 48.1723 46.1143 48.0911 45.8309 47.9976C45.6791 47.9484 45.5779 47.9115 45.4362 47.8254C45.3274 47.759 45.2388 47.6729 45.168 47.5622C45.0668 47.4023 45.0111 47.2227 44.9681 47.0406C44.877 46.6446 44.8517 46.2338 44.8011 45.8328C44.7404 45.3457 44.6771 44.8611 44.6088 44.374C44.4443 43.2129 44.2596 42.0542 44.0319 40.9029C43.9762 40.62 43.918 40.3396 43.8547 40.0591C43.7864 39.7491 43.2981 39.8795 43.3664 40.1895C43.8067 42.1846 44.1078 44.2141 44.3456 46.2411C44.4317 46.9668 44.4848 47.8426 45.2009 48.2608C45.5551 48.4675 45.9853 48.5609 46.3775 48.6741C47.0252 48.8611 47.6755 49.0333 48.3309 49.1932C49.6289 49.5105 50.9396 49.786 52.2528 50.0492C52.855 50.1698 53.4598 50.3125 54.0721 50.3961C54.5276 50.4576 54.9805 50.4699 55.4334 50.3764C55.9268 50.2731 56.3899 50.0468 56.8099 49.7786C57.3666 49.4219 57.8828 48.9988 58.4091 48.6003C59.2896 47.9312 60.1879 47.2694 60.9976 46.5167C61.2607 46.2707 61.3594 45.9705 61.3138 45.6163C61.2531 45.1464 61.0507 44.6741 60.871 44.2387C60.494 43.3236 59.9956 42.4158 59.2415 41.7418C59.0568 41.5769 58.8569 41.4269 58.6444 41.2965L58.7608 41.4441C58.6039 40.4035 58.2825 39.3998 57.8752 38.4257C57.8296 38.3174 57.7537 38.2535 57.6323 38.2461C55.9243 38.1255 54.1986 38.2313 52.4957 38.3838C50.5069 38.5634 48.5257 38.8414 46.5672 39.2129C45.5551 39.4047 44.5481 39.6237 43.5511 39.8869C43.2374 39.9706 43.3715 40.4453 43.6852 40.3617L43.6802 40.3691Z" fill="#303030"/>
<path d="M87.7251 68.0129C82.6467 62.5886 74.0766 68.5492 70.4886 71.5578C66.9007 74.5664 64.2059 78.8124 62.2449 80.217C60.2839 81.6217 58.4849 83.4028 56.7617 84.1408C55.0386 84.8788 52.6399 85.7988 50.0691 86.9944C46.094 88.8443 37.9337 90.6008 36.8255 93.5184C36.0107 95.6635 39.4899 98.6426 42.4858 99.383C45.4816 100.123 48.0499 99.2108 52.7031 96.2268C55.2081 94.6204 58.786 92.5122 62.6725 90.4556C66.5591 88.3991 71.6652 87.356 77.6975 84.5639C83.7297 81.7693 86.0449 80.4335 87.6061 77.238C88.8434 74.7041 89.5292 69.9415 87.7251 68.0129Z" fill="#FFCCCC"/>
<path d="M59.2034 82.5909C59.2362 84.0054 60.7873 87.9144 64.2058 89.6733L65.8277 88.8886C65.8277 88.8886 66.3059 89.7471 64.8915 90.4384C63.477 91.1272 62.2473 91.4642 60.8177 92.3104C59.3881 93.1567 56.1012 94.5491 54.0567 95.971C52.0122 97.3928 48.4496 99.5183 44.6516 100.109C41.1269 100.657 38.4903 99.4814 36.8785 98.2096C33.8396 95.8135 34.2621 93.1739 36.4104 91.7053C39.1026 89.8627 43.5104 89.11 46.5797 87.939C49.6489 86.768 50.9546 86.003 52.9712 85.0829C54.9879 84.1629 56.9413 83.1862 58.2089 81.939C59.4766 80.6918 60.1725 81.1149 60.5545 81.5159L59.2034 82.5885V82.5909Z" fill="#F55571"/>
<path d="M39.295 90.2516C40.9448 90.0523 42.5743 90.6698 43.9204 91.5579C45.5044 92.6034 46.7873 94.0843 47.6298 95.7546C48.1283 96.7436 48.4699 97.8186 48.604 98.9133C48.6192 99.0461 48.7078 99.1593 48.857 99.1593C48.981 99.1593 49.1253 99.0461 49.1101 98.9133C48.8596 96.8641 47.9689 94.9428 46.6405 93.3438C45.4462 91.9047 43.8648 90.6968 42.0556 90.0892C41.175 89.794 40.2236 89.6489 39.295 89.762C39.1584 89.7793 39.042 89.8629 39.042 90.008C39.042 90.1286 39.1584 90.2713 39.295 90.254V90.2516Z" fill="#303030"/>
<path d="M86.541 65.063C82.0674 61.1737 76.9157 60.4505 66.5415 62.4259L63.3735 79.7124C63.3735 79.7124 64.1124 85.2942 70.757 89.0433C70.757 89.0433 79.8686 85.7468 84.3751 82.2635C91.47 76.7776 90.2808 68.3102 86.5435 65.0606L86.541 65.063Z" fill="#00826F"/>
<path d="M76.0454 67.5528C73.7884 67.7988 71.9388 69.1494 70.4307 70.7189C69.7627 71.4151 69.1529 72.1604 68.538 72.8985C67.6752 73.9366 66.8022 74.9649 65.947 76.0079C65.0918 77.051 64.2239 78.1457 63.4167 79.2551C63.2295 79.5134 63.6672 79.7594 63.8544 79.5036C65.322 77.4839 66.9465 75.5774 68.5507 73.6586C69.831 72.1285 71.0785 70.5098 72.7485 69.3536C73.7252 68.6771 74.841 68.1752 76.0429 68.0448C76.1796 68.0301 76.296 67.9415 76.296 67.7988C76.296 67.6783 76.1796 67.5381 76.0429 67.5528H76.0454Z" fill="#303030"/>
<path d="M21.6517 71.4098C29.1946 65.4246 42.1143 71.0728 47.056 72.7579C51.9977 74.443 65.4386 80.7653 68.0398 81.4418C70.6409 82.1158 73.232 83.2425 75.3144 83.3262C77.3943 83.4098 80.2434 83.4123 83.3861 83.6337C88.2468 83.9756 97.3736 82.5783 99.7268 85.1466C101.458 87.0334 99.1144 91.4664 96.3387 93.4073C93.563 95.3458 90.5418 95.4171 84.5121 94.1724C81.2657 93.5033 76.7086 92.7382 71.853 92.1502C66.9973 91.5598 59.3684 91.3065 51.9977 90.8022C44.6269 90.2954 32.6611 89.9707 25.1182 85.9608C17.5754 81.951 16.3659 75.6066 21.6492 71.4148L21.6517 71.4098Z" fill="#FFCCCC"/>
<path d="M28.8172 63.6484C23.1518 64.0814 16.4541 68.2216 16.4845 75.6041C16.5123 82.4676 20.3862 84.5094 24.3259 86.5881C28.6476 88.8685 36.6814 90.4159 42.5997 91.0309C47.2302 91.5106 53.5281 91.6902 53.5281 91.6902C53.5281 91.6902 55.5043 89.2892 56.9845 84.9079C58.4673 80.5266 57.063 76.4085 57.063 76.4085C50.2438 72.598 28.8172 63.6484 28.8172 63.6484Z" fill="#00826F"/>
<path d="M55.0895 75.3626L56.5039 76.1006C56.5039 76.1006 57.4047 80.814 56.5039 84.2137C55.2387 88.9837 52.6528 91.6602 52.6528 91.6602L50.4059 91.5667C50.4059 91.5667 50.1933 93.2198 51.9063 93.5839C53.6193 93.948 54.5834 93.3232 56.1901 93.5839C57.7969 93.8447 58.3864 94.8336 60.1526 94.2604C61.9213 93.6872 64.2238 90.7205 65.4561 86.7623C66.6884 82.8041 65.9925 79.2125 64.8665 78.0145C63.7406 76.8164 62.0098 77.2961 60.9927 76.723C59.9755 76.1498 57.3693 73.4364 55.092 75.3601L55.0895 75.3626Z" fill="#00826F"/>
<path d="M56.9718 79.1044C57.6398 78.9175 58.3306 78.915 58.996 79.1192C59.6615 79.3234 60.1979 79.7022 60.7369 80.1106C61.2758 80.5189 61.8198 80.8584 62.5132 80.9248C63.123 80.9839 63.7277 80.8117 64.3426 80.9101C65.0004 81.0159 65.6254 81.3111 66.0202 81.8498C66.0986 81.958 66.2403 82.0097 66.3668 81.9384C66.4756 81.8769 66.5363 81.7096 66.4579 81.6013C66.0682 81.07 65.5166 80.7034 64.8739 80.5239C64.5829 80.4427 64.2793 80.3984 63.9782 80.3861C63.624 80.3713 63.2748 80.423 62.9231 80.4427C62.5941 80.4599 62.2702 80.4205 61.9641 80.2975C61.6579 80.1745 61.3872 79.9802 61.1265 79.7858C60.5471 79.3504 59.9828 78.9371 59.2845 78.6961C58.495 78.423 57.6423 78.4082 56.8402 78.6321C56.529 78.7207 56.6606 79.1954 56.9743 79.1069L56.9718 79.1044Z" fill="#303030"/>
<path d="M60.7724 87.5296C61.448 86.3758 61.8073 85.0351 62.0173 83.7313C62.2704 82.1692 62.3108 80.5603 62.0224 79.0007C61.868 78.1692 61.6099 77.3525 61.2102 76.5997C61.0609 76.3193 60.6231 76.5677 60.7724 76.8482C61.4657 78.1569 61.6985 79.6624 61.7162 81.1212C61.7339 82.58 61.5315 84.0511 61.1039 85.4508C60.9116 86.0831 60.6712 86.7054 60.3347 87.2811C60.1727 87.5566 60.6105 87.8051 60.7724 87.5296Z" fill="#303030"/>
<path d="M65.4535 86.7642C66.6857 82.8061 65.9899 79.2145 64.8639 78.0164C63.7379 76.8184 62.0072 77.2981 60.99 76.7249C59.9728 76.1517 57.3666 73.4383 55.0894 75.3621" stroke="#303030" stroke-width="0.492003" stroke-linecap="round" stroke-linejoin="round"/>
<path d="M35.4999 72.212C37.5773 71.5478 39.7787 71.3756 41.9522 71.538C43.731 71.6708 45.4794 72.0226 47.1747 72.5589C48.6322 73.0213 50.0618 73.5601 51.4788 74.1234C52.5112 74.5343 53.5385 74.9574 54.5582 75.3977C55.1401 75.6486 55.6918 75.9537 56.2509 76.2464L56.3749 76.3104L56.2585 76.1628C56.3876 76.8344 56.4584 77.4494 56.5242 78.1357C56.6609 79.5453 56.7064 80.9721 56.5672 82.3817C56.4104 83.9537 55.9195 85.4838 55.2945 86.9352C54.8011 88.0766 54.1963 89.1787 53.4803 90.2046C53.3462 90.3989 53.207 90.5883 53.0628 90.7753C53.0349 90.8097 53.0096 90.8466 52.9818 90.8811C52.9691 90.8983 52.9565 90.9155 52.9438 90.9303C52.9362 90.9401 52.9261 90.9524 52.9185 90.9622C52.9362 90.9376 52.9388 90.9377 52.9185 90.9598C52.8679 91.0238 52.8148 91.0877 52.7617 91.1517C52.668 91.2648 52.5719 91.378 52.4707 91.4838C52.248 91.715 52.6048 92.0643 52.8274 91.8306C53.2095 91.4346 53.541 90.9819 53.8573 90.5367C54.6594 89.3977 55.3198 88.1677 55.8537 86.8909C56.2105 86.0398 56.509 85.1664 56.7444 84.2759C56.9569 83.4715 57.0657 82.6425 57.1163 81.8159C57.2099 80.335 57.1264 78.8393 56.9443 77.3682C56.8936 76.9648 56.838 76.5638 56.7671 76.1652C56.7469 76.0521 56.7393 75.9586 56.628 75.8873C56.504 75.8085 56.3597 75.747 56.2282 75.6782C55.7221 75.4149 55.2287 75.1542 54.7049 74.9279C53.7029 74.4974 52.6959 74.0816 51.6838 73.6782C50.3503 73.1493 49.0067 72.6376 47.6403 72.1923C46.1146 71.6929 44.5635 71.3387 42.9643 71.1443C40.9198 70.8959 38.8298 70.9229 36.8132 71.351C36.3223 71.4543 35.839 71.5822 35.3633 71.7348C35.0546 71.8332 35.1862 72.3079 35.4974 72.2095L35.4999 72.212Z" fill="#303030"/>
<path d="M72.1565 82.6909C72.7081 84.1595 72.7385 88.7917 69.9501 91.9454L67.9537 91.7757C67.9537 91.7757 67.817 92.8483 69.5604 93.0008C71.3038 93.1558 72.7081 93.018 74.5299 93.3255C76.3518 93.633 80.3142 93.7757 83.009 94.4374C85.7038 95.0992 90.2532 95.8839 94.408 95.0008C98.2617 94.1816 100.053 92.034 100.903 89.9627C102.702 85.5814 100.228 83.9332 97.4039 83.264C93.8665 82.4252 91.0098 83.2321 87.3662 83.2321C83.7225 83.2321 82.0576 82.959 79.6032 82.804C77.1463 82.649 74.7298 82.4104 72.908 81.6257C71.0862 80.8409 70.5447 81.5494 70.3195 82.1128L72.1565 82.6859V82.6909Z" fill="#F55571"/>
<path d="M75.246 82.4199C76.4808 83.9205 76.8148 90.2477 73.2749 93.1677" stroke="#303030" stroke-width="0.492003" stroke-linecap="round" stroke-linejoin="round"/>
<path d="M72.313 83.2656C73.2543 83.4501 74.9091 83.7306 75.8478 83.9151" stroke="#303030" stroke-width="0.492003" stroke-linecap="round" stroke-linejoin="round"/>
<path d="M72.5107 85.2588C73.452 85.4433 75.1068 85.7237 76.0456 85.9082" stroke="#303030" stroke-width="0.492003" stroke-linecap="round" stroke-linejoin="round"/>
<path d="M72.4146 87.374C73.3609 87.529 75.0233 87.7578 75.9696 87.9103" stroke="#303030" stroke-width="0.492003" stroke-linecap="round" stroke-linejoin="round"/>
<path d="M71.7563 89.3789C72.7052 89.5167 74.3727 89.7184 75.3215 89.8562" stroke="#303030" stroke-width="0.492003" stroke-linecap="round" stroke-linejoin="round"/>
<path d="M70.7266 91.332C71.6754 91.4649 73.3454 91.6543 74.2943 91.7871" stroke="#303030" stroke-width="0.492003" stroke-linecap="round" stroke-linejoin="round"/>
<path d="M94.3695 82.6559C92.7906 83.4185 91.7152 84.9068 91.0573 86.4542C90.2856 88.2672 90.0502 90.2992 90.3185 92.2401C90.4779 93.3914 90.827 94.5107 91.366 95.5513C91.5128 95.8342 91.948 95.5857 91.8037 95.3028C90.9029 93.5611 90.5816 91.5735 90.7714 89.6399C90.9409 87.8933 91.5381 86.1196 92.6438 84.7149C93.1752 84.0409 93.8406 83.4603 94.625 83.0815C94.916 82.9413 94.6605 82.5157 94.3695 82.6559Z" fill="#303030"/>
<path d="M56.9037 69.8574C55.7018 69.0062 55.049 68.6544 53.8572 67.4269C52.964 66.5093 51.4383 64.2018 53.0855 63.2301C54.0369 62.6692 54.7606 63.0235 55.7398 63.1342C56.5065 63.2227 57.6021 63.1932 57.974 62.3224C58.2195 61.7492 57.177 61.3162 56.6482 61.0284C55.7322 60.5315 54.8086 60.1821 53.799 59.9091C52.1341 59.4589 50.5122 59.513 48.3968 59.9558C46.5472 60.3445 45.358 60.1502 44.2345 59.7197C40.353 58.2314 30.9428 53.3753 30.9428 53.3753L34.6978 44.2831C34.6978 44.2831 35.0368 36.598 31.0516 29.2646C28.4353 30.4012 26.1909 31.8526 24.1211 36.8021C21.6009 42.8316 19.3009 49.7812 18.4381 53.026C17.5752 56.2707 17.6334 59.3999 21.2771 61.363C22.107 61.8107 22.9724 62.1994 23.8478 62.5561C27.8533 64.1895 32.0966 65.267 36.2969 66.3076C37.8936 66.7036 39.4978 67.0751 41.0868 67.5007C42.6176 67.9091 44.0928 68.8168 45.2669 69.8377C46.0588 70.5265 46.7547 71.3186 47.577 71.973C48.3994 72.6274 49.8062 74.0025 51.4712 73.4761C52.5238 74.1649 53.8952 74.1575 54.5834 73.5794C56.6735 74.4994 57.2883 73.6286 57.6603 73.1809C57.6603 73.1809 58.8495 73.7664 59.3607 73.4244C59.725 73.1809 59.8389 72.7676 59.7554 72.3346C59.644 71.7688 59.2443 71.449 58.8824 71.1858C58.0702 70.5979 57.5591 70.3248 56.8987 69.8598L56.9037 69.8574Z" fill="#FFCCCC"/>
<path d="M51.0562 69.0704C52.3492 70.6399 54.1077 71.7641 55.9372 72.662C56.4635 72.9203 56.9973 73.1614 57.5363 73.3926C57.6603 73.4468 57.807 73.4271 57.883 73.3041C57.9462 73.1983 57.9184 73.0212 57.7919 72.9671C55.9447 72.1725 54.1052 71.2623 52.5946 69.9388C52.167 69.5648 51.7723 69.1589 51.413 68.7235C51.3269 68.6202 51.1448 68.6374 51.0562 68.7235C50.9499 68.8268 50.9702 68.9671 51.0562 69.0704Z" fill="#303030"/>
<path d="M49.7934 70.3053C51.0358 71.8133 52.7109 72.9104 54.4618 73.7911C54.7503 73.9363 55.0058 73.5131 54.7174 73.3655C52.9993 72.5021 51.3698 71.4369 50.1527 69.9559C50.0667 69.8526 49.8845 69.8698 49.7959 69.9559C49.6897 70.0593 49.7099 70.1995 49.7959 70.3028L49.7934 70.3053Z" fill="#303030"/>
<path d="M48.2246 71.0533C49.0646 72.0742 50.1096 72.9082 51.2356 73.6142C51.5089 73.7864 51.7645 73.3608 51.4912 73.1886C50.4006 72.5047 49.3986 71.6929 48.5839 70.704C48.4978 70.6007 48.3157 70.6179 48.2271 70.704C48.1208 70.8073 48.1411 70.9475 48.2271 71.0509L48.2246 71.0533Z" fill="#303030"/>
<path d="M27.0236 52.6589C27.5802 52.7007 28.1369 52.745 28.6835 52.8606C29.3616 53.0033 30.0144 53.2444 30.647 53.515C31.0366 53.6823 31.4111 53.8865 31.7907 54.0759C33.3392 54.8508 34.8903 55.6257 36.4388 56.4006C36.8639 56.6122 37.2865 56.8262 37.7116 57.0377C38 57.1829 38.2581 56.7573 37.9671 56.6122C36.8361 56.0464 35.7076 55.4806 34.5765 54.9172L32.236 53.7462C31.8489 53.5544 31.4668 53.3502 31.0771 53.1657C30.4091 52.8533 29.6905 52.5876 28.9669 52.4178C28.3292 52.2702 27.6764 52.2161 27.0261 52.1669C26.7022 52.1423 26.7022 52.6343 27.0261 52.6589H27.0236Z" fill="#303030"/>
<path d="M30.5806 29.043C27.8985 30.2828 25.0266 32.3296 23.2402 38.0442C27.4355 39.407 31.4485 41.7859 34.4824 45.7932L35.4338 43.9482C35.4338 43.9482 35.7905 32.7182 30.5806 29.043Z" fill="white" stroke="#303030" stroke-width="0.492003" stroke-linecap="round" stroke-linejoin="round"/>
<path d="M68.4111 55.4199C67.5761 56.2686 66.5817 56.9304 64.7346 57.3289C62.6218 57.784 61.1264 58.3965 59.8081 59.4839C59.0085 60.1432 58.1558 60.8615 57.5384 61.6856C57.1816 62.1604 56.6047 63.2329 57.2626 63.6487C58.0748 64.1628 58.7732 63.5921 59.4311 63.201C60.2711 62.7016 60.7772 62.0841 61.8804 62.2071C63.7958 62.4211 63.4011 65.137 62.9861 66.3326C62.432 67.9316 61.9917 68.5171 61.2655 69.779C60.8683 70.4703 60.5191 70.9254 60.0358 71.7913C59.8207 72.1776 59.5955 72.6302 59.7372 73.1911C59.846 73.6167 60.1269 73.9488 60.5646 74.0201C61.177 74.121 62.0044 73.1074 62.0044 73.1074C62.5357 73.3608 63.4694 73.902 64.9699 72.2169C65.8428 72.4605 67.0928 71.9094 67.7507 70.8565C69.489 70.6573 70.1747 68.8369 70.6403 67.907C71.1059 66.9771 72.3483 63.9463 73.2465 58.8418L68.4086 55.4199H68.4111Z" fill="#FFCCCC"/>
<path d="M65.7594 66.5344C65.3141 68.2834 64.4209 69.8972 63.2898 71.3167C63.0039 71.6758 62.7028 72.0202 62.389 72.3572C62.1082 72.6574 61.8096 72.9427 61.5338 73.2478C61.3465 73.4544 61.1239 73.7471 60.8304 73.8086C60.5166 73.8751 60.1624 73.5872 60.0181 73.3363C59.8334 73.0141 59.9321 72.6205 60.0611 72.2982C60.1902 71.9759 60.3926 71.661 60.5824 71.3585C60.7519 71.0879 60.3142 70.8394 60.1446 71.11C59.755 71.7299 59.2995 72.4458 59.4387 73.2059C59.5171 73.634 59.8511 73.9956 60.2459 74.185C60.6128 74.3622 61.01 74.34 61.344 74.1063C61.678 73.8726 61.8956 73.5676 62.1689 73.2945C62.5231 72.9403 62.8673 72.5811 63.1962 72.2047C63.8566 71.4446 64.4563 70.6303 64.9598 69.7644C65.5241 68.7927 65.9694 67.7521 66.2452 66.6672C66.3236 66.3597 65.8353 66.2293 65.7569 66.5368L65.7594 66.5344Z" fill="#303030"/>
<path d="M67.4397 67.1423C66.9767 68.9578 65.9671 70.5789 64.7955 72.0427C64.712 72.1484 64.6893 72.2887 64.7955 72.3895C64.8841 72.4756 65.0688 72.4953 65.1523 72.3895C66.3795 70.8569 67.4422 69.1718 67.9281 67.2727C68.0065 66.9652 67.5182 66.8348 67.4397 67.1423Z" fill="#303030"/>
<path d="M69.1851 67.1843C68.8713 68.4143 68.3071 69.5558 67.6087 70.6209C67.4341 70.8891 67.8719 71.1351 68.0465 70.8694C68.7651 69.7698 69.3496 68.584 69.6734 67.3147C69.7519 67.0072 69.2635 66.8768 69.1851 67.1843Z" fill="#303030"/>
<path d="M57.4678 61.3957C57.1945 61.6712 56.9643 61.9886 56.8074 62.3428C56.7087 62.5667 56.6353 62.7955 56.6404 63.0415C56.6454 63.2875 56.7264 63.5236 56.8884 63.7155C57.0832 63.9468 57.3818 64.0673 57.6753 64.1165C57.8094 64.1386 57.9486 64.0821 57.9865 63.9443C58.0194 63.8262 57.946 63.6639 57.8094 63.6417C57.6829 63.622 57.5564 63.5901 57.4551 63.5384C57.3716 63.4941 57.3109 63.4498 57.2628 63.3933C57.278 63.4105 57.2401 63.3613 57.235 63.3539C57.2198 63.3318 57.2097 63.3096 57.197 63.2875C57.1717 63.2407 57.2072 63.3195 57.1869 63.2678C57.1793 63.2481 57.1717 63.2284 57.1667 63.2063C57.1616 63.1842 57.1566 63.1645 57.1515 63.1448C57.149 63.1325 57.1414 63.0685 57.1464 63.1276C57.1414 63.0858 57.1414 63.0439 57.1414 63.0021C57.1414 62.9603 57.1439 62.9209 57.1515 62.8791C57.1439 62.9382 57.1642 62.8275 57.1692 62.8078C57.1945 62.7094 57.2299 62.6159 57.273 62.5249C57.4096 62.237 57.5968 61.9787 57.822 61.75C58.0472 61.5212 57.6905 61.1719 57.4653 61.4031L57.4678 61.3957Z" fill="#303030"/>
<path d="M83.8616 51.6999L82.389 50.2903C80.6203 48.5978 78.6188 46.0517 79.1376 43.5425C79.4817 41.8795 81.1466 40.802 82.8546 41.1366C84.3601 41.4318 85.4001 42.7233 85.3925 44.1624C85.3975 44.1747 85.4051 44.1845 85.4102 44.1968C85.4203 44.1895 85.4304 44.1796 85.4405 44.1722C86.0023 42.8389 87.4749 42.037 88.983 42.3322C90.6935 42.6667 91.8017 44.2854 91.4576 45.9459C90.9389 48.4551 88.0847 50.0542 85.7796 50.9521L83.8616 51.6999Z" fill="#FF95FB"/>
<path d="M85.4026 51.0261L83.93 49.6165C82.1613 47.924 80.1599 45.3779 80.6786 42.8687C81.0227 41.2057 82.6876 40.1282 84.3956 40.4628C85.9011 40.758 86.9411 42.0495 86.9335 43.4886C86.9385 43.5009 86.9461 43.5107 86.9512 43.523C86.9613 43.5156 86.9714 43.5058 86.9816 43.4984C87.5433 42.1651 89.0159 41.3631 90.524 41.6583C92.2345 41.9929 93.3427 43.6116 92.9986 45.2721C92.4799 47.7813 89.6257 49.3803 87.3206 50.2782L85.4026 51.0261Z" fill="white" stroke="#303030" stroke-width="0.492003" stroke-linecap="round" stroke-linejoin="round"/>
</svg>
