<svg width="24" height="30" viewBox="0 0 24 30" fill="none" xmlns="http://www.w3.org/2000/svg">
<path d="M17.2859 3.27173H20.4573C21.018 3.27173 21.5558 3.49448 21.9523 3.89099C22.3488 4.28749 22.5716 4.82527 22.5716 5.38601V26.5289C22.5716 27.0896 22.3488 27.6274 21.9523 28.0239C21.5558 28.4204 21.018 28.6432 20.4573 28.6432H3.543C2.98225 28.6432 2.44448 28.4204 2.04797 28.0239C1.65147 27.6274 1.42871 27.0896 1.42871 26.5289V5.38601C1.42871 4.82527 1.65147 4.28749 2.04797 3.89099C2.44448 3.49448 2.98225 3.27173 3.543 3.27173H6.71443" stroke="#EC407A" stroke-linecap="round" stroke-linejoin="round"/>
<path d="M15.1716 1.35693H8.82871C8.26796 1.35693 7.73019 1.57969 7.33368 1.97619C6.93718 2.3727 6.71442 2.91048 6.71442 3.47122V4.52836C6.71442 5.08911 6.93718 5.62688 7.33368 6.02339C7.73019 6.41989 8.26796 6.64265 8.82871 6.64265H15.1716C15.7323 6.64265 16.2701 6.41989 16.6666 6.02339C17.0631 5.62688 17.2859 5.08911 17.2859 4.52836V3.47122C17.2859 2.91048 17.0631 2.3727 16.6666 1.97619C16.2701 1.57969 15.7323 1.35693 15.1716 1.35693ZM10.5265 11.3152C10.2854 11.3152 10.0541 11.411 9.88362 11.5815C9.71312 11.752 9.61734 11.9832 9.61734 12.2244V14.7763H7.06539C6.82427 14.7763 6.59303 14.8721 6.42253 15.0426C6.25203 15.2131 6.15625 15.4443 6.15625 15.6854V18.6349C6.15625 19.136 6.56431 19.544 7.06539 19.544H9.61734V22.096C9.61734 22.5971 10.0254 23.0051 10.5265 23.0051H13.4759C13.717 23.0051 13.9483 22.9093 14.1188 22.7388C14.2893 22.5683 14.3851 22.3371 14.3851 22.096V19.5398H16.937C17.1781 19.5398 17.4094 19.444 17.5799 19.2735C17.7504 19.103 17.8461 18.8718 17.8461 18.6306V15.6854C17.8456 15.4447 17.7495 15.214 17.5791 15.044C17.4087 14.8739 17.1777 14.7784 16.937 14.7784H14.3851V12.2222C14.3845 11.9815 14.2885 11.7508 14.118 11.5808C13.9476 11.4107 13.7167 11.3152 13.4759 11.3152H10.5265Z" stroke="#EC407A" stroke-linecap="round" stroke-linejoin="round"/>
</svg>
