<svg width="214" height="243" viewBox="0 0 214 243" fill="none" xmlns="http://www.w3.org/2000/svg">
<path d="M110.744 41.7042C110.423 41.0429 110.524 39.1842 112.256 39.4147C151.238 44.5798 145.403 6.73563 122.464 1.19977C102.4 -3.6347 83.9983 7.70253 83.9983 7.70253C83.9983 7.70253 92.5178 8.69948 90.3491 13.9147C79.0999 40.9677 112.847 54.88 121.517 72.4845C127.948 85.5401 109.842 94.1269 109.362 94.3524C109.812 93.9215 126.636 77.7599 110.383 67.9055C92.067 56.7988 61.1393 71.5878 50.0504 77.9803C30.8777 89.037 23.7205 106.496 23.7205 106.496C66.9642 122.798 106.171 102.268 107.048 101.807C80.5374 128.304 15.251 109.587 15.251 109.587L0 118.63C0 118.63 16.5833 129.326 63.2879 127.838C103.602 126.551 147.777 104.703 136.172 77.7799C130.197 63.9227 113.714 47.8612 110.744 41.7042ZM117.265 11.6853C119.288 11.6853 120.931 13.3285 120.931 15.3525C120.931 17.3765 119.288 19.0147 117.265 19.0147C115.242 19.0147 113.604 17.3765 113.604 15.3525C113.604 13.3285 115.247 11.6853 117.265 11.6853Z" fill="#EC407A"/>
<path d="M144.627 21.1885L214 35.8472L139.358 34.8152C139.358 34.8152 145.313 31.0378 144.622 21.1885H144.627Z" fill="#FFA6C8"/>
<path d="M203.212 108.705C197.442 114.186 189.764 117.613 181.83 118.254C173.897 118.895 165.768 116.746 159.191 112.272C152.6 107.788 147.527 100.77 146.425 92.8741C145.288 84.7231 148.348 76.6022 151.844 69.1526C157.228 57.6902 163.804 46.7838 171.427 36.6689C179.411 46.4531 183.363 59.2081 182.131 71.7828C181.545 77.7645 179.847 83.7412 180.698 89.6879C181.429 94.7929 184.099 99.5973 188.051 102.909C192.002 106.22 198.058 108.875 203.212 108.705Z" fill="#F9EDD4"/>
<path d="M204.809 95.1992V95.2059" stroke="#C93F3F" stroke-miterlimit="10"/>
<path d="M190.87 9.3916C188.186 9.66213 185.496 10.2383 183.062 11.4506C180.628 12.663 178.459 14.5567 177.192 17.0316C175.925 19.5064 175.649 22.5825 176.771 25.1325C180.723 25.6034 184.83 24.2808 187.535 21.2549C190.239 18.2289 191.622 13.4496 190.87 9.3916Z" fill="#F9EDD4"/>
<path d="M173.596 23.3129C171.743 23.7537 169.729 23.2628 168.152 22.1957C166.574 21.1286 165.412 19.5104 164.686 17.7469C163.96 15.9835 163.649 14.0748 163.549 12.166C165.387 12.5818 167.145 13.0477 168.833 13.8894C170.521 14.731 172.063 15.9484 173.045 17.5616C174.027 19.1747 174.217 21.5294 173.596 23.3079V23.3129Z" fill="#F9EDD4"/>
<path d="M100.526 240.109C98.9387 239.613 94.4761 238.345 91.466 237.103C90.5795 236.737 89.8783 236.306 89.3524 235.91C88.546 235.304 88.0852 234.342 88.0802 233.33L87.7146 182.937C89.2923 181.749 90.3341 179.715 90.3341 177.396C90.3341 175.076 89.2572 172.977 87.6345 171.8L87.3139 127.388L80.903 129.792L81.2385 171.89C80.6175 172.361 80.0816 172.972 79.6608 173.673C79.2702 173.017 78.7743 172.446 78.2084 171.985L77.8878 127.388L71.4769 129.792L71.8075 171.71C70.1146 172.872 68.9826 174.981 68.9826 177.396C68.9826 179.81 70.1546 182 71.8976 183.147L72.2933 233.691C72.2933 234.222 72.2733 234.753 72.2031 235.279C71.9627 237.058 71.8125 242.388 78.6591 242.388H100.521C101.112 242.388 101.568 241.852 101.458 241.276C101.363 240.795 101.117 240.299 100.526 240.114V240.109ZM81.7344 236.802L80.0866 235.68C79.19 235.069 78.6541 234.062 78.6441 232.98L78.2785 182.746C78.8144 182.3 79.2802 181.749 79.6558 181.123C80.0966 181.859 80.6626 182.491 81.3187 182.972L81.7294 234.708V236.802H81.7344Z" fill="#FFA6C8"/>
<path d="M204.093 105.765C205.611 93.3302 204.889 80.4751 200.657 68.687C196.425 56.8988 188.501 46.2379 177.703 39.8955C184.449 49.1837 187.585 60.7013 186.007 72.0736C185.416 76.3419 184.209 80.5151 183.788 84.8035C183.368 89.0919 183.808 93.6659 186.223 97.2329C188.031 99.9031 190.805 101.792 193.765 103.059C196.725 104.327 200.948 105.093 204.098 105.77L204.093 105.765Z" fill="#F9EDD4"/>
<path d="M195.694 98.937C202.601 98.937 208.2 93.3363 208.2 86.4275C208.2 79.5187 202.601 73.918 195.694 73.918C188.787 73.918 183.187 79.5187 183.187 86.4275C183.187 93.3363 188.787 98.937 195.694 98.937Z" fill="white"/>
<path d="M191.486 80.7774C193.325 79.7053 195.499 82.125 194.237 83.8384C194.598 82.0849 193.265 80.602 191.486 80.7774Z" fill="black"/>
<path d="M197.322 88.627C199.16 87.5549 201.334 89.9746 200.072 91.688C200.433 89.9345 199.1 88.4516 197.322 88.627Z" fill="black"/>
<path d="M202.335 86.3517C203.617 86.001 204.569 84.8588 204.709 83.5362C203.227 84.2125 201.534 84.2126 200.016 83.6214C204.343 82.9751 202.836 77.0836 201.664 76.1367C204.649 76.4173 212.693 87.504 202.335 86.3517Z" fill="black"/>
<path d="M188.692 88.9814C190.1 89.8682 191.177 91.2309 191.708 92.809C190.295 91.9222 189.223 90.5595 188.692 88.9814Z" fill="black"/>
</svg>
