<svg width="238" height="262" viewBox="0 0 238 262" fill="none" xmlns="http://www.w3.org/2000/svg">
<path d="M64.0514 67.6113C62.1248 65.9725 58.4896 66.9558 55.3997 69.7598C53.2186 66.1182 50.0561 64.1517 47.7296 65.1714C45.4031 66.191 44.6033 71.0708 46.639 75.732C47.169 77.2962 48.0717 78.7073 49.2688 79.8432C50.466 80.979 51.9216 81.8053 53.5095 82.2505C55.1597 82.3018 56.7969 81.9429 58.2749 81.2057C59.7528 80.4686 61.0256 79.3763 61.9794 78.0262C65.3237 74.2026 66.3052 69.5049 64.0514 67.6113Z" fill="#FFC5D2"/>
<path d="M69.2498 36.548C67.5049 36.111 65.6147 37.9318 64.5241 40.7359C62.0159 39.17 59.3258 38.9515 58.2353 40.3717C57.1447 41.792 58.2353 45.1058 60.998 47.3272C61.7508 48.271 62.7778 48.957 63.9368 49.2904C65.0959 49.6238 66.3297 49.588 67.4676 49.1881C68.6055 48.7881 69.5911 48.0437 70.2881 47.0579C70.9852 46.0721 71.3592 44.8936 71.3582 43.6856C72.1943 40.2261 71.2491 37.0214 69.2498 36.548Z" fill="#FFC5D2"/>
<path d="M157.838 35.5284C159.329 40.0804 167.726 65.5352 152.459 78.0623C142.171 86.5473 124.25 86.7658 118.179 79.0092C111.527 70.415 124.759 59.0896 122.214 35.5284C120.396 18.3765 108.473 8.94472 112.654 4.06497C115.816 0.423371 124.541 3.08174 127.703 4.06497C134.815 6.61434 141.238 10.7832 146.468 16.2431C151.697 21.703 155.59 28.3048 157.838 35.5284Z" fill="#3F469A"/>
<path d="M128.466 67.392C132.102 79.6642 144.752 119.722 122.505 149.729C104.329 174.164 71.6126 180.427 67.9774 175.475C66.9232 174.055 66.6687 169.794 63.0699 167.755C61.6159 166.917 61.1797 167.354 60.0528 166.444C57.4355 164.331 58.9986 161.163 56.6357 157.886C55.0726 155.701 53.9457 156.466 51.9464 154.244C49.8822 151.784 48.8066 148.643 48.9292 145.432C49.1473 139.459 54.6364 137.675 58.3443 132.14C66.1235 120.596 54.7091 110.29 61.9794 97.7994C67.1414 88.7682 74.7752 91.9728 78.2286 83.233C82.1182 73.4371 74.5934 64.588 80.3733 56.8314C82.3363 54.2822 83.5722 54.6828 86.3713 52.3158C98.0765 42.4106 91.3152 21.872 96.0045 19.9419C100.694 18.0119 119.451 38.3684 128.466 67.392Z" fill="#3F469A"/>
<path d="M68.9951 177.588C67.5004 177.671 66.0268 177.205 64.8511 176.277C63.5736 174.946 62.5728 173.374 61.9066 171.652C61.5132 170.523 60.8807 169.492 60.0526 168.63C59.6395 168.405 59.1999 168.234 58.744 168.12C58.0899 167.994 57.4775 167.706 56.9627 167.282C56.3023 166.694 55.7684 165.978 55.3934 165.177C55.0184 164.375 54.8102 163.506 54.7816 162.621C54.6525 161.154 54.1657 159.741 53.3639 158.506C52.886 157.817 52.2158 157.285 51.4373 156.977C50.3986 156.491 49.4706 155.797 48.711 154.937C46.4904 152.311 45.3357 148.945 45.4756 145.506C45.668 143.736 46.2305 142.027 47.1261 140.49C48.0218 138.953 49.2306 137.622 50.674 136.584C52.3091 135.143 53.7728 133.517 55.0361 131.74C58.6712 126.169 57.8715 120.815 56.8537 115.244C55.0832 109.335 55.6561 102.969 58.4531 97.4728C60.4873 93.9414 63.6697 91.2162 67.4684 89.7526C69.1028 89.2286 70.6018 88.3499 71.8584 87.1791C73.1151 86.0084 74.0986 84.5743 74.7387 82.9792C76.0274 78.9087 76.1658 74.5602 75.1385 70.4157C74.3751 65.718 73.6118 60.8383 76.9925 56.3955C77.4477 55.7899 77.9723 55.2399 78.5556 54.7568C80.0251 53.5255 81.636 52.4742 83.354 51.625C84.5536 51.0424 87.7162 47.0002 95.3863 26.1338L97.0949 26.7529C88.9521 48.8574 85.7896 52.4626 84.0811 53.2273C82.5171 54.0414 81.0427 55.0178 79.6824 56.1406C79.2084 56.5144 78.792 56.9562 78.4465 57.4516C75.5384 61.2752 76.1928 65.3539 76.9198 70.0879C78.035 74.5606 77.8584 79.2586 76.4108 83.6347C75.6937 85.4301 74.5982 87.0492 73.1992 88.3816C71.8002 89.714 70.1305 90.7282 68.3044 91.3549C64.8469 92.6734 61.9467 95.1418 60.089 98.3468C56.781 104.1 57.7261 109.272 58.7076 114.88C59.6891 120.488 60.7796 126.533 56.6356 132.724C55.2202 134.655 53.5855 136.414 51.7645 137.967C50.496 138.848 49.4287 139.988 48.6329 141.313C47.837 142.637 47.3309 144.116 47.1479 145.651C47.0513 148.616 48.033 151.515 49.9105 153.808C50.5137 154.494 51.2578 155.04 52.0916 155.411C53.1328 155.858 54.0272 156.59 54.6725 157.523C55.6685 158.969 56.2701 160.651 56.4175 162.403C56.4194 163.08 56.5553 163.751 56.8174 164.376C57.0794 165.001 57.4624 165.568 57.9443 166.044C58.2603 166.302 58.6349 166.477 59.0348 166.554C59.6579 166.7 60.2575 166.933 60.816 167.246C62.0408 168.239 62.9503 169.567 63.4333 171.07C63.982 172.557 64.8226 173.919 65.9053 175.075C67.3593 176.313 70.0857 176.277 74.0844 175.075L74.6659 176.787C72.8311 177.359 70.9161 177.629 68.9951 177.588Z" fill="#3F469A"/>
<path d="M174.269 160.472L191.827 154.464C193.563 139.433 193.709 124.26 192.263 109.198C191.585 102.231 190.652 95.7246 189.464 89.6795C186.593 78.7547 178.086 73.6929 173.579 75.1131C169.071 76.5333 166.672 83.9258 168.489 92.4835L174.269 160.472Z" fill="#FF8C64"/>
<path d="M176.269 196.561C181.103 205.847 169.362 225.985 165.945 231.593C156.782 236.376 146.577 238.803 136.246 238.658C109.2 238.148 92.0784 219.394 88.9885 215.716C91.2399 213.506 93.1402 210.964 94.6231 208.178C98.5854 200.457 101.275 186.765 102.257 184.544L103.675 181.485C108.146 171.288 105.492 161.456 103.675 147.69C103.093 143.066 102.62 138.149 102.184 133.124C101.275 122.527 100.585 111.821 99.2397 103.299V102.753C98.9156 100.535 98.4789 98.3352 97.9311 96.1618C97.7493 95.215 97.6038 94.3046 97.4948 93.3942C97.3857 92.4838 97.4948 92.5931 97.4948 92.1925C97.1502 89.2677 97.2606 86.3071 97.822 83.4162C98.1401 82.7787 98.5304 82.1799 98.9852 81.6318C103.42 75.9873 111.745 76.5336 118.724 71.7267L119.851 70.9255L120.142 70.6706C124.771 70.1983 129.436 70.1983 134.065 70.6706C150.314 71.9088 150.241 77.2255 161.474 75.8053C168.09 75.0041 171.943 74.3851 176.232 76.9342C177.65 77.7353 182.121 80.1752 184.121 89.6798C184.103 89.7761 184.103 89.8748 184.121 89.9711C179.613 102.28 176.232 112.695 173.869 120.451C172.633 124.481 171.543 128.232 170.598 131.704C168.053 140.553 166.381 147.727 165.327 153.553C162.237 169.977 163.945 175.694 165.763 179.591C167.551 183.089 169.761 186.355 172.343 189.314C173.811 191.64 175.122 194.06 176.269 196.561Z" fill="#FF8C64"/>
<path d="M120.832 117.755C120.83 121.069 119.796 124.299 117.873 126.995C115.951 129.691 113.237 131.719 110.109 132.795C108.447 133.365 106.703 133.661 104.947 133.669C103.97 133.666 102.996 133.569 102.039 133.378C98.7122 132.76 95.6697 131.093 93.3543 128.622C91.0388 126.151 89.5713 123.004 89.1656 119.639C88.76 116.274 89.4373 112.868 91.0989 109.915C92.7605 106.963 95.3196 104.619 98.4035 103.225L98.9489 103.007C101.358 102.037 103.969 101.673 106.551 101.947C109.133 102.222 111.609 103.127 113.762 104.582C115.914 106.038 117.678 107.999 118.898 110.296C120.118 112.593 120.757 115.154 120.76 117.755H120.832Z" fill="#FF8C64"/>
<path d="M133.737 111.238C133.738 113.758 134.485 116.221 135.886 118.314C137.287 120.407 139.277 122.036 141.603 122.993C143.93 123.951 146.488 124.194 148.953 123.692C151.418 123.189 153.678 121.964 155.446 120.172C157.215 118.38 158.412 116.102 158.884 113.627C159.357 111.152 159.085 108.593 158.103 106.273C157.12 103.953 155.472 101.979 153.366 100.6C151.261 99.221 148.794 98.5003 146.279 98.5292C142.936 98.558 139.741 99.9109 137.391 102.292C135.041 104.674 133.728 107.89 133.737 111.238Z" fill="#FF8C64"/>
<path d="M183.757 89.8253C145.188 91.2819 130.248 86.8392 103.529 92.2288C102.475 92.4473 100.221 92.9207 97.2768 93.649C96.1445 91.1207 95.9135 88.2795 96.6225 85.601C96.8035 84.9253 97.0724 84.2764 97.4223 83.671C97.7395 83.0411 98.1169 82.4436 98.5492 81.8866C103.02 76.2421 111.345 76.7884 118.288 71.9815L119.415 71.1803L119.742 70.9254C120.761 70.0377 121.6 68.9621 122.214 67.7572C124.256 63.2709 124.477 58.1654 122.832 53.5185C122.05 51.3651 120.893 49.3677 119.415 47.6191L128.43 42.1567L138.063 34.4365C139.372 37.896 141.299 42.7758 143.843 48.6024C149.223 60.911 152.095 67.0289 155.476 69.6872C165.218 77.3346 176.85 71.2167 182.158 78.6456C184.147 82.0133 184.722 86.0335 183.757 89.8253Z" fill="#FF8C64"/>
<path d="M135.155 75.2224C134.871 75.7919 134.407 76.251 133.834 76.5278C133.262 76.8046 132.614 76.8834 131.993 76.7518C131.427 76.5274 130.922 76.1733 130.518 75.718C130.114 75.2626 129.822 74.7187 129.666 74.1299L135.155 75.2224Z" fill="#EA522F"/>
<path d="M128.467 78.9735C127.98 79.3433 127.456 79.6606 126.904 79.9204C125.175 80.7083 123.247 80.9496 121.378 80.6123C117.711 80.1351 114.07 79.4666 110.473 78.6094L120.869 79.1556L128.467 78.9735Z" fill="#EA522F"/>
<path d="M135.155 78.9735C135.934 79.3389 136.736 79.6551 137.554 79.9204C140.278 80.7156 143.135 80.951 145.952 80.6123C153.222 79.9932 160.056 78.9735 162.346 78.6094L146.569 79.1556L135.155 78.9735Z" fill="#EA522F"/>
<path d="M115.998 211.491C138.483 211.491 156.711 193.23 156.711 170.705C156.711 148.179 138.483 129.919 115.998 129.919C93.5121 129.919 75.2839 148.179 75.2839 170.705C75.2839 193.23 93.5121 211.491 115.998 211.491Z" fill="#FF8C64"/>
<path d="M132.501 63.1691C131.869 65.0872 130.505 66.677 128.707 67.5913C126.909 68.5055 124.823 68.67 122.905 68.0488L122.214 67.7575C124.255 63.2712 124.477 58.1657 122.832 53.5188C124.553 52.7058 126.524 52.6012 128.321 53.2275C130.188 53.9946 131.676 55.4711 132.459 57.334C133.243 59.197 133.258 61.2949 132.501 63.1691Z" fill="#EA522F"/>
<path d="M141.444 44.1591C139.287 50.9169 135.267 56.9262 129.848 61.4931C129.01 62.1601 128.079 62.7 127.085 63.0954C126.073 63.5158 125.009 63.7975 123.922 63.933C119.269 64.5521 112.181 59.381 111.563 58.944C108.376 56.9635 105.729 54.2236 103.856 50.9689C102.439 48.1284 102.693 46.6354 100.548 42.0105C99.3851 39.5707 98.658 38.3689 97.7492 36.9123V36.6938C97.422 36.1111 97.0585 35.4557 96.695 34.7273C96.3004 34.0332 95.9484 33.3157 95.6408 32.5788C93.2916 28.2245 92.6189 23.1581 93.7505 18.3401C95.2017 14.4625 97.7231 11.0779 101.021 8.58062C102.099 7.74611 103.228 6.97989 104.402 6.28642L105.71 5.55809C109.104 3.83005 112.811 2.80702 116.609 2.55045C120.407 2.29387 124.218 2.80905 127.812 4.06503C142.353 10.5107 145.006 31.7412 141.444 44.1591Z" fill="#FF8C64"/>
<path d="M129.012 32.1059C127.97 33.8738 126.372 35.2446 124.468 36.0024C123.45 36.403 121.123 37.3134 119.778 36.0024C119.458 35.702 119.211 35.333 119.053 34.9231C118.896 34.5132 118.833 34.073 118.869 33.6354C118.954 32.8555 119.315 32.1319 119.887 31.5961C120.786 30.679 121.946 30.0613 123.207 29.8268C124.469 29.5923 125.772 29.7523 126.939 30.2851C127.763 30.7216 128.472 31.3452 129.012 32.1059Z" fill="#EA522F"/>
<path d="M121.305 37.3863C120.725 37.4404 120.14 37.4404 119.56 37.3863C119.432 37.3808 119.306 37.348 119.191 37.2903C119.077 37.2325 118.975 37.1511 118.894 37.0513C118.813 36.9515 118.754 36.8356 118.721 36.7113C118.688 36.587 118.682 36.4571 118.702 36.3301C118.723 36.2031 118.77 36.082 118.841 35.9747C118.912 35.8674 119.005 35.7763 119.113 35.7075C119.222 35.6387 119.344 35.5937 119.471 35.5755C119.598 35.5574 119.728 35.5663 119.851 35.602C121.135 35.822 122.453 35.7473 123.704 35.3835C125.97 34.7186 127.911 33.2406 129.157 31.232C129.223 31.1307 129.308 31.0436 129.409 30.9757C129.509 30.9079 129.621 30.8608 129.74 30.837C129.858 30.8133 129.98 30.8134 130.099 30.8375C130.217 30.8616 130.329 30.909 130.429 30.9771C130.529 31.0398 130.615 31.1222 130.683 31.2192C130.75 31.3162 130.797 31.4259 130.821 31.5417C130.845 31.6574 130.845 31.7768 130.821 31.8925C130.798 32.0083 130.751 32.1181 130.684 32.2153C129.192 34.6003 126.876 36.3507 124.177 37.1314C123.238 37.3602 122.27 37.4462 121.305 37.3863Z" fill="#122275"/>
<path d="M101.53 43.8688C103.194 44.2461 104.929 44.1579 106.546 43.6139C107.382 43.3226 110.182 42.4122 110.182 40.7006C110.162 40.2596 110.04 39.8292 109.826 39.4436C109.611 39.058 109.31 38.7278 108.946 38.4792C108.545 38.1963 108.085 38.0094 107.601 37.933C105.456 37.5324 101.203 38.5156 100.73 41.1012C100.668 41.5927 100.708 42.0917 100.845 42.5676C100.983 43.0435 101.216 43.4862 101.53 43.8688Z" fill="#EA522F"/>
<path d="M102.948 45.2145C101.716 45.2117 100.491 45.0277 99.3125 44.6683C99.0811 44.5958 98.8879 44.4343 98.7755 44.2192C98.663 44.004 98.6405 43.753 98.7128 43.5212C98.7851 43.2894 98.9463 43.0958 99.1611 42.9832C99.3758 42.8705 99.6265 42.8479 99.8579 42.9203C102.11 43.6617 104.556 43.545 106.728 42.5926C107.903 42.0463 108.955 41.2656 109.818 40.2983C109.9 40.2113 109.998 40.1418 110.108 40.0944C110.217 40.0469 110.335 40.0225 110.454 40.0225C110.573 40.0225 110.692 40.0469 110.801 40.0944C110.91 40.1418 111.009 40.2113 111.09 40.2983C111.257 40.4685 111.35 40.6973 111.35 40.9356C111.35 41.1739 111.257 41.4027 111.09 41.5729C110.077 42.7526 108.813 43.6915 107.392 44.3214C105.971 44.9512 104.428 45.2563 102.875 45.2145H102.948Z" fill="#122275"/>
<path d="M129.739 24.4216C127.124 24.6664 124.548 25.2289 122.068 26.0968C119.924 26.8669 117.875 27.881 115.961 29.1193C115.831 28.7173 115.746 28.302 115.707 27.8812C115.663 26.9504 115.812 26.0206 116.143 25.15C118.215 24.458 119.96 23.9482 121.269 23.6205C122.779 23.1165 124.367 22.8824 125.958 22.9286C127.331 23.0713 128.638 23.5877 129.739 24.4216Z" fill="#122275"/>
<path d="M114.98 25.4779C114.914 26.0099 114.914 26.5481 114.98 27.0802C114.927 27.8479 115.118 28.6128 115.526 29.2651C115.587 28.6719 115.587 28.074 115.526 27.4807C115.436 26.8649 115.436 26.2393 115.526 25.6235C115.5 25.4791 115.5 25.331 115.526 25.1865L114.98 25.4779Z" fill="#122275"/>
<path d="M105.383 34.2905C103.14 34.724 100.956 35.4207 98.8761 36.3662L97.7492 36.9124V36.6939C97.4221 36.1113 97.0585 35.4558 96.695 34.7275L97.9311 33.9992C99.0943 33.3801 100.657 32.5061 102.657 31.5957C103.506 31.9561 104.255 32.5186 104.838 33.2344C105.059 33.5644 105.242 33.9188 105.383 34.2905Z" fill="#122275"/>
<path d="M103.602 31.0137C104.049 31.308 104.453 31.6635 104.801 32.0697C105.346 32.5977 105.736 33.2653 105.928 33.9998C105.928 33.9998 104.91 33.053 104.656 32.7252C104.277 32.2342 103.838 31.7936 103.347 31.4143L102.984 31.1593L103.602 31.0137Z" fill="#122275"/>
<path d="M115.961 44.3773C115.194 44.34 114.43 44.5031 113.744 44.8507C113.03 45.1499 112.414 45.6416 111.963 46.2709C112.73 46.288 113.491 46.1257 114.185 45.7971C114.879 45.4684 115.487 44.9823 115.961 44.3773Z" fill="#EA522F"/>
<path d="M113.889 53.5181C113.772 53.523 113.654 53.504 113.544 53.4623C113.434 53.4206 113.334 53.357 113.249 53.2753C113.164 53.1937 113.096 53.0957 113.05 52.9872C113.004 52.8787 112.98 52.762 112.98 52.6441C112.98 52.4051 113.069 52.1747 113.231 51.9991C113.393 51.8235 113.615 51.7157 113.853 51.6973C116.097 51.6731 118.304 51.1112 120.287 50.0586C122.028 49.1588 123.573 47.9209 124.831 46.417C124.907 46.3237 125.001 46.2464 125.108 46.1896C125.214 46.1327 125.33 46.0973 125.45 46.0855C125.57 46.0737 125.691 46.0856 125.806 46.1206C125.921 46.1556 126.028 46.213 126.122 46.2895C126.215 46.366 126.292 46.4601 126.349 46.5665C126.405 46.6729 126.441 46.7894 126.452 46.9095C126.464 47.0295 126.452 47.1507 126.417 47.2662C126.382 47.3816 126.325 47.489 126.249 47.5823C124.834 49.2951 123.091 50.7067 121.123 51.7337C118.873 52.8948 116.384 53.518 113.853 53.5545L113.889 53.5181Z" fill="#EA522F"/>
<path d="M114.798 53.2639C115.198 53.9558 117.852 53.2639 120.142 52.2806C122.432 51.2974 125.049 49.6951 124.759 48.639C124.759 48.639 124.25 48.3477 123.414 48.0928C119.997 47.146 119.451 47.0003 118.942 47.2916C118.572 47.5596 118.169 47.7799 117.743 47.9471H117.27C116.361 48.202 116.252 47.9471 115.925 48.2749C115.511 48.9533 115.239 49.7091 115.125 50.4962C115.019 50.8303 114.934 51.1709 114.871 51.5159C114.762 52.6448 114.689 53.0454 114.798 53.2639Z" fill="#EA522F"/>
<path d="M119.815 56.0674C119.601 56.0521 119.4 55.9619 119.247 55.8127C119.093 55.6635 118.997 55.4649 118.975 55.2517C118.954 55.0385 119.008 54.8245 119.128 54.6473C119.248 54.4701 119.427 54.3411 119.633 54.283L121.014 53.846C122.034 53.4077 122.959 52.7772 123.741 51.9888C123.911 51.822 124.139 51.7285 124.377 51.7285C124.615 51.7285 124.843 51.822 125.013 51.9888C125.101 52.0737 125.171 52.1755 125.219 52.2881C125.266 52.4008 125.291 52.5219 125.291 52.6443C125.291 52.7666 125.266 52.8878 125.219 53.0004C125.171 53.113 125.101 53.2148 125.013 53.2997C124.078 54.2736 122.952 55.0424 121.705 55.5575C121.161 55.7777 120.602 55.9602 120.033 56.1038L119.815 56.0674Z" fill="#EA522F"/>
<path d="M118.252 109.781C117.597 109.781 117.27 109.198 117.379 108.725L118.215 103.991C118.259 103.755 118.395 103.545 118.592 103.409C118.79 103.273 119.033 103.22 119.269 103.262C119.505 103.307 119.714 103.443 119.85 103.64C119.986 103.838 120.039 104.082 119.996 104.318L119.16 109.016C119.126 109.232 119.015 109.427 118.848 109.568C118.681 109.708 118.469 109.784 118.252 109.781Z" fill="#EA522F"/>
<path d="M118.688 104.755C118.533 104.757 118.381 104.717 118.247 104.64C118.113 104.564 118.002 104.452 117.924 104.318L116.107 101.442C116.035 101.341 115.984 101.227 115.957 101.107C115.93 100.986 115.928 100.861 115.951 100.74C115.974 100.618 116.022 100.503 116.091 100.4C116.16 100.298 116.249 100.21 116.353 100.144C116.457 100.077 116.573 100.032 116.695 100.011C116.816 99.9911 116.941 99.9958 117.061 100.025C117.181 100.055 117.293 100.108 117.392 100.183C117.49 100.257 117.572 100.351 117.634 100.458L119.451 103.372C119.574 103.575 119.612 103.819 119.557 104.05C119.503 104.281 119.361 104.482 119.16 104.61C119.022 104.707 118.857 104.758 118.688 104.755Z" fill="#EA522F"/>
<path d="M119.124 105.193C118.899 105.193 118.681 105.116 118.506 104.975C118.337 104.798 118.243 104.563 118.243 104.319C118.243 104.075 118.337 103.84 118.506 103.664L121.632 100.022C121.714 99.9349 121.812 99.8655 121.922 99.818C122.031 99.7706 122.149 99.7461 122.268 99.7461C122.388 99.7461 122.506 99.7706 122.615 99.818C122.724 99.8655 122.823 99.9349 122.905 100.022C122.993 100.107 123.062 100.209 123.11 100.321C123.158 100.434 123.183 100.555 123.183 100.677C123.183 100.8 123.158 100.921 123.11 101.034C123.062 101.146 122.993 101.248 122.905 101.333L119.742 104.975C119.662 105.055 119.564 105.116 119.458 105.154C119.351 105.191 119.237 105.205 119.124 105.193Z" fill="#EA522F"/>
<path d="M170.234 131.63C167.69 140.479 166.018 147.653 164.963 153.48C152.147 142.021 136.088 134.843 119.015 132.941C116.091 132.674 113.154 132.564 110.218 132.613C107.346 132.613 104.656 132.905 102.148 133.196C98.3548 132.909 94.8026 131.224 92.1774 128.467C89.5523 125.709 88.0406 122.075 87.9344 118.266C88.0096 115.104 89.0498 112.041 90.9152 109.489C92.8073 106.704 95.4214 104.488 98.4764 103.08L99.0943 103.371C102.977 105.302 107.078 106.757 111.308 107.705C113.594 108.214 115.915 108.542 118.252 108.688C123.544 109.021 128.857 108.79 134.101 107.996C136.098 107.881 138.081 107.589 140.026 107.122C142.102 106.454 144.063 105.472 145.842 104.209L170.234 131.63Z" fill="#FFC5D2"/>
<path d="M99.0216 105.192C98.7698 105.244 98.5101 105.244 98.2583 105.192C97.8176 104.986 97.4754 104.614 97.3054 104.158C97.1354 103.702 97.1513 103.197 97.3495 102.752L110.073 74.5658C110.271 74.127 110.635 73.7848 111.084 73.6142C111.534 73.4435 112.033 73.4583 112.472 73.6554C112.702 73.7404 112.912 73.8702 113.092 74.0374C113.271 74.2045 113.416 74.4057 113.518 74.6292C113.619 74.8527 113.675 75.0941 113.683 75.3395C113.691 75.5849 113.649 75.8294 113.562 76.0588L100.839 104.245C100.67 104.571 100.405 104.837 100.08 105.006C99.7545 105.176 99.385 105.24 99.0216 105.192Z" fill="#FFC5D2"/>
<path d="M143.916 109.672C143.64 109.726 143.356 109.726 143.08 109.672C142.655 109.44 142.338 109.051 142.195 108.589C142.053 108.126 142.096 107.626 142.316 107.195L160.819 71.8353C160.91 71.5948 161.051 71.3764 161.233 71.1944C161.415 71.0125 161.633 70.8712 161.873 70.7798C162.113 70.6884 162.37 70.6491 162.626 70.6643C162.882 70.6796 163.133 70.7491 163.36 70.8683C163.588 70.9875 163.788 71.1537 163.947 71.3558C164.105 71.558 164.22 71.7916 164.282 72.0413C164.344 72.2909 164.353 72.551 164.307 72.8042C164.262 73.0574 164.163 73.2981 164.018 73.5104L145.515 108.834C145.35 109.106 145.114 109.328 144.832 109.476C144.55 109.624 144.233 109.691 143.916 109.672Z" fill="#FFC5D2"/>
<path d="M112.29 197.762L115.925 203.953C136.312 199.511 155.684 191.271 173.033 179.663C177.616 176.52 182.032 173.141 186.265 169.54C187.653 168.958 188.906 168.095 189.945 167.005C190.984 165.914 191.787 164.621 192.302 163.204C192.818 161.788 193.035 160.281 192.941 158.777C192.847 157.272 192.443 155.804 191.755 154.463C190.757 153.351 189.542 152.455 188.185 151.832C186.828 151.208 185.357 150.871 183.864 150.84C182.372 150.809 180.889 151.086 179.507 151.653C178.125 152.22 176.875 153.065 175.833 154.136C171.807 155.832 167.897 157.79 164.127 159.999C144.897 171.36 140.208 183.232 121.269 193.501C118.36 195.094 115.362 196.516 112.29 197.762Z" fill="#FF8C64"/>
<path d="M116.398 196.889C116.201 196.875 116.014 196.797 115.865 196.667C115.717 196.538 115.614 196.363 115.573 196.17C115.532 195.977 115.555 195.775 115.638 195.596C115.721 195.417 115.86 195.27 116.034 195.177C117.67 194.412 119.306 193.575 120.905 192.701C128.953 188.243 136.302 182.624 142.716 176.022C149.068 169.578 156.186 163.94 163.909 159.234L164.418 158.943C164.623 158.85 164.855 158.837 165.07 158.906C165.284 158.974 165.465 159.12 165.578 159.315C165.691 159.51 165.728 159.74 165.682 159.96C165.635 160.181 165.509 160.376 165.327 160.509L164.818 160.8C157.226 165.437 150.23 170.989 143.989 177.333C137.518 184.043 130.095 189.762 121.96 194.303C120.324 195.177 118.652 196.051 116.979 196.816L116.398 196.889Z" fill="#EA522F"/>
<path d="M120.069 203.844C119.828 203.873 119.585 203.805 119.394 203.655C119.204 203.505 119.08 203.285 119.051 203.043C119.022 202.802 119.09 202.559 119.24 202.368C119.39 202.176 119.61 202.053 119.851 202.024C136.658 197.929 152.716 191.206 167.435 182.104C167.537 182.038 167.652 181.992 167.771 181.971C167.891 181.95 168.014 181.953 168.133 181.98C168.251 182.007 168.363 182.058 168.462 182.129C168.561 182.201 168.644 182.291 168.707 182.395C168.821 182.601 168.854 182.842 168.8 183.071C168.747 183.3 168.61 183.5 168.417 183.634C153.524 192.836 137.284 199.643 120.287 203.808L120.069 203.844Z" fill="#EA522F"/>
<path d="M115.453 196.67C107.553 191.028 98.7155 186.835 89.3522 184.289C89.1015 184.399 88.8757 184.56 88.6883 184.76C88.5009 184.96 88.3558 185.196 88.2617 185.454C88.0718 185.921 88.0718 186.444 88.2617 186.911C86.8268 185.783 85.5971 184.415 84.6265 182.869C83.4633 181.011 82.0092 180.137 81.3912 180.465C80.7732 180.793 80.7369 182.504 81.6821 184.471C81.4415 184.639 81.2323 184.849 81.064 185.09C80.7067 185.702 80.4947 186.388 80.4442 187.095C80.3938 187.802 80.5064 188.512 80.7733 189.168C80.7171 189.859 80.7171 190.553 80.7733 191.244C80.8619 194.575 82.0364 197.785 84.1175 200.385L78.8102 198.163C77.5379 198.163 77.1017 198.163 76.9927 198.418C76.4837 199.656 84.0448 205.701 92.9873 207.085C97.8712 207.456 102.783 207.026 107.528 205.811C111.464 205.126 115.359 204.227 119.197 203.116C117.997 200.967 116.725 198.819 115.453 196.67Z" fill="#FF8C64"/>
<path d="M96.0772 208.214C94.983 208.213 93.8901 208.14 92.8056 207.995C86.4968 207.118 80.6751 204.112 76.302 199.474C76.1694 199.272 76.0843 199.042 76.0528 198.803C76.0213 198.563 76.0444 198.319 76.1202 198.09C76.5565 197.034 78.1195 197.18 78.8829 197.252H79.1374L81.7183 198.345C80.4898 196.112 79.8282 193.611 79.7917 191.062C79.7376 190.383 79.7376 189.701 79.7917 189.022C79.4925 188.258 79.3793 187.433 79.4615 186.616C79.5437 185.799 79.8189 185.014 80.2643 184.325L80.5187 183.997C79.7917 182.14 79.719 180.1 80.8823 179.445C82.0455 178.789 84.1176 180.283 85.3172 182.176C85.9027 183.074 86.5854 183.905 87.3529 184.652C87.6634 184.002 88.2092 183.494 88.8796 183.232C89.0574 183.179 89.247 183.179 89.4248 183.232C96.3838 185.126 103.068 187.917 109.309 191.535C111.527 192.81 113.744 194.23 115.852 195.723C115.952 195.791 116.037 195.88 116.1 195.983C116.164 196.085 116.206 196.2 116.223 196.32C116.24 196.44 116.232 196.562 116.199 196.679C116.167 196.795 116.111 196.904 116.034 196.997C115.972 197.099 115.89 197.186 115.792 197.253C115.694 197.32 115.582 197.366 115.466 197.386C115.349 197.407 115.229 197.403 115.114 197.373C114.998 197.344 114.891 197.29 114.798 197.216C112.726 195.759 110.581 194.376 108.4 193.101C102.41 189.617 95.9954 186.925 89.3158 185.089C89.1493 185.199 89.0319 185.368 88.9886 185.563C88.9886 185.781 88.9886 186.109 88.9886 186.364C89.0784 186.542 89.1021 186.745 89.0555 186.939C89.0089 187.132 88.895 187.303 88.7342 187.42C88.5767 187.554 88.3771 187.627 88.1708 187.627C87.9645 187.627 87.7647 187.554 87.6072 187.42C86.0676 186.232 84.7402 184.792 83.6813 183.159C83.2238 182.323 82.5444 181.63 81.7183 181.156C81.6675 182.102 81.8683 183.045 82.2999 183.888C82.3986 184.079 82.4236 184.3 82.3699 184.508C82.3163 184.716 82.1878 184.897 82.0092 185.017L81.6092 185.417C81.3536 185.925 81.2204 186.487 81.2204 187.056C81.2204 187.625 81.3536 188.186 81.6092 188.695C81.6448 188.826 81.6448 188.964 81.6092 189.095C81.5718 189.738 81.5718 190.382 81.6092 191.025C81.7239 194.16 82.8459 197.175 84.8082 199.619C84.9292 199.783 84.9946 199.981 84.9946 200.184C84.9946 200.387 84.9292 200.585 84.8082 200.748C84.6852 200.912 84.5086 201.028 84.3092 201.074C84.1098 201.121 83.9004 201.096 83.7177 201.003L78.5557 198.855H78.2286C82.3413 202.703 87.5042 205.238 93.06 206.138C97.8074 206.519 102.585 206.113 107.201 204.936H107.492C110.959 204.357 114.394 203.591 117.779 202.642C117.896 202.609 118.018 202.6 118.139 202.615C118.259 202.631 118.376 202.67 118.481 202.731C118.586 202.792 118.678 202.874 118.751 202.971C118.824 203.068 118.876 203.179 118.906 203.297C118.938 203.412 118.947 203.533 118.931 203.651C118.916 203.769 118.876 203.883 118.815 203.985C118.753 204.088 118.672 204.177 118.575 204.246C118.478 204.316 118.368 204.365 118.252 204.39C114.835 205.337 111.309 206.138 107.782 206.757H107.492C103.734 207.562 99.916 208.049 96.0772 208.214Z" fill="#EA522F"/>
<path d="M99.0214 194.521H98.6579C96.9478 193.837 95.3049 192.996 93.7504 192.008C91.692 190.758 89.799 189.253 88.1159 187.529C87.9847 187.354 87.9209 187.137 87.9364 186.918C87.9519 186.7 88.0457 186.494 88.2003 186.339C88.355 186.184 88.5603 186.09 88.7785 186.075C88.9968 186.059 89.2132 186.123 89.3883 186.254C90.9248 187.813 92.632 189.194 94.4774 190.369C95.9506 191.313 97.5083 192.118 99.1304 192.773C99.2424 192.813 99.345 192.876 99.432 192.957C99.5189 193.038 99.5883 193.136 99.636 193.245C99.6836 193.355 99.7085 193.472 99.7091 193.591C99.7097 193.711 99.686 193.829 99.6394 193.938C99.5915 194.078 99.5102 194.205 99.4025 194.306C99.2948 194.408 99.1639 194.481 99.0214 194.521Z" fill="#EA522F"/>
<path d="M88.8069 197.653C88.6531 197.651 88.5024 197.61 88.3689 197.533C88.2354 197.457 88.1235 197.348 88.0435 197.216L80.8459 185.308C80.7838 185.205 80.7426 185.091 80.7245 184.973C80.7065 184.854 80.7119 184.733 80.7406 184.616C80.7693 184.499 80.8206 184.389 80.8917 184.293C80.9628 184.196 81.0522 184.114 81.1549 184.052C81.2575 183.99 81.3714 183.948 81.49 183.93C81.6086 183.912 81.7295 183.918 81.846 183.946C81.9624 183.975 82.0721 184.027 82.1687 184.098C82.2653 184.169 82.3469 184.259 82.409 184.361L89.6793 196.415C89.7985 196.623 89.8311 196.87 89.7698 197.102C89.7086 197.333 89.5585 197.532 89.3521 197.653C89.1773 197.724 88.9818 197.724 88.8069 197.653Z" fill="#EA522F"/>
<path d="M92.7329 198.599H92.5148L88.6253 197.652C88.5081 197.626 88.3971 197.578 88.2988 197.509C88.2005 197.44 88.1169 197.352 88.0527 197.25C87.9884 197.149 87.9449 197.035 87.9246 196.917C87.9044 196.798 87.9078 196.677 87.9346 196.56C87.9599 196.443 88.0087 196.333 88.0782 196.236C88.1476 196.139 88.2361 196.057 88.3383 195.996C88.4405 195.934 88.5541 195.894 88.6722 195.879C88.7904 195.863 88.9105 195.872 89.0251 195.904L92.951 196.815C93.1762 196.883 93.3681 197.032 93.4891 197.234C93.6101 197.436 93.6516 197.676 93.6055 197.907C93.5571 198.103 93.4452 198.277 93.2873 198.402C93.1294 198.528 92.9343 198.597 92.7329 198.599Z" fill="#EA522F"/>
<path d="M87.5345 200.603C87.3807 200.601 87.23 200.56 87.0965 200.484C86.963 200.407 86.8511 200.298 86.7711 200.166L80.0825 189.679C79.9581 189.469 79.9188 189.22 79.973 188.983C80.0271 188.746 80.1705 188.538 80.3732 188.404C80.5764 188.281 80.8194 188.243 81.0504 188.298C81.2813 188.352 81.4819 188.495 81.6092 188.695L88.3342 199.183C88.4586 199.392 88.4979 199.641 88.4437 199.879C88.3896 200.116 88.2462 200.324 88.0435 200.458C87.8941 200.56 87.7154 200.611 87.5345 200.603Z" fill="#EA522F"/>
<path d="M91.7513 201.767H91.4968L87.28 200.602C87.0472 200.534 86.8495 200.378 86.7277 200.168C86.6059 199.958 86.5694 199.709 86.6257 199.473C86.6932 199.241 86.8498 199.046 87.0612 198.93C87.2725 198.813 87.5212 198.786 87.7526 198.854L92.0058 200.019C92.119 200.049 92.2251 200.1 92.3179 200.172C92.4106 200.243 92.4881 200.332 92.5457 200.434C92.6034 200.536 92.64 200.649 92.6534 200.765C92.6668 200.881 92.6567 200.999 92.6237 201.112C92.5743 201.304 92.4609 201.474 92.3023 201.593C92.1438 201.712 91.9494 201.773 91.7513 201.767Z" fill="#EA522F"/>
<path d="M93.0236 204.864C91.2547 204.626 89.5213 204.174 87.8616 203.516C86.3717 202.927 84.9661 202.144 83.6812 201.186C83.5829 201.117 83.4993 201.029 83.435 200.927C83.3708 200.826 83.3273 200.712 83.307 200.594C83.2867 200.475 83.2901 200.354 83.3169 200.237C83.3437 200.12 83.3934 200.009 83.4631 199.911C83.5314 199.811 83.6197 199.727 83.7224 199.663C83.825 199.599 83.9397 199.557 84.0593 199.54C84.1789 199.523 84.3008 199.531 84.4171 199.563C84.5335 199.596 84.6419 199.652 84.7354 199.729C85.9252 200.573 87.2054 201.282 88.5523 201.841C90.0269 202.42 91.5642 202.823 93.1326 203.043C93.2543 203.051 93.3728 203.085 93.4806 203.142C93.5884 203.2 93.6832 203.279 93.7585 203.375C93.8339 203.471 93.8882 203.582 93.9182 203.7C93.9481 203.819 93.953 203.942 93.9324 204.063C93.9056 204.285 93.7981 204.489 93.6305 204.637C93.4629 204.785 93.2468 204.865 93.0236 204.864Z" fill="#EA522F"/>
<path d="M87.7163 140.99C86.6883 139.863 85.9869 138.477 85.6881 136.981C85.3893 135.484 85.5044 133.934 86.0208 132.499C86.5372 131.063 87.4354 129.796 88.6183 128.834C89.8012 127.872 91.2239 127.253 92.7327 127.042L103.202 124.238C104.482 123.955 105.812 123.987 107.078 124.329C108.344 124.671 109.508 125.315 110.472 126.205C110.984 126.764 111.38 127.42 111.636 128.135C114.769 130.952 117.574 134.116 119.996 137.566C120.469 138.368 121.051 139.387 120.651 140.261C120.251 141.135 118.215 141.536 117.852 141.536C117.971 141.915 117.971 142.322 117.852 142.701C117.088 144.558 113.526 145.25 109.018 144.522L95.9316 143.029C96.3315 143.32 102.475 148.2 101.312 150.749C101.165 151.045 100.95 151.303 100.685 151.499C100.419 151.695 100.111 151.825 99.7849 151.878C98.4035 151.878 97.3494 150.057 95.7499 147.981C94.2515 146.081 92.5167 144.38 90.588 142.92C89.6384 142.501 88.7755 141.908 88.0434 141.172L87.7163 140.99Z" fill="#FF8C64"/>
<path d="M99.6396 152.533C98.1856 152.533 97.1314 151.149 96.0045 149.547L95.0593 148.272C93.6218 146.432 91.9472 144.791 90.0791 143.392C89.2668 143.029 88.518 142.537 87.8616 141.936C87.7747 141.854 87.7054 141.755 87.6581 141.646C87.6107 141.536 87.5863 141.418 87.5863 141.298C87.5863 141.179 87.6107 141.061 87.6581 140.951C87.7054 140.842 87.7747 140.743 87.8616 140.661C88.0315 140.494 88.26 140.401 88.4979 140.401C88.7357 140.401 88.9641 140.494 89.134 140.661C89.7087 141.18 90.3581 141.61 91.0606 141.936C93.1005 143.45 94.9336 145.225 96.5133 147.216C96.8769 147.653 97.204 148.126 97.4948 148.527C98.3672 149.729 99.2033 150.858 99.785 150.785C99.9491 150.755 100.104 150.687 100.237 150.586C100.369 150.484 100.476 150.353 100.548 150.202C101.094 149 98.3309 145.832 95.4591 143.574C95.3028 143.454 95.1899 143.286 95.1374 143.095C95.0849 142.905 95.0958 142.702 95.1683 142.518C95.2527 142.34 95.3869 142.19 95.5546 142.087C95.7224 141.983 95.9166 141.931 96.1135 141.936L109.2 143.465C113.744 144.157 116.47 143.465 117.125 142.191C117.164 141.949 117.164 141.703 117.125 141.462C117.034 141.241 117.034 140.992 117.125 140.77C117.207 140.675 117.307 140.597 117.419 140.541C117.531 140.484 117.654 140.451 117.779 140.443C118.615 140.443 119.56 140.151 119.778 139.678C119.996 139.204 119.415 138.221 119.197 137.857C118.203 136.334 117.084 134.897 115.852 133.56C115.686 133.39 115.593 133.161 115.593 132.923C115.593 132.684 115.686 132.456 115.852 132.285C115.937 132.197 116.039 132.127 116.151 132.079C116.264 132.032 116.385 132.007 116.507 132.007C116.629 132.007 116.75 132.032 116.862 132.079C116.975 132.127 117.076 132.197 117.161 132.285C118.489 133.706 119.705 135.227 120.796 136.837C121.196 137.344 121.467 137.939 121.587 138.573C121.708 139.207 121.673 139.861 121.487 140.479C121.194 140.955 120.796 141.357 120.323 141.653C119.85 141.95 119.316 142.134 118.76 142.191C118.721 142.438 118.661 142.682 118.579 142.919C117.597 145.177 113.853 146.087 108.728 145.286L98.6218 144.121C100.657 146.087 102.948 148.891 102.002 151.003C101.791 151.442 101.474 151.82 101.081 152.106C100.688 152.392 100.23 152.576 99.7487 152.642L99.6396 152.533Z" fill="#EA522F"/>
<path d="M117.67 142.264L103.456 140.261C103.221 140.225 103.01 140.098 102.867 139.908C102.724 139.717 102.662 139.478 102.693 139.242C102.706 139.123 102.743 139.008 102.803 138.905C102.862 138.801 102.941 138.71 103.037 138.639C103.132 138.567 103.241 138.516 103.357 138.488C103.473 138.46 103.593 138.456 103.711 138.477L117.815 140.443C118.056 140.443 118.287 140.539 118.458 140.71C118.628 140.881 118.724 141.112 118.724 141.354C118.724 141.595 118.628 141.827 118.458 141.998C118.287 142.168 118.056 142.264 117.815 142.264H117.67Z" fill="#EA522F"/>
<path d="M120.578 139.351H120.287L105.383 134.253C105.269 134.221 105.163 134.165 105.073 134.089C104.982 134.013 104.909 133.918 104.857 133.812C104.805 133.705 104.777 133.588 104.774 133.47C104.77 133.351 104.792 133.234 104.838 133.124C104.913 132.899 105.073 132.712 105.283 132.603C105.494 132.495 105.738 132.472 105.965 132.541L120.833 137.603C120.948 137.64 121.054 137.7 121.145 137.779C121.236 137.859 121.309 137.956 121.361 138.066C121.412 138.176 121.44 138.295 121.443 138.416C121.446 138.536 121.424 138.657 121.378 138.769C121.319 138.935 121.211 139.08 121.068 139.184C120.926 139.288 120.755 139.347 120.578 139.351Z" fill="#EA522F"/>
<path d="M115.962 133.415C115.843 133.448 115.717 133.448 115.598 133.415L104.438 128.135C104.22 128.025 104.052 127.835 103.971 127.604C103.89 127.373 103.901 127.119 104.002 126.897C104.111 126.687 104.297 126.528 104.521 126.453C104.745 126.378 104.989 126.394 105.201 126.496L116.361 131.776C116.472 131.823 116.571 131.892 116.653 131.979C116.736 132.066 116.799 132.169 116.84 132.282C116.881 132.395 116.899 132.515 116.891 132.635C116.884 132.754 116.852 132.871 116.798 132.978C116.712 133.121 116.588 133.237 116.441 133.314C116.293 133.391 116.127 133.426 115.962 133.415Z" fill="#EA522F"/>
<path d="M127.085 1.88032C132.17 3.45548 136.552 6.75064 139.481 11.2028C139.699 11.6762 139.881 12.0768 140.026 12.4774C140.707 14.4402 141.123 16.4855 141.262 18.5589C141.517 23.2929 144.897 25.5507 145.806 30.9403C146.824 37.5316 143.043 43.9772 141.807 43.7588C140.571 43.5403 141.807 39.6073 140.281 34.5091C138.792 30.1929 136.091 26.3993 132.501 23.5843L115.707 15.245C113.308 18.552 110.47 21.5168 107.273 24.0577C105.383 25.5507 104.947 25.6236 102.584 27.4808C96.368 32.3241 95.5683 34.764 94.1869 34.3998C91.6423 33.7808 90.5517 24.8224 92.9872 17.1751C94.5073 12.1838 97.5602 7.80011 101.712 4.64794C112.29 -3.25434 125.049 1.152 127.085 1.88032Z" fill="#3F469A"/>
<path d="M140.935 27.1157C141.512 27.7316 141.936 28.4756 142.171 29.2869C142.407 30.0983 142.447 30.9539 142.289 31.7838C142.131 32.6137 141.779 33.3944 141.262 34.0619C140.745 34.7295 140.078 35.2649 139.314 35.6245C138.551 35.9841 137.714 36.1577 136.871 36.1309C136.028 36.1042 135.203 35.878 134.464 35.4707C133.725 35.0635 133.093 34.4868 132.619 33.7878C132.145 33.0889 131.843 32.2875 131.738 31.4492C130.869 30.0891 130.561 28.4438 130.88 26.8608C131.199 25.2777 132.119 23.8806 133.447 22.9643C135.918 21.7626 139.299 23.6198 140.935 27.1157Z" fill="#FF8C64"/>
<path d="M137.554 36.839C137.277 36.8748 136.996 36.8748 136.718 36.839C136.483 36.8029 136.271 36.676 136.129 36.4853C135.986 36.2947 135.924 36.0556 135.955 35.8194C135.973 35.6991 136.014 35.5836 136.077 35.4797C136.14 35.3758 136.223 35.2856 136.321 35.2143C136.419 35.143 136.531 35.0922 136.649 35.0648C136.767 35.0373 136.89 35.0339 137.009 35.0546C137.635 35.168 138.28 35.092 138.863 34.8361C139.489 34.4615 140.004 33.9267 140.355 33.2868C140.707 32.6468 140.882 31.9246 140.862 31.1945C140.862 30.6847 141.226 30.2113 141.807 30.3205C141.925 30.3204 142.042 30.3442 142.15 30.3904C142.258 30.4365 142.356 30.5042 142.438 30.5893C142.519 30.6743 142.583 30.775 142.624 30.8853C142.666 30.9956 142.685 31.1131 142.68 31.2309C142.733 32.3268 142.474 33.4152 141.933 34.3694C141.393 35.3236 140.593 36.1043 139.626 36.6205C138.958 36.8367 138.253 36.9112 137.554 36.839Z" fill="#EA522F"/>
<path d="M141.735 30.976C141.51 30.9618 141.298 30.8708 141.132 30.7183C140.967 30.5659 140.859 30.3612 140.826 30.1384C140.778 29.3869 140.606 28.6486 140.317 27.9535C140.27 27.8439 140.247 27.7259 140.247 27.6068C140.248 27.4877 140.273 27.3699 140.32 27.2608C140.368 27.1517 140.438 27.0535 140.524 26.9722C140.611 26.8909 140.714 26.8283 140.826 26.7882C141.048 26.7042 141.294 26.7106 141.511 26.8058C141.729 26.9011 141.9 27.0777 141.989 27.298C142.343 28.1449 142.564 29.0417 142.644 29.9564C142.659 30.0761 142.65 30.1976 142.618 30.3139C142.586 30.4302 142.531 30.5389 142.457 30.6338C142.382 30.7287 142.29 30.8078 142.184 30.8665C142.079 30.9253 141.963 30.9625 141.844 30.976H141.735Z" fill="#EA522F"/>
<path d="M140.608 27.3354C140.447 27.3434 140.288 27.3068 140.147 27.2297C140.005 27.1526 139.888 27.0379 139.808 26.8984C138.318 24.2764 135.664 22.8926 133.737 23.803C133.325 23.9958 132.964 24.2827 132.683 24.6406C132.513 24.8074 132.285 24.9008 132.047 24.9008C131.809 24.9008 131.581 24.8074 131.411 24.6406C131.324 24.5588 131.255 24.4601 131.207 24.3505C131.16 24.2409 131.135 24.1227 131.135 24.0033C131.135 23.8839 131.16 23.7657 131.207 23.6561C131.255 23.5465 131.324 23.4478 131.411 23.366C131.867 22.789 132.452 22.3275 133.119 22.0186C134.743 21.4902 136.505 21.5896 138.059 22.2972C139.613 23.0049 140.847 24.2695 141.517 25.8423C141.636 26.0502 141.668 26.2969 141.607 26.5288C141.546 26.7606 141.396 26.9588 141.19 27.0804C141.029 27.2276 140.825 27.3173 140.608 27.3354Z" fill="#EA522F"/>
<path d="M136.755 33.6356C136.52 33.6457 136.29 33.5641 136.113 33.4079C135.937 33.2517 135.828 33.033 135.809 32.798L135.446 25.9518C135.436 25.7066 135.521 25.467 135.684 25.2836C135.847 25.1002 136.074 24.9872 136.318 24.9685C136.438 24.9637 136.557 24.9824 136.669 25.0237C136.781 25.065 136.884 25.128 136.972 25.2092C137.06 25.2904 137.131 25.3881 137.181 25.4968C137.231 25.6054 137.259 25.7229 137.264 25.8425L137.627 32.6887C137.643 32.8075 137.633 32.9283 137.598 33.0429C137.563 33.1575 137.504 33.2632 137.424 33.353C137.345 33.4427 137.248 33.5144 137.138 33.5631C137.029 33.6119 136.911 33.6366 136.791 33.6356H136.755Z" fill="#EA522F"/>
<path d="M136.319 29.7381C136.135 29.7263 135.959 29.6633 135.81 29.5561L133.847 28.2815C133.746 28.2145 133.66 28.1285 133.593 28.0282C133.526 27.9279 133.479 27.8154 133.456 27.697C133.432 27.5787 133.432 27.4568 133.456 27.3384C133.479 27.22 133.525 27.1074 133.592 27.0069C133.659 26.9065 133.745 26.8202 133.845 26.7531C133.945 26.6859 134.057 26.6392 134.176 26.6155C134.294 26.5918 134.415 26.5917 134.534 26.6151C134.652 26.6386 134.764 26.6851 134.864 26.752L136.827 28.063C136.927 28.1257 137.014 28.2081 137.081 28.3051C137.148 28.4021 137.195 28.5118 137.219 28.6276C137.243 28.7433 137.243 28.8626 137.219 28.9784C137.196 29.0942 137.149 29.204 137.082 29.3011C137.002 29.4327 136.89 29.5418 136.756 29.6183C136.623 29.6947 136.472 29.7359 136.319 29.7381Z" fill="#EA522F"/>
<path d="M177.686 156.174H173.797C173.556 156.174 173.325 156.078 173.154 155.908C172.984 155.737 172.888 155.505 172.888 155.264C172.888 155.022 172.984 154.791 173.154 154.62C173.325 154.449 173.556 154.354 173.797 154.354H177.723C177.964 154.354 178.195 154.449 178.365 154.62C178.536 154.791 178.631 155.022 178.631 155.264C178.631 155.505 178.536 155.737 178.365 155.908C178.195 156.078 177.964 156.174 177.723 156.174H177.686Z" fill="#EA522F"/>
<path d="M171.434 128.244C171.205 128.245 170.984 128.159 170.816 128.004C170.647 127.848 170.543 127.635 170.525 127.407L169.325 113.204C169.305 112.968 169.377 112.734 169.526 112.55C169.676 112.367 169.89 112.249 170.125 112.221C170.243 112.206 170.362 112.215 170.476 112.247C170.59 112.28 170.696 112.335 170.788 112.41C170.88 112.485 170.955 112.578 171.01 112.683C171.065 112.789 171.098 112.904 171.107 113.022L172.343 127.261C172.353 127.38 172.339 127.501 172.302 127.615C172.265 127.729 172.207 127.835 172.129 127.927C172.051 128.018 171.956 128.093 171.849 128.148C171.743 128.202 171.626 128.235 171.507 128.244H171.434Z" fill="#EA522F"/>
<path d="M164.455 181.921C154.217 193.094 145.945 205.924 139.99 219.867C138.936 222.78 138.1 226.385 135.41 232.613C132.065 240.296 129.739 243.173 130.902 244.666C132.065 246.159 134.864 245.285 145.443 241.68C154.203 238.694 158.602 237.201 161.619 235.89C173.373 230.755 184.754 224.805 195.68 218.083C220.763 201.331 243.883 161.893 235.267 151.915C226.652 141.937 185.866 159.016 164.455 181.921Z" fill="#E3E3FD"/>
<path d="M130.72 245.577C130.517 245.578 130.32 245.511 130.16 245.387C130 245.263 129.885 245.089 129.835 244.892C129.785 244.695 129.802 244.487 129.883 244.301C129.964 244.115 130.106 243.962 130.284 243.866C171.454 221.223 207.06 189.66 234.504 151.478C234.644 151.28 234.856 151.146 235.095 151.105C235.333 151.064 235.579 151.12 235.776 151.26C235.974 151.4 236.108 151.613 236.149 151.852C236.19 152.091 236.134 152.336 235.994 152.534C208.399 190.952 172.579 222.704 131.156 245.468C131.025 245.547 130.873 245.585 130.72 245.577Z" fill="#BBBBF9"/>
<path d="M91.2786 209.889C101.407 213.917 110.785 219.63 119.015 226.786C120.614 228.352 122.287 230.428 125.994 233.596C130.538 237.493 132.974 238.658 132.647 239.969C132.319 241.28 130.284 241.644 122.323 242.627C115.67 243.465 112.362 243.865 110.036 243.975C100.786 244.4 91.5173 244.168 82.2997 243.283C60.816 240.333 33.4796 222.052 35.9515 212.875C38.4234 203.699 70.122 201.878 91.2786 209.889Z" fill="#E3E3FD"/>
<path d="M132.647 240.878C117.472 240.103 102.411 237.834 87.6799 234.105C69.5217 229.462 52.0021 222.601 35.5154 213.675C35.4114 213.622 35.3192 213.548 35.2444 213.458C35.1695 213.368 35.1134 213.264 35.0795 213.152C35.0456 213.04 35.0346 212.922 35.047 212.805C35.0594 212.689 35.095 212.576 35.1518 212.474C35.202 212.366 35.2736 212.27 35.362 212.192C35.4503 212.113 35.5537 212.053 35.6659 212.016C35.7781 211.978 35.8967 211.964 36.0146 211.974C36.1324 211.984 36.2471 212.017 36.3515 212.073C66.0658 228.149 98.991 237.368 132.719 239.057C132.954 239.076 133.172 239.185 133.328 239.362C133.484 239.538 133.566 239.769 133.556 240.004C133.556 240.122 133.532 240.239 133.486 240.347C133.44 240.456 133.372 240.554 133.287 240.635C133.202 240.717 133.102 240.781 132.992 240.822C132.882 240.864 132.764 240.883 132.647 240.878Z" fill="#BBBBF9"/>
<path d="M148.242 213.42C143.004 218.61 136.934 222.882 130.284 226.057C128.866 226.64 127.122 227.113 124.141 228.533C120.506 230.318 119.124 231.519 118.397 230.973C117.67 230.427 117.997 229.043 119.56 223.69C120.833 219.356 121.487 217.171 122.069 215.715C124.294 209.849 126.943 204.153 129.993 198.672C137.663 186.108 156.421 174.091 161.437 178.097C166.454 182.103 158.966 202.459 148.242 213.42Z" fill="#5B98E8"/>
<path d="M118.397 231.884C118.266 231.922 118.128 231.922 117.997 231.884C117.887 231.837 117.787 231.768 117.705 231.681C117.622 231.594 117.559 231.491 117.518 231.378C117.477 231.266 117.46 231.146 117.467 231.026C117.474 230.906 117.506 230.789 117.561 230.682C122.171 221.441 127.687 212.683 134.028 204.536C141.809 194.453 150.808 185.377 160.819 177.515C160.911 177.428 161.019 177.362 161.138 177.32C161.256 177.277 161.382 177.26 161.508 177.269C161.633 177.278 161.755 177.313 161.867 177.372C161.978 177.431 162.076 177.512 162.154 177.611C162.233 177.709 162.29 177.823 162.322 177.945C162.354 178.067 162.36 178.194 162.341 178.319C162.321 178.443 162.276 178.562 162.208 178.668C162.14 178.775 162.051 178.865 161.946 178.935C143.969 193.01 129.352 210.925 119.16 231.374C119.093 231.522 118.986 231.648 118.851 231.738C118.716 231.828 118.559 231.879 118.397 231.884Z" fill="#BBBBF9"/>
<path d="M141.117 248.089C134.275 245.323 127.956 241.407 122.432 236.508C120.959 234.877 119.393 233.333 117.743 231.883C114.689 229.189 113.053 228.242 113.271 227.513C113.49 226.785 114.871 226.385 120.287 225.766C124.758 225.256 127.012 225.001 128.612 224.928C134.871 224.678 141.14 224.885 147.369 225.547C161.91 227.659 180.304 240.113 178.595 246.377C176.887 252.641 155.403 253.66 141.117 248.089Z" fill="#5B98E8"/>
<path d="M178.595 247.215C178.452 247.248 178.303 247.248 178.159 247.215C158.165 236.208 135.974 229.801 113.199 228.461C112.964 228.442 112.746 228.333 112.59 228.156C112.434 227.98 112.353 227.749 112.363 227.514C112.362 227.393 112.387 227.273 112.435 227.162C112.484 227.051 112.555 226.951 112.643 226.868C112.732 226.786 112.837 226.724 112.952 226.684C113.066 226.645 113.187 226.63 113.308 226.64C136.34 227.962 158.784 234.432 178.995 245.576C179.174 245.673 179.315 245.826 179.396 246.012C179.477 246.198 179.494 246.406 179.444 246.602C179.394 246.799 179.28 246.974 179.119 247.098C178.959 247.222 178.762 247.289 178.559 247.288L178.595 247.215Z" fill="#BBBBF9"/>
<path d="M126.394 209.888C124.942 215.846 122.483 221.512 119.124 226.639C117.969 228.063 116.889 229.546 115.889 231.082C114.071 233.923 113.635 235.343 112.872 235.27C112.108 235.197 111.781 234.105 110.581 229.735C109.6 226.093 109.127 224.309 108.873 222.998C107.92 217.899 107.325 212.739 107.092 207.557C107.092 195.358 115.016 178.716 120.287 179.371C125.558 180.027 129.193 197.506 126.394 209.888Z" fill="#5B98E8"/>
<path d="M112.108 236.291C111.883 236.301 111.662 236.223 111.493 236.074C111.323 235.925 111.218 235.715 111.199 235.49C110.437 227.005 110.522 218.466 111.454 209.999C112.614 199.494 115.056 189.172 118.724 179.263C118.767 179.151 118.832 179.048 118.914 178.961C118.997 178.874 119.096 178.803 119.206 178.754C119.315 178.705 119.434 178.678 119.554 178.675C119.674 178.672 119.793 178.692 119.906 178.735C120.018 178.778 120.121 178.843 120.208 178.926C120.295 179.009 120.365 179.108 120.414 179.218C120.463 179.328 120.49 179.446 120.493 179.567C120.496 179.687 120.476 179.807 120.433 179.919C113.906 197.643 111.422 216.606 113.163 235.417C113.172 235.537 113.159 235.657 113.122 235.771C113.085 235.886 113.026 235.991 112.949 236.083C112.871 236.174 112.776 236.249 112.669 236.304C112.562 236.358 112.446 236.391 112.326 236.4L112.108 236.291Z" fill="#BBBBF9"/>
<path d="M93.5325 234.797C98.7781 231.661 104.519 229.445 110.509 228.242C111.745 228.06 113.235 228.024 115.925 227.478C119.197 226.786 120.542 226.094 121.014 226.676C121.487 227.259 121.014 228.315 118.651 232.212C116.761 235.416 115.816 237.055 115.016 238.111C112.048 242.369 108.78 246.409 105.238 250.201C96.586 258.759 79.101 264.768 75.902 260.434C72.7031 256.101 82.736 241.461 93.5325 234.797Z" fill="#5B98E8"/>
<path d="M76.52 262C76.3488 261.994 76.183 261.939 76.0415 261.843C75.9 261.746 75.7886 261.611 75.7202 261.454C75.6207 261.236 75.6106 260.988 75.6923 260.763C75.7739 260.538 75.9407 260.355 76.1564 260.252C93.3553 252.544 108.619 241.085 120.833 226.713C120.911 226.622 121.007 226.548 121.115 226.494C121.222 226.44 121.339 226.408 121.459 226.4C121.579 226.391 121.699 226.407 121.813 226.445C121.927 226.483 122.032 226.543 122.123 226.622C122.214 226.701 122.288 226.797 122.342 226.905C122.395 227.012 122.427 227.129 122.436 227.249C122.444 227.37 122.429 227.49 122.391 227.604C122.353 227.718 122.293 227.824 122.214 227.915C109.809 242.428 94.3373 253.996 76.9199 261.782C76.8094 261.89 76.6709 261.966 76.52 262Z" fill="#BBBBF9"/>
<path d="M121.305 211.272C126.14 214.622 125.34 224.054 119.56 232.393C113.78 240.732 105.201 244.738 100.403 241.388C95.6046 238.038 96.3679 228.569 102.148 220.267C107.928 211.964 116.507 207.922 121.305 211.272Z" fill="#FFC5D2"/>
<path d="M134.392 245.285C133.01 251.038 123.886 253.77 113.998 251.439C104.111 249.108 97.1676 242.517 98.5126 236.873C99.8576 231.228 109.018 228.388 118.906 230.755C128.794 233.122 135.737 239.531 134.392 245.285Z" fill="#FFC5D2"/>
<path d="M135.991 244.812C130.502 246.924 123.086 240.915 119.415 231.411C115.743 221.906 117.27 212.474 122.759 210.362C128.248 208.25 135.664 214.222 139.335 223.727C143.007 233.231 141.48 242.663 135.991 244.812Z" fill="#FFC5D2"/>
<path d="M124.14 225.366C124.241 226.583 124.18 227.807 123.959 229.008C123.964 231.869 124.967 234.638 126.794 236.837C124.645 236.311 122.4 236.311 120.251 236.837C117.888 237.42 117.016 238.403 115.234 238.366C113.453 238.33 111.599 237.675 109.236 234.506C111.728 233.746 113.907 232.2 115.452 230.1C117.343 227.333 118.062 223.929 117.452 220.632C120.251 221.36 123.486 222.853 124.14 225.366Z" fill="#122275"/>
<path d="M36.4242 166.699C56.5408 166.699 72.8484 150.363 72.8484 130.211C72.8484 110.058 56.5408 93.7217 36.4242 93.7217C16.3077 93.7217 0 110.058 0 130.211C0 150.363 16.3077 166.699 36.4242 166.699Z" fill="#E3E3FD"/>
<path d="M39.6959 132.322C39.7442 132.779 39.696 133.241 39.5545 133.678C39.413 134.115 39.1813 134.518 38.8745 134.859C38.5677 135.201 38.1927 135.474 37.7737 135.661C37.3547 135.848 36.9011 135.945 36.4424 135.945C35.9838 135.945 35.5302 135.848 35.1112 135.661C34.6922 135.474 34.3171 135.201 34.0103 134.859C33.7035 134.518 33.4719 134.115 33.3304 133.678C33.1889 133.241 33.1407 132.779 33.189 132.322C33.2741 131.517 33.6535 130.772 34.2542 130.231C34.8549 129.689 35.6344 129.39 36.4424 129.39C37.2505 129.39 38.03 129.689 38.6307 130.231C39.2314 130.772 39.6108 131.517 39.6959 132.322Z" fill="#3F469A"/>
<path d="M36.6424 101.478H36.2062C35.7645 101.478 35.4064 101.836 35.4064 102.279V129.736C35.4064 130.179 35.7645 130.538 36.2062 130.538H36.6424C37.0841 130.538 37.4421 130.179 37.4421 129.736V102.279C37.4421 101.836 37.0841 101.478 36.6424 101.478Z" fill="#3F469A"/>
<path d="M52.3537 116.675L51.9515 116.254C51.6739 115.963 51.2137 115.953 50.9236 116.231L36.8989 129.676C36.6088 129.954 36.5987 130.415 36.8763 130.706L37.2785 131.127C37.5561 131.417 38.0163 131.427 38.3064 131.149L52.331 117.704C52.6211 117.426 52.6313 116.965 52.3537 116.675Z" fill="#3F469A"/>
<path d="M5.56176 130.21H0.87238C0.70496 130.21 0.543807 130.146 0.42209 130.031C0.300373 129.916 0.22738 129.758 0.218079 129.591C0.218079 129.417 0.286955 129.25 0.409665 129.128C0.532376 129.005 0.698841 128.936 0.87238 128.936H5.74348C5.82778 128.935 5.9112 128.953 5.98865 128.986C6.06609 129.019 6.13599 129.068 6.19388 129.13C6.25176 129.191 6.29651 129.264 6.32534 129.343C6.35416 129.422 6.36646 129.507 6.3615 129.591C6.36591 129.69 6.34639 129.789 6.3047 129.879C6.26302 129.969 6.2004 130.048 6.12199 130.108C6.04358 130.169 5.95169 130.21 5.85419 130.228C5.75669 130.245 5.65644 130.239 5.56176 130.21Z" fill="#3F469A"/>
<path d="M72.1941 130.21H67.323C67.2419 130.21 67.1615 130.194 67.0865 130.163C67.0115 130.132 66.9434 130.086 66.886 130.029C66.8286 129.971 66.7832 129.903 66.7521 129.828C66.7211 129.753 66.705 129.672 66.705 129.591C66.7 129.507 66.7124 129.422 66.7413 129.343C66.7701 129.264 66.8148 129.191 66.8727 129.13C66.9306 129.068 67.0004 129.019 67.0778 128.986C67.1553 128.953 67.2387 128.935 67.323 128.936H72.1941C72.3676 128.936 72.5341 129.005 72.6568 129.128C72.7795 129.25 72.8484 129.417 72.8484 129.591C72.8391 129.758 72.7661 129.916 72.6444 130.031C72.5227 130.146 72.3615 130.21 72.1941 130.21Z" fill="#3F469A"/>
<path d="M37.224 160.508V165.424C37.2153 165.585 37.1473 165.738 37.0333 165.852C36.9192 165.966 36.767 166.034 36.606 166.043C36.4385 166.043 36.2774 165.979 36.1557 165.864C36.034 165.749 35.961 165.591 35.9517 165.424V160.508C35.961 160.34 36.034 160.183 36.1557 160.068C36.2774 159.952 36.4385 159.888 36.606 159.889C36.767 159.897 36.9192 159.965 37.0333 160.08C37.1473 160.194 37.2153 160.346 37.224 160.508Z" fill="#3F469A"/>
<path d="M37.224 93.758V98.6378C37.2243 98.8055 37.1604 98.9669 37.0454 99.0889C36.9305 99.2108 36.7732 99.2839 36.606 99.2933C36.4325 99.2933 36.2661 99.2242 36.1434 99.1013C36.0207 98.9783 35.9517 98.8116 35.9517 98.6378V93.758C35.9517 93.5842 36.0207 93.4174 36.1434 93.2945C36.2661 93.1716 36.4325 93.1025 36.606 93.1025C36.7732 93.1119 36.9305 93.185 37.0454 93.3069C37.1604 93.4289 37.2243 93.5903 37.224 93.758Z" fill="#3F469A"/>
<path d="M184.121 63.7515C181.116 63.8077 178.167 62.9298 175.681 61.2384C173.194 59.547 171.292 57.1253 170.236 54.3065C169.18 51.4877 169.021 48.4103 169.783 45.4976C170.544 42.585 172.188 39.9803 174.488 38.0418C177.414 35.4872 181.233 34.2017 185.105 34.4681C188.977 34.7344 192.585 36.5308 195.135 39.462C197.685 42.3933 198.969 46.2193 198.703 50.0983C198.437 53.9774 196.644 57.5918 193.718 60.1463C191.061 62.4751 187.651 63.7565 184.121 63.7515ZM184.121 38.2603C181.45 38.2363 178.863 39.1952 176.85 40.9551C174.648 42.8867 173.301 45.6159 173.106 48.5423C172.912 51.4686 173.886 54.3525 175.814 56.5594C177.743 58.7662 180.467 60.1154 183.388 60.31C186.309 60.5047 189.188 59.5288 191.391 57.5972C193.078 56.1874 194.3 54.3004 194.898 52.1831C195.495 50.0658 195.441 47.817 194.742 45.7311C194.043 43.6452 192.731 41.8195 190.978 40.493C189.226 39.1664 187.115 38.4009 184.921 38.2967L184.121 38.2603Z" fill="#FFC5D2"/>
<path d="M206.877 77.1525C206.616 77.1502 206.359 77.094 206.121 76.9875C205.884 76.881 205.671 76.7264 205.495 76.5335L190.955 59.9277C190.797 59.7498 190.676 59.5419 190.599 59.3164C190.523 59.0909 190.492 58.8524 190.509 58.6148C190.526 58.3772 190.59 58.1454 190.698 57.9331C190.806 57.7208 190.955 57.5323 191.136 57.3786C191.505 57.066 191.982 56.91 192.464 56.944C192.946 56.9781 193.396 57.1993 193.717 57.5607L208.258 74.13C208.416 74.308 208.537 74.5158 208.613 74.7413C208.69 74.9668 208.721 75.2054 208.704 75.4429C208.687 75.6805 208.623 75.9123 208.515 76.1246C208.407 76.3369 208.258 76.5254 208.076 76.6791C207.917 76.8336 207.73 76.955 207.524 77.0363C207.318 77.1176 207.098 77.1571 206.877 77.1525Z" fill="#FFC5D2"/>
<path d="M196.226 76.2775C195.969 76.2846 195.714 76.2325 195.481 76.1251C195.248 76.0178 195.042 75.8581 194.881 75.6584C194.723 75.4804 194.602 75.2725 194.525 75.0471C194.449 74.8216 194.418 74.583 194.435 74.3454C194.452 74.1079 194.516 73.8761 194.624 73.6638C194.732 73.4515 194.881 73.2629 195.063 73.1093L206.331 63.2769C206.7 63.0293 207.146 62.925 207.585 62.9838C208.025 63.0426 208.428 63.2603 208.718 63.5961C209.009 63.9318 209.167 64.3624 209.162 64.8066C209.158 65.2509 208.991 65.6782 208.694 66.0081L197.425 75.8405C197.091 76.1266 196.665 76.2819 196.226 76.2775Z" fill="#FFC5D2"/>
<path d="M216.292 53.9912C212.855 54.0003 209.527 52.7899 206.896 50.5746C204.266 48.3594 202.504 45.2824 201.922 41.8895C201.341 38.4966 201.978 35.0071 203.72 32.0398C205.462 29.0725 208.197 26.8192 211.44 25.6796C214.682 24.5401 218.223 24.5878 221.434 25.8144C224.645 27.0411 227.319 29.3673 228.98 32.3805C230.642 35.3937 231.185 38.8992 230.513 42.2752C229.84 45.6512 227.996 48.6795 225.307 50.823C222.744 52.8661 219.567 53.9825 216.292 53.9912ZM216.292 28.2815C214.212 28.2476 212.167 28.8102 210.396 29.9028C208.625 30.9954 207.203 32.5724 206.297 34.448C205.392 36.3235 205.04 38.4194 205.285 40.4884C205.529 42.5574 206.359 44.5132 207.676 46.1253C208.805 47.4934 210.248 48.5657 211.883 49.2493C213.517 49.933 215.294 50.2075 217.058 50.049C218.822 49.8906 220.521 49.304 222.009 48.3401C223.496 47.3761 224.726 46.0637 225.594 44.5164C226.461 42.9692 226.939 41.2335 226.986 39.4597C227.033 37.6858 226.649 35.9271 225.865 34.3356C225.082 32.7442 223.923 31.3678 222.489 30.3257C221.056 29.2835 219.39 28.6069 217.637 28.3543L216.292 28.2815Z" fill="#5B98E8"/>
<path d="M208.367 31.0856C208.094 31.087 207.824 31.0253 207.578 30.9053C207.332 30.7854 207.117 30.6103 206.95 30.3937L193.536 13.096C193.365 12.9268 193.23 12.7254 193.138 12.5035C193.046 12.2816 192.998 12.0436 192.998 11.8033C192.998 11.5629 193.046 11.3249 193.138 11.103C193.23 10.8812 193.365 10.6798 193.536 10.5105C193.922 10.2195 194.404 10.0876 194.884 10.1418C195.364 10.196 195.805 10.4321 196.117 10.8018L209.639 28.0994C209.937 28.4768 210.073 28.9565 210.018 29.434C209.964 29.9116 209.723 30.3481 209.349 30.6486C209.072 30.8881 208.73 31.0401 208.367 31.0856Z" fill="#5B98E8"/>
<path d="M193.536 24.422C193.291 24.4222 193.048 24.3728 192.823 24.2767C192.598 24.1807 192.394 24.04 192.224 23.8632C192.054 23.6863 191.922 23.4769 191.835 23.2475C191.748 23.0181 191.708 22.7735 191.718 22.5283L192.227 11.1301C192.231 10.8675 192.296 10.6094 192.416 10.3757C192.535 10.1421 192.707 9.93915 192.918 9.78271C193.123 9.62591 193.357 9.51271 193.607 9.45009C193.857 9.38747 194.118 9.37674 194.372 9.41856L205.641 11.5671C206.123 11.6589 206.549 11.9387 206.825 12.345C207.101 12.7514 207.205 13.2509 207.113 13.7339C207.021 14.2168 206.742 14.6434 206.337 14.92C205.931 15.1966 205.432 15.3005 204.95 15.2087L195.753 13.4607L195.353 22.7468C195.317 23.2041 195.109 23.6306 194.772 23.9411C194.435 24.2517 193.994 24.4234 193.536 24.422Z" fill="#5B98E8"/>
</svg>
