<svg width="277" height="251" viewBox="0 0 277 251" fill="none" xmlns="http://www.w3.org/2000/svg">
<path d="M192.65 243.807H222.863C223.36 242.297 223.36 240.667 222.863 239.156C222.669 238.667 222.424 238.198 222.134 237.758C220.886 235.531 220.12 233.066 219.885 230.524L214.413 229.916C207.483 239.217 203.592 241.071 201.252 240.95C199.641 240.95 198.06 241.74 196.419 241.77C195.355 241.77 194.079 241.77 193.379 242.53C193 242.862 192.743 243.312 192.65 243.807Z" fill="#FF8C64"/>
<path d="M240.767 243.806H270.98C271.301 242.792 271.389 241.718 271.236 240.666C271.084 239.613 270.695 238.608 270.099 237.727C268.851 235.5 268.085 233.035 267.85 230.493L262.378 229.885C255.448 239.186 251.557 241.04 249.217 240.919C247.575 240.919 246.025 241.709 244.384 241.739C243.32 241.739 242.043 241.739 241.344 242.499C241.015 242.86 240.812 243.319 240.767 243.806Z" fill="#FF8C64"/>
<path d="M185.659 29.7881L190.796 34.469L199.033 42.0984L210.462 30.1224L191.404 16.2314C190.616 19.065 189.599 21.83 188.364 24.4992C187.569 26.3147 186.666 28.0809 185.659 29.7881Z" fill="#FF8C64"/>
<path d="M185.659 29.7879L190.796 34.4689C192.893 32.1588 191.86 27.721 188.486 24.499C187.452 26.262 186.571 28.025 185.659 29.7879Z" fill="#122275"/>
<path d="M240.493 95.2603L219.064 117.358C213.228 106.172 207.402 94.9259 201.586 83.6186C198.425 77.5394 195.294 71.4602 192.194 65.381C190.652 63.9213 189.376 62.2035 188.425 60.3049C188.026 57.5578 187.864 54.7816 187.939 52.0068C187.996 47.6178 188.516 43.247 189.489 38.9669C190.006 37.8726 190.522 36.9 190.978 35.9273C191.599 34.7816 192.289 33.6751 193.045 32.6141L199.975 27.6292L203.441 25.1367C205.253 25.8926 206.984 26.8295 208.608 27.9331C211.26 29.9336 213.668 32.2393 215.781 34.8026C220.671 41.9448 224.404 49.8125 226.845 58.1164C231.405 70.4977 235.954 82.879 240.493 95.2603Z" fill="#FF8C64"/>
<path d="M228.943 128.757C237.101 128.757 243.715 120.755 243.715 110.885C243.715 101.014 237.101 93.0117 228.943 93.0117C220.784 93.0117 214.17 101.014 214.17 110.885C214.17 120.755 220.784 128.757 228.943 128.757Z" fill="#FF8C64"/>
<path d="M217.24 164.017C216.845 173.561 218.699 181.19 221.769 181.889C224.839 182.589 230.675 175.537 234.353 163.925L242.56 114.988L214.808 107.115C213.298 113.266 212.372 119.545 212.042 125.87C211.377 138.798 213.14 151.737 217.24 164.017Z" fill="#FF8C64"/>
<path d="M222.408 114.654C224.049 124.381 231.891 131.19 239.946 129.852C248.001 128.515 253.168 119.518 251.527 109.791C249.886 100.064 242.043 93.2859 233.988 94.5929C225.934 95.9 220.888 104.928 222.408 114.654Z" fill="#FF8C64"/>
<path d="M239.855 167.42C242.59 176.539 246.815 183.196 249.977 182.831C253.138 182.466 256.299 173.925 256.056 161.736C253.32 145.525 250.574 129.213 247.818 112.799L219.064 114.44C220.865 133.717 228.095 152.087 239.916 167.42H239.855Z" fill="#FF8C64"/>
<path d="M212.286 233.047L219.824 234.445C223.484 227.534 226.772 220.431 229.672 213.168C236.967 194.93 236.238 189.185 235.751 186.663C235.049 183.94 234.501 181.179 234.11 178.395C233.555 174.028 233.494 169.613 233.928 165.233L219.277 179.216C219.277 182.438 219.277 185.781 219.277 189.185C218.766 204.038 216.418 218.771 212.286 233.047Z" fill="#FF8C64"/>
<path d="M259.916 233.228L267.454 231.8C268.393 224.072 268.91 216.3 269.005 208.516C269.217 188.82 266.512 183.774 265.114 181.616C263.479 179.333 261.977 176.959 260.615 174.503C258.527 170.646 256.875 166.568 255.691 162.345L247.059 180.582C248.305 183.622 249.49 186.661 250.615 189.914C255.47 203.919 258.593 218.465 259.916 233.228Z" fill="#FF8C64"/>
<path d="M187.969 29.7573C190.869 25.2438 192.224 19.9099 191.829 14.5593C191.723 12.379 191.099 10.2553 190.011 8.36328C188.922 6.47126 187.399 4.86522 185.568 3.67759C183.874 2.70789 181.984 2.13072 180.038 1.98868C178.091 1.84664 176.138 2.14334 174.321 2.85688C167.816 5.37975 164.594 12.9788 165.81 16.8087C166.002 17.3724 166.257 17.9127 166.57 18.4196C168.971 21.976 170.066 23.5869 170.096 23.6781C170.125 23.7867 170.189 23.8828 170.278 23.9517C170.359 23.9648 170.441 23.9648 170.521 23.9517L172.041 24.7724C174.564 27.4168 175.598 28.5719 175.871 28.967C176.297 29.6054 176.54 29.9397 176.874 30.0613C177.209 30.1829 177.057 30.0613 177.087 30.2437C177.117 30.4261 176.935 30.5476 177.087 30.6996C177.239 30.8516 177.695 31.0036 177.786 31.0036C177.877 31.0036 178.698 31.0036 179.002 30.6084C179.038 30.4792 179.038 30.3425 179.002 30.2133C179.002 30.2133 178.576 31.186 178.85 31.4595C178.989 31.4969 179.136 31.4969 179.276 31.4595C179.395 31.4891 179.52 31.4891 179.64 31.4595C180.096 31.4595 181.16 33.6176 182.072 34.0432C182.984 34.4687 186.145 32.4626 187.969 29.7573Z" fill="#FF8C64"/>
<path d="M173.379 29.9094C173.592 30.0481 173.833 30.1389 174.085 30.1756C174.337 30.2124 174.594 30.1941 174.838 30.1221C175.391 30.0312 175.896 29.752 176.266 29.3318C176.331 29.006 176.265 28.668 176.084 28.3896C175.902 28.1464 175.628 28.1464 175.324 27.9336C175.008 27.6973 174.774 27.3677 174.656 26.9914L171.829 24.5293L172.437 26.4442C172.923 27.9032 172.953 27.9336 173.045 28.3288C173.227 29.2711 173.075 29.6054 173.379 29.9094Z" fill="#FF8C64"/>
<path d="M172.68 23.5574L171.494 23.1926C171.445 23.1791 171.399 23.1553 171.359 23.1228C171.319 23.0903 171.287 23.0497 171.264 23.0038C171.241 22.9579 171.228 22.9077 171.226 22.8564C171.224 22.8052 171.232 22.754 171.251 22.7063C171.286 22.6112 171.355 22.533 171.446 22.4878C171.536 22.4425 171.641 22.4337 171.737 22.4631L172.558 22.7367C172.976 22.2628 173.434 21.8255 173.926 21.4297C174.668 20.8214 175.486 20.3106 176.358 19.9099C176.402 19.8899 176.449 19.8788 176.497 19.8772C176.545 19.8755 176.593 19.8834 176.639 19.9003C176.684 19.9173 176.725 19.9429 176.76 19.9759C176.796 20.0088 176.824 20.0483 176.844 20.0922C176.864 20.1361 176.875 20.1836 176.877 20.2318C176.878 20.28 176.87 20.328 176.853 20.3732C176.837 20.4183 176.811 20.4597 176.778 20.495C176.745 20.5302 176.706 20.5586 176.662 20.5786C175.866 20.9789 175.113 21.4575 174.412 22.0072C173.899 22.4342 173.422 22.9017 172.984 23.4054C172.946 23.4503 172.9 23.4869 172.848 23.5131C172.795 23.5392 172.738 23.5543 172.68 23.5574Z" fill="#122275"/>
<path d="M173.288 23.9826C173.395 24.0957 173.525 24.1858 173.669 24.2473C173.812 24.3088 173.967 24.3405 174.123 24.3405C174.28 24.3405 174.434 24.3088 174.578 24.2473C174.722 24.1858 174.852 24.0957 174.959 23.9826C175.182 23.7553 175.307 23.4497 175.307 23.1315C175.307 22.8132 175.182 22.5077 174.959 22.2804C174.737 22.0595 174.437 21.9355 174.123 21.9355C173.81 21.9355 173.51 22.0595 173.288 22.2804C173.174 22.3909 173.083 22.5232 173.021 22.6694C172.959 22.8156 172.927 22.9727 172.927 23.1315C172.927 23.2903 172.959 23.4474 173.021 23.5936C173.083 23.7398 173.174 23.8721 173.288 23.9826Z" fill="#122275"/>
<path d="M175.507 18.0254C175.134 18.1078 174.768 18.2196 174.412 18.3598C172.889 19.2845 171.481 20.3865 170.218 21.6426C169.794 21.4418 169.436 21.1258 169.184 20.7307C168.993 20.3625 168.879 19.9591 168.85 19.5452C169.969 19.0149 171.037 18.3842 172.041 17.6607C172.679 17.1854 173.401 16.8348 174.169 16.6272C174.478 16.5474 174.802 16.5474 175.111 16.6272C175.842 16.7708 176.486 17.1968 176.905 17.8127C176.435 17.8589 175.969 17.93 175.507 18.0254Z" fill="#122275"/>
<path d="M179.002 31.2166C178.924 31.2166 178.848 31.1935 178.783 31.1503C178.718 31.107 178.667 31.0455 178.637 30.9734C178.618 30.9257 178.61 30.8746 178.612 30.8233C178.614 30.772 178.627 30.7218 178.65 30.6759C178.673 30.63 178.706 30.5895 178.745 30.5569C178.785 30.5244 178.831 30.5006 178.88 30.4871C179.342 30.2944 179.741 29.979 180.036 29.5752C180.366 29.0846 180.507 28.4902 180.431 27.9034C180.422 27.8532 180.424 27.8017 180.437 27.7522C180.449 27.7028 180.472 27.6565 180.503 27.6164C180.535 27.5763 180.574 27.5433 180.62 27.5194C180.665 27.4956 180.714 27.4814 180.765 27.4779C180.815 27.4693 180.867 27.4713 180.916 27.4838C180.966 27.4963 181.012 27.5191 181.052 27.5506C181.092 27.5821 181.125 27.6217 181.149 27.6667C181.173 27.7118 181.187 27.7614 181.191 27.8123C181.296 28.5849 181.1 29.3685 180.643 30.0008C180.279 30.5503 179.745 30.9664 179.124 31.1862L179.002 31.2166Z" fill="#EA522F"/>
<path d="M162.953 101.978C162.406 110.793 161.768 109.851 162.011 112.465C162.831 121.067 168.85 122.83 168.455 129.608C168.3 131.394 167.774 133.127 166.911 134.698C166.047 136.268 164.865 137.641 163.439 138.727C157.36 143.226 146.904 139.973 141.068 135.414C126.782 124.198 132.223 98.9387 133.438 93.1331C136.144 80.5795 144.077 61.4301 153.165 61.8556C158.971 62.1292 165.05 70.2753 165.597 77.3272C165.78 80.1236 164.929 80.3668 163.439 90.4278C162.801 94.8049 163.378 95.5648 162.953 101.978Z" fill="#3F469A"/>
<path d="M108.97 151.798H105.353C102.828 141.44 102.138 130.72 103.316 120.125C103.69 116.625 104.289 113.153 105.109 109.729L114.228 112.769C114.385 115.006 114.385 117.25 114.228 119.487C113.468 130.855 109.122 135.748 108.787 146.843C108.754 148.497 108.815 150.151 108.97 151.798Z" fill="#FF8C64"/>
<path d="M137.785 154.411C136.73 153.731 135.715 152.99 134.746 152.192C134.002 151.531 133.376 150.75 132.891 149.882C132.777 149.721 132.696 149.538 132.654 149.345C132.612 149.151 132.61 148.951 132.648 148.757C132.831 148.21 133.286 147.541 133.286 147.329C133.286 147.116 133.287 146.873 133.621 146.842C133.955 146.812 134.715 146.022 134.928 145.991C136.021 145.92 137.044 145.43 137.785 144.623L138.241 144.076L138.515 143.803C139.07 143.315 139.723 142.953 140.43 142.739C141.321 142.448 142.263 142.345 143.196 142.435C144.373 142.522 145.506 142.921 146.478 143.59C147.756 144.451 148.713 145.713 149.197 147.176C149.681 148.639 149.665 150.222 149.153 151.675C148.425 152.898 147.322 153.854 146.008 154.402C144.695 154.949 143.239 155.059 141.858 154.715C141.142 154.424 140.381 154.259 139.609 154.229C138.995 154.197 138.38 154.258 137.785 154.411Z" fill="#FF8C64"/>
<path d="M135.931 146.691C135.96 146.54 135.96 146.385 135.931 146.235C135.931 146.022 135.931 145.992 135.779 145.809C135.744 145.67 135.744 145.523 135.779 145.384C135.779 145.384 135.779 145.171 136.113 145.11C136.321 145.043 136.544 145.043 136.752 145.11C137.267 145.267 137.817 145.267 138.332 145.11L137.268 146.113L135.931 146.691Z" fill="#FF8C64"/>
<path d="M159.336 157.148C158.847 159.396 157.801 161.486 156.296 163.227C150.703 169.306 136.356 165.537 123.529 164.2C96.7809 161.342 81.2485 169.215 79.3944 164.412C78.1178 161.099 84.7744 155.142 90.0937 152.041C99.2125 146.752 104.684 149.67 122.709 148.485C143.044 147.117 153.105 142.223 157.451 147.755C159.281 150.52 159.957 153.891 159.336 157.148Z" fill="#FFC5D2"/>
<path d="M133.499 157.422C134.077 159.397 133.682 161.069 132.77 161.555C131.858 162.042 130.217 160.978 129.457 160.248C128.707 159.406 128.11 158.439 127.694 157.391L126.265 154.504C126.66 151.464 127.025 148.424 127.39 145.385H131.311C132.929 146.863 134.071 148.788 134.594 150.917C134.594 151.16 135.11 153.227 134.594 153.47C134.077 153.713 132.922 152.163 131.98 150.734L133.499 157.422Z" fill="#FF8C64"/>
<path d="M117.055 77.996C116.325 86.6082 115.586 95.2204 114.836 103.833C114.593 106.872 114.319 109.699 114.076 112.647L105.109 109.608C104.957 108.331 104.805 107.024 104.714 105.687C104.623 104.349 104.714 103.741 104.532 102.647C104.226 97.2259 104.338 91.7893 104.866 86.3853C105.2 82.8289 105.687 79.5158 106.295 76.4154C107.211 75.5381 108.346 74.9229 109.581 74.6342C110.816 74.3454 112.106 74.3937 113.316 74.774C114.92 75.3452 116.253 76.4941 117.055 77.996Z" fill="#FF8C64"/>
<path d="M114.806 103.832C111.432 104.44 108.058 105.017 104.714 105.656C104.714 104.683 104.714 103.71 104.532 102.616C107.967 103.042 111.462 103.437 114.806 103.832Z" fill="#122275"/>
<path d="M114.836 103.803L100.854 103.256C101.644 95.0791 102.404 86.9025 103.195 78.726C103.639 77.0287 104.633 75.5265 106.022 74.4544C107.41 73.3823 109.115 72.8008 110.869 72.8008C112.624 72.8008 114.329 73.3823 115.718 74.4544C117.106 75.5265 118.1 77.0287 118.544 78.726C117.298 87.0849 116.082 95.4438 114.836 103.803Z" fill="#FFC5D2"/>
<path d="M50.6702 248.153H79.3944C79.6819 248.04 79.9403 247.864 80.1507 247.637C80.3611 247.411 80.5181 247.141 80.6103 246.846C80.693 246.38 80.6184 245.901 80.3982 245.482C80.178 245.064 79.8249 244.731 79.3944 244.536C77.0872 244.326 74.8065 243.888 72.5857 243.229C69.505 242.49 66.6018 241.147 64.0444 239.277C62.06 237.745 60.3884 235.847 59.1203 233.684L52.3116 233.259C52.5152 236.652 51.7566 240.034 50.1231 243.016C49.6975 243.685 48.5729 245.356 49.1504 246.755C49.4783 247.384 50.0159 247.878 50.6702 248.153Z" fill="#FF8C64"/>
<path d="M15.2283 238.639L41.7336 249.642C42.0394 249.647 42.3425 249.585 42.6211 249.459C42.8996 249.332 43.1468 249.146 43.3446 248.913C43.6062 248.516 43.7274 248.043 43.6888 247.569C43.6503 247.095 43.4542 246.648 43.1318 246.299C41.0892 245.221 39.1552 243.948 37.3566 242.499C34.7942 240.631 32.6251 238.276 30.9734 235.569C29.7404 233.389 28.926 230.997 28.5722 228.517L22.493 225.478C21.384 228.688 19.3801 231.515 16.7177 233.624C16.0794 234.11 14.3772 235.204 14.3772 236.663C14.3799 237.033 14.4566 237.398 14.6028 237.737C14.749 238.077 14.9617 238.383 15.2283 238.639Z" fill="#FF8C64"/>
<path d="M132.131 147.208L128.606 147.877C123.59 138.419 120.374 128.112 119.122 117.481C118.671 113.76 118.478 110.012 118.544 106.265L128.028 107.845C128.714 109.974 129.252 112.147 129.639 114.35C131.584 125.597 128.514 131.341 130.794 142.132C131.144 143.848 131.591 145.542 132.131 147.208Z" fill="#FF8C64"/>
<path d="M191.465 161.949H2.40143V200.157H191.465V161.949Z" fill="#5B98E8"/>
<path d="M191.616 185.628H0V214.535H191.616V185.628Z" fill="#E3E3FD"/>
<path d="M2.4318 237.575C2.13787 237.583 1.84525 237.532 1.57097 237.426C1.2967 237.32 1.04629 237.161 0.834173 236.957C0.622058 236.754 0.452483 236.51 0.335396 236.24C0.218308 235.971 0.156016 235.68 0.1521 235.386V96.9629C0.216084 96.4152 0.478985 95.9102 0.89085 95.5437C1.30271 95.1771 1.83481 94.9746 2.38616 94.9746C2.93751 94.9746 3.4697 95.1771 3.88156 95.5437C4.29343 95.9102 4.55633 96.4152 4.62031 96.9629V235.386C4.62031 235.967 4.38976 236.523 3.97933 236.934C3.56891 237.344 3.01223 237.575 2.4318 237.575Z" fill="#E3E3FD"/>
<path d="M189.276 237.575C188.981 237.587 188.686 237.539 188.41 237.435C188.134 237.331 187.882 237.171 187.669 236.967C187.456 236.762 187.287 236.517 187.171 236.245C187.055 235.974 186.996 235.681 186.996 235.386V96.9628C186.996 96.3824 187.227 95.8257 187.637 95.4153C188.048 95.0049 188.604 94.7743 189.185 94.7743C189.479 94.7662 189.771 94.8166 190.045 94.9226C190.32 95.0286 190.57 95.188 190.782 95.3916C190.994 95.5953 191.164 95.8391 191.281 96.1088C191.398 96.3785 191.46 96.6688 191.464 96.9628V235.386C191.464 235.674 191.408 235.958 191.298 236.224C191.188 236.489 191.027 236.73 190.823 236.934C190.62 237.137 190.379 237.298 190.113 237.408C189.848 237.518 189.563 237.575 189.276 237.575Z" fill="#E3E3FD"/>
<path d="M19.2104 191.798C18.9513 191.81 18.6925 191.77 18.4495 191.679C18.2066 191.588 17.9846 191.449 17.797 191.27C17.6094 191.091 17.4601 190.876 17.3582 190.637C17.2563 190.399 17.2039 190.142 17.2042 189.883V114.592C17.2042 114.081 17.4049 113.591 17.7632 113.227C18.1215 112.863 18.6085 112.655 19.1192 112.647C19.3787 112.643 19.6364 112.69 19.8776 112.785C20.1189 112.881 20.339 113.023 20.5253 113.204C20.7116 113.384 20.8604 113.6 20.9634 113.838C21.0663 114.076 21.1214 114.333 21.1253 114.592V189.883C21.1253 190.391 20.9236 190.878 20.5645 191.237C20.2054 191.596 19.7182 191.798 19.2104 191.798Z" fill="#E3E3FD"/>
<path d="M38.5119 191.798C38.2539 191.806 37.9968 191.763 37.7558 191.671C37.5147 191.579 37.2943 191.439 37.1076 191.261C36.9209 191.083 36.7716 190.869 36.6682 190.633C36.5649 190.396 36.5096 190.141 36.5057 189.883V114.592C36.5653 114.115 36.7975 113.675 37.1586 113.356C37.5196 113.037 37.9846 112.861 38.4662 112.861C38.9479 112.861 39.4129 113.037 39.774 113.356C40.135 113.675 40.3672 114.115 40.4268 114.592V189.883C40.4268 190.391 40.225 190.878 39.8659 191.237C39.5068 191.597 39.0197 191.798 38.5119 191.798Z" fill="#E3E3FD"/>
<path d="M57.0533 191.799C56.7942 191.811 56.5354 191.771 56.2924 191.68C56.0495 191.589 55.8275 191.45 55.6399 191.271C55.4523 191.092 55.303 190.877 55.2011 190.638C55.0992 190.4 55.0468 190.143 55.0471 189.884V114.593C55.0471 114.082 55.2478 113.592 55.6061 113.228C55.9644 112.864 56.4514 112.655 56.9621 112.647C57.2226 112.639 57.4821 112.684 57.7252 112.778C57.9683 112.872 58.1899 113.014 58.3771 113.195C58.5642 113.377 58.713 113.594 58.8145 113.834C58.9161 114.074 58.9684 114.332 58.9682 114.593V189.884C58.9682 190.392 58.7664 190.879 58.4073 191.238C58.0482 191.597 57.5611 191.799 57.0533 191.799Z" fill="#E3E3FD"/>
<path d="M76.3244 191.798C76.0664 191.806 75.8094 191.763 75.5683 191.671C75.3272 191.579 75.1069 191.439 74.9202 191.261C74.7334 191.083 74.5841 190.869 74.4808 190.633C74.3774 190.396 74.3221 190.141 74.3182 189.883V114.592C74.3779 114.115 74.6101 113.675 74.9711 113.356C75.3321 113.037 75.7971 112.861 76.2787 112.861C76.7604 112.861 77.2255 113.037 77.5865 113.356C77.9475 113.675 78.1797 114.115 78.2393 114.592V189.883C78.2393 190.391 78.0375 190.878 77.6784 191.237C77.3193 191.597 76.8323 191.798 76.3244 191.798Z" fill="#E3E3FD"/>
<path d="M96.0817 191.799C95.8237 191.807 95.5667 191.763 95.3256 191.671C95.0845 191.579 94.8642 191.44 94.6775 191.262C94.4908 191.083 94.3414 190.87 94.2381 190.633C94.1347 190.397 94.0795 190.142 94.0756 189.884V114.593C94.0756 114.069 94.2837 113.566 94.6542 113.196C95.0247 112.825 95.5273 112.617 96.0513 112.617C96.5753 112.617 97.0778 112.825 97.4484 113.196C97.8189 113.566 98.027 114.069 98.027 114.593V189.884C98.019 190.394 97.8106 190.881 97.4466 191.24C97.0826 191.598 96.5924 191.799 96.0817 191.799Z" fill="#E3E3FD"/>
<path d="M115.353 191.798C115.096 191.806 114.841 191.763 114.601 191.67C114.362 191.577 114.144 191.438 113.959 191.259C113.775 191.08 113.629 190.866 113.529 190.63C113.429 190.394 113.377 190.14 113.377 189.883V114.592C113.377 114.081 113.578 113.591 113.936 113.227C114.294 112.863 114.782 112.655 115.292 112.647C115.552 112.643 115.809 112.69 116.051 112.785C116.292 112.881 116.512 113.023 116.698 113.204C116.884 113.384 117.033 113.6 117.136 113.838C117.239 114.076 117.294 114.333 117.298 114.592V189.883C117.29 190.394 117.082 190.881 116.718 191.239C116.354 191.597 115.864 191.798 115.353 191.798Z" fill="#E3E3FD"/>
<path d="M133.925 191.799C133.667 191.807 133.41 191.763 133.169 191.671C132.928 191.579 132.707 191.44 132.52 191.262C132.334 191.083 132.184 190.87 132.081 190.633C131.978 190.397 131.923 190.142 131.919 189.884V114.593C131.919 114.069 132.127 113.566 132.497 113.196C132.868 112.825 133.37 112.617 133.894 112.617C134.418 112.617 134.921 112.825 135.291 113.196C135.662 113.566 135.87 114.069 135.87 114.593V189.884C135.862 190.394 135.654 190.881 135.29 191.24C134.926 191.598 134.436 191.799 133.925 191.799Z" fill="#E3E3FD"/>
<path d="M153.226 191.799C152.967 191.811 152.708 191.771 152.465 191.68C152.222 191.589 152 191.45 151.813 191.271C151.625 191.092 151.476 190.877 151.374 190.638C151.272 190.4 151.22 190.143 151.22 189.884V114.593C151.22 114.082 151.421 113.592 151.779 113.228C152.137 112.864 152.624 112.655 153.135 112.647C153.396 112.639 153.655 112.684 153.898 112.778C154.141 112.872 154.363 113.014 154.55 113.195C154.737 113.377 154.886 113.594 154.987 113.834C155.089 114.074 155.141 114.332 155.141 114.593V189.884C155.141 190.392 154.939 190.879 154.58 191.238C154.221 191.597 153.734 191.799 153.226 191.799Z" fill="#E3E3FD"/>
<path d="M172.497 191.798C172.239 191.806 171.982 191.763 171.741 191.671C171.5 191.579 171.28 191.439 171.093 191.261C170.906 191.083 170.757 190.869 170.654 190.633C170.55 190.396 170.495 190.141 170.491 189.883V114.592C170.551 114.115 170.783 113.675 171.144 113.356C171.505 113.037 171.97 112.861 172.452 112.861C172.933 112.861 173.398 113.037 173.76 113.356C174.121 113.675 174.353 114.115 174.412 114.592V189.883C174.412 190.391 174.211 190.878 173.851 191.237C173.492 191.597 173.005 191.798 172.497 191.798Z" fill="#E3E3FD"/>
<path d="M187.27 115.171H4.34682C3.83088 115.171 3.33608 114.966 2.97126 114.601C2.60644 114.236 2.40143 113.742 2.40143 113.226C2.40143 112.71 2.60644 112.215 2.97126 111.85C3.33608 111.485 3.83088 111.28 4.34682 111.28H187.27C187.786 111.28 188.281 111.485 188.645 111.85C189.01 112.215 189.215 112.71 189.215 113.226C189.215 113.742 189.01 114.236 188.645 114.601C188.281 114.966 187.786 115.171 187.27 115.171Z" fill="#E3E3FD"/>
<path d="M125.353 212.135H66.2633C66.1585 212.135 66.058 212.093 65.9839 212.019C65.9098 211.945 65.8682 211.844 65.8682 211.74V188.578C65.8682 188.473 65.9098 188.372 65.9839 188.298C66.058 188.224 66.1585 188.183 66.2633 188.183H125.353C125.458 188.183 125.558 188.224 125.633 188.298C125.707 188.372 125.748 188.473 125.748 188.578V211.74C125.748 211.844 125.707 211.945 125.633 212.019C125.558 212.093 125.458 212.135 125.353 212.135ZM66.6281 211.375H124.988V188.943H66.6281V211.375Z" fill="#BBBBF9"/>
<path d="M98.2703 200.157C98.2823 200.647 98.1483 201.129 97.8852 201.541C97.6221 201.954 97.2419 202.279 96.7932 202.475C96.3445 202.671 95.8477 202.728 95.3662 202.64C94.8847 202.552 94.4403 202.322 94.0899 201.981C93.7394 201.639 93.4988 201.2 93.3988 200.721C93.2988 200.242 93.3439 199.744 93.5283 199.291C93.7127 198.837 94.0281 198.449 94.4342 198.176C94.8403 197.902 95.3187 197.756 95.8082 197.756C96.1275 197.752 96.4445 197.811 96.7411 197.929C97.0377 198.048 97.308 198.224 97.5366 198.447C97.7652 198.67 97.9477 198.936 98.0736 199.229C98.1995 199.523 98.2663 199.838 98.2703 200.157Z" fill="#BBBBF9"/>
<path d="M62.8286 212.135H3.73881C3.68824 212.135 3.63823 212.124 3.59187 212.104C3.54551 212.084 3.50382 212.054 3.46952 212.017C3.43522 211.98 3.40906 211.936 3.39262 211.888C3.37619 211.841 3.36985 211.79 3.37407 211.74V188.578C3.36985 188.527 3.37619 188.477 3.39262 188.429C3.40906 188.381 3.43522 188.337 3.46952 188.3C3.50382 188.263 3.54551 188.233 3.59187 188.213C3.63823 188.193 3.68824 188.182 3.73881 188.183H62.8286C62.9334 188.183 63.0339 188.224 63.108 188.298C63.1821 188.372 63.2238 188.473 63.2238 188.578V211.74C63.2238 211.844 63.1821 211.945 63.108 212.019C63.0339 212.093 62.9334 212.135 62.8286 212.135ZM4.10354 211.375H62.4639V188.943H4.10354V211.375Z" fill="#BBBBF9"/>
<path d="M35.7761 200.157C35.7882 200.647 35.6542 201.129 35.3911 201.541C35.128 201.954 34.7478 202.279 34.2991 202.475C33.8504 202.671 33.3536 202.728 32.872 202.64C32.3905 202.552 31.9462 202.322 31.5957 201.981C31.2453 201.639 31.0047 201.2 30.9047 200.721C30.8046 200.242 30.8497 199.744 31.0342 199.291C31.2186 198.837 31.534 198.449 31.9401 198.176C32.3462 197.902 32.8245 197.756 33.3141 197.756C33.6334 197.752 33.9504 197.811 34.247 197.929C34.5435 198.048 34.8138 198.224 35.0425 198.447C35.2711 198.67 35.4535 198.936 35.5794 199.229C35.7053 199.523 35.7722 199.838 35.7761 200.157Z" fill="#BBBBF9"/>
<path d="M187.878 212.135H128.758C128.707 212.135 128.657 212.124 128.611 212.104C128.564 212.084 128.523 212.054 128.488 212.017C128.454 211.98 128.428 211.936 128.411 211.888C128.395 211.841 128.389 211.79 128.393 211.74V188.578C128.389 188.527 128.395 188.477 128.411 188.429C128.428 188.381 128.454 188.337 128.488 188.3C128.523 188.263 128.564 188.233 128.611 188.213C128.657 188.193 128.707 188.182 128.758 188.183H187.878C187.928 188.182 187.978 188.193 188.025 188.213C188.071 188.233 188.113 188.263 188.147 188.3C188.181 188.337 188.208 188.381 188.224 188.429C188.24 188.477 188.247 188.527 188.243 188.578V211.74C188.247 211.79 188.24 211.841 188.224 211.888C188.208 211.936 188.181 211.98 188.147 212.017C188.113 212.054 188.071 212.084 188.025 212.104C187.978 212.124 187.928 212.135 187.878 212.135ZM129.153 211.375H187.452V188.943H129.153V211.375Z" fill="#BBBBF9"/>
<path d="M160.764 200.157C160.777 200.647 160.642 201.129 160.379 201.541C160.116 201.954 159.736 202.279 159.287 202.475C158.839 202.671 158.342 202.728 157.86 202.64C157.379 202.552 156.935 202.322 156.584 201.981C156.234 201.639 155.993 201.2 155.893 200.721C155.793 200.242 155.838 199.744 156.023 199.291C156.207 198.837 156.522 198.449 156.928 198.176C157.335 197.902 157.813 197.756 158.302 197.756C158.622 197.752 158.939 197.811 159.235 197.929C159.532 198.048 159.802 198.224 160.031 198.447C160.259 198.67 160.442 198.936 160.568 199.229C160.694 199.523 160.76 199.838 160.764 200.157Z" fill="#BBBBF9"/>
<path d="M35.4723 104.654C35.1305 107.68 35.6739 110.741 37.0364 113.465C38.399 116.189 40.5224 118.459 43.1492 120C45.776 121.542 48.7935 122.288 51.836 122.15C54.8785 122.011 57.8155 120.992 60.2909 119.218C62.7664 117.443 64.674 114.989 65.7828 112.153C66.8915 109.316 67.1537 106.218 66.5376 103.236C65.9215 100.253 64.4535 97.513 62.3116 95.3477C60.1696 93.1825 57.4457 91.6849 54.4698 91.0366C50.1473 90.3418 45.7254 91.3831 42.1672 93.9336C38.6089 96.4842 36.2026 100.337 35.4723 104.654Z" fill="#FF8C64"/>
<path d="M69.2118 117.511C67.7561 129.726 64.6899 141.694 60.093 153.104C59.2723 155.171 58.4212 157.147 57.5701 159.184C57.5025 159.253 57.4507 159.336 57.4182 159.427C55.2905 163.986 53.1019 168.181 50.9134 171.889C46.05 170.734 41.2171 169.609 36.3538 168.515C36.3538 166.783 36.3538 164.442 36.3538 161.615C36.3538 160.795 36.3538 160.004 36.3538 159.214C36.3538 156.326 36.3538 153.834 36.3538 151.706C36.229 147.478 36.3508 143.245 36.7185 139.031C36.7185 138.849 36.7185 138.636 36.9313 137.42C38.2687 128.94 39.4541 122.222 40.3052 117.723L69.2118 117.511Z" fill="#FF8C64"/>
<path d="M21.1253 230.128L27.6604 232.012C32.7078 210.993 40.495 190.728 50.8221 171.737L36.3233 168.363C33.7982 171.387 31.5213 174.609 29.5146 177.999C26.61 182.53 24.3684 187.453 22.8579 192.619C20.2742 202.528 23.5569 206.419 22.0371 222.833C21.7635 225.964 21.3988 228.456 21.1253 230.128Z" fill="#FF8C64"/>
<path d="M58.1476 159.275H57.3574H56.02L36.2017 159.001C36.2017 156.113 36.2017 153.621 36.2017 151.493L57.4789 158.971L58.1476 159.275Z" fill="#122275"/>
<path d="M56.0199 159.367L30.0921 151.068L36.1713 116.691C34.5273 112.562 34.2916 108.007 35.5006 103.731C36.7097 99.4557 39.296 95.6984 42.8584 93.0425C46.0381 90.7519 49.8314 89.4668 53.7486 89.353C57.6659 89.2392 61.5273 90.302 64.8347 92.4042C69.0128 95.4384 71.9247 99.9074 73.0128 104.955C74.1009 110.003 73.2886 115.275 70.7315 119.761C65.8682 132.912 60.9643 146.114 56.0199 159.367Z" fill="#5B98E8"/>
<path d="M49.5457 111.919C49.6575 114.965 50.6508 117.912 52.405 120.404C54.1593 122.896 56.5991 124.826 59.4284 125.958C62.2577 127.091 65.3549 127.378 68.3443 126.785C71.3336 126.192 74.0866 124.744 76.2692 122.617C78.4518 120.49 79.9702 117.775 80.6401 114.802C81.3101 111.829 81.1028 108.726 80.0435 105.868C78.9842 103.011 77.1182 100.522 74.6722 98.7039C72.2261 96.886 69.3051 95.817 66.2634 95.6267C61.8907 95.586 57.6791 97.2759 54.5473 100.328C51.4156 103.38 49.6177 107.547 49.5457 111.919Z" fill="#FF8C64"/>
<path d="M52.4635 234.11L59.2114 234.991C60.2435 222.608 62.2251 210.322 65.1386 198.243C67.2635 189.323 69.9022 180.534 73.0415 171.92L58.1779 170.765C56.1463 174.139 54.3781 177.665 52.8891 181.312C50.7037 186.223 49.2397 191.424 48.5424 196.753C47.4481 206.936 51.278 210.31 52.2507 226.754C52.4331 229.854 52.4635 232.438 52.4635 234.11Z" fill="#FF8C64"/>
<path d="M79.3334 152.102C79.3334 152.527 79.1206 152.953 79.1206 152.953C77.5388 159.409 75.5074 165.747 73.0414 171.92L58.1474 170.795C57.9042 169.093 57.5091 166.783 57.0531 164.017C56.5972 161.251 56.2932 159.518 55.9893 157.634C55.6245 155.172 55.2597 153.074 55.0166 151.311C54.3184 147.582 53.9523 143.798 53.9224 140.004C54.0421 135.358 54.7781 130.748 56.1109 126.295C60.3055 124.472 64.8041 122.648 69.5459 120.915C74.2876 119.183 78.4823 117.876 82.7074 116.478C82.5401 128.424 81.4117 140.337 79.3334 152.102Z" fill="#FF8C64"/>
<path d="M79.1207 153.013L55.9894 157.694C55.6246 155.232 55.2598 153.135 55.0167 151.372L79.1207 153.013Z" fill="#122275"/>
<path d="M81.5526 152.77L53.2235 155.08C51.5618 142.921 49.8799 130.763 48.1777 118.605C41.2779 111.127 40.6092 100.61 45.6549 94.2878C50.7007 87.9654 59.5763 87.6311 65.1388 89.1205C69.4694 90.4452 73.3159 93.012 76.2013 96.5025C79.0866 99.993 80.8839 104.254 81.3702 108.756C82.2312 112.983 82.8502 117.256 83.2243 121.553C84.0877 131.986 83.5253 142.488 81.5526 152.77Z" fill="#5B98E8"/>
<path d="M53.2233 155.445C53.1363 155.446 53.0517 155.416 52.9848 155.36C52.9179 155.305 52.8731 155.227 52.8586 155.141L46.7794 120.49C43.6202 118.362 41.2656 115.237 40.0922 111.614C39.2407 108.437 39.284 105.086 40.2174 101.932C41.1507 98.7779 42.9379 95.9432 45.3812 93.7411C45.4151 93.7071 45.4553 93.6801 45.4997 93.6617C45.544 93.6433 45.5915 93.6338 45.6396 93.6338C45.6876 93.6338 45.7351 93.6433 45.7794 93.6617C45.8238 93.6801 45.864 93.7071 45.8979 93.7411C45.9685 93.8146 46.0079 93.9127 46.0079 94.0146C46.0079 94.1166 45.9685 94.2146 45.8979 94.2882C43.559 96.3973 41.8475 99.111 40.9519 102.13C40.0562 105.15 40.0113 108.358 40.8218 111.401C41.9597 114.912 44.2662 117.926 47.3569 119.942C47.4246 120.012 47.4764 120.094 47.5089 120.186L53.5881 155.019C53.6018 155.068 53.6046 155.119 53.5961 155.168C53.5875 155.218 53.5678 155.264 53.5386 155.305C53.5094 155.346 53.4714 155.38 53.4273 155.404C53.3833 155.428 53.3343 155.442 53.2841 155.445H53.2233Z" fill="#BBBBF9"/>
<path d="M144.047 71.3399C143.773 73.0421 143.469 74.7443 143.195 76.4769C143.013 77.5711 142.861 78.6958 142.648 79.8204C141.608 79.413 140.511 79.167 139.396 79.0909C138.259 78.9759 137.11 79.0375 135.992 79.2733C135.725 79.3196 135.461 79.3805 135.201 79.4557L134.381 79.6988C132.134 80.4675 130.152 81.859 128.666 83.7111L128.332 84.1063C128.113 84.4095 127.91 84.724 127.724 85.0485L126.873 85.8692L113.195 99.0611C108.682 98.396 104.136 97.99 99.5771 97.8453C94.046 97.5326 88.4977 97.9413 83.0721 99.0611C78.6343 100.064 74.1357 100.581 69.6371 101.371C66.5584 102.07 63.3943 102.315 60.2447 102.101L50.4572 93.9241C50.7527 91.4032 51.6152 88.9819 52.9801 86.8419C57.4179 79.8812 106.082 66.2638 113.985 65.3823C117.762 65.0095 121.575 65.4447 125.171 66.6589L131.037 68.118L144.047 71.3399Z" fill="#FF8C64"/>
<path d="M105.778 87.0242C104.251 87.2092 102.813 87.8426 101.646 88.8443C100.479 89.8461 99.6345 91.1714 99.2201 92.6527C98.8057 94.1339 98.8396 95.7049 99.3175 97.1669C99.7954 98.629 100.696 99.9166 101.905 100.867C103.115 101.818 104.579 102.388 106.112 102.507C107.646 102.626 109.18 102.288 110.522 101.535C111.863 100.782 112.951 99.6491 113.649 98.2782C114.346 96.9073 114.622 95.3604 114.441 93.8329C114.321 92.8166 114.001 91.8339 113.5 90.9413C112.999 90.0488 112.327 89.2637 111.522 88.6313C110.717 87.9988 109.796 87.5313 108.81 87.2555C107.825 86.9798 106.794 86.9012 105.778 87.0242Z" fill="#FF8C64"/>
<path d="M131.189 66.9929C130.338 72.1602 129.487 77.3275 128.666 82.5253L128.484 82.738L128.332 82.9204C128.332 83.1636 128.636 83.6803 128.666 83.7107C129.7 85.0481 114.654 99.3038 114.654 99.3038C110.368 103.347 109.912 104.319 107.693 105.109C105.498 105.708 103.204 105.852 100.952 105.534C98.6989 105.215 96.5351 104.44 94.5925 103.255C91.811 104.527 89.3207 106.357 87.2762 108.632C85.2317 110.906 83.6766 113.577 82.7077 116.478C73.5043 116.178 64.5841 113.222 57.023 107.967C53.3755 105.292 47.3571 100.915 47.0227 94.3797C46.9727 93.0008 47.1577 91.6234 47.5699 90.3066C53.3682 83.8901 60.3702 78.6748 68.1784 74.9567C74.8655 71.9171 74.2576 73.528 93.0727 68.4215C116.478 62.0384 121.463 62.7071 125.748 64.2269C127.681 64.8928 129.512 65.8237 131.189 66.9929Z" fill="#FFC5D2"/>
<path d="M130.551 75.4736C129.852 84.0756 129.092 92.6777 128.362 101.28L127.602 110.125L118.484 107.085C118.484 105.839 118.21 104.532 118.088 103.164C117.967 101.796 118.088 101.249 117.936 100.125C117.631 94.6934 117.743 89.2467 118.271 83.8325C118.605 80.2761 119.091 76.963 119.699 73.8626C120.619 72.9908 121.754 72.3793 122.988 72.0908C124.222 71.8024 125.51 71.8474 126.721 72.2212C128.362 72.7828 129.731 73.9447 130.551 75.4736Z" fill="#FF8C64"/>
<path d="M128.332 101.341L118.21 103.165C118.21 102.222 118.21 101.25 118.058 100.125L128.332 101.341Z" fill="#122275"/>
<path d="M128.362 101.341L114.38 100.794C115.14 92.5866 115.93 84.4101 116.69 76.2336C117.18 74.5992 118.184 73.1664 119.553 72.1478C120.922 71.1292 122.583 70.5791 124.289 70.5791C125.995 70.5791 127.656 71.1292 129.025 72.1478C130.394 73.1664 131.398 74.5992 131.888 76.2336C130.824 84.5317 129.7 92.921 128.362 101.341Z" fill="#FFC5D2"/>
<path d="M115.322 100.854C115.27 100.86 115.218 100.853 115.169 100.835C115.12 100.816 115.076 100.787 115.04 100.748C115.005 100.71 114.979 100.664 114.965 100.613C114.95 100.563 114.948 100.51 114.958 100.459L116.295 81.9781C116.295 81.7653 116.477 81.6437 116.69 81.6133C116.787 81.6271 116.876 81.674 116.943 81.746C117.009 81.818 117.049 81.9107 117.055 82.0084L115.718 100.489C115.71 100.589 115.665 100.682 115.592 100.749C115.518 100.817 115.422 100.854 115.322 100.854Z" fill="#BBBBF9"/>
<path d="M110.702 103.53C110.613 103.553 110.518 103.553 110.429 103.53C110.358 103.456 110.319 103.358 110.319 103.256C110.319 103.154 110.358 103.056 110.429 102.983L114.35 99.1526C114.426 99.1028 114.516 99.0807 114.607 99.09C114.697 99.0993 114.782 99.1394 114.846 99.2036C114.91 99.2679 114.95 99.3523 114.96 99.4426C114.969 99.533 114.947 99.6238 114.897 99.6998L110.945 103.53C110.865 103.548 110.782 103.548 110.702 103.53Z" fill="#BBBBF9"/>
<path d="M94.5924 103.651C94.4931 103.679 94.3877 103.679 94.2884 103.651L92.5862 101.645C92.5156 101.571 92.4762 101.473 92.4762 101.371C92.4762 101.269 92.5156 101.171 92.5862 101.098C92.6201 101.064 92.6603 101.037 92.7047 101.018C92.749 101 92.7965 100.99 92.8446 100.99C92.8926 100.99 92.9401 101 92.9844 101.018C93.0288 101.037 93.069 101.064 93.1029 101.098L94.8355 103.073C94.8998 103.15 94.9351 103.247 94.9351 103.347C94.9351 103.447 94.8998 103.544 94.8355 103.62L94.5924 103.651Z" fill="#BBBBF9"/>
<path d="M139.396 79.0902C138.259 78.9753 137.11 79.0368 135.992 79.2726C135.725 79.319 135.461 79.3798 135.201 79.455C135.238 78.7838 135.425 78.1295 135.748 77.54C136.599 75.8683 138.058 74.8956 139.062 75.4123C140.065 75.9291 140.125 77.5096 139.396 79.0902Z" fill="#122275"/>
<path d="M137.967 69.8193C137.423 72.163 137.027 74.5386 136.782 76.932C136.616 78.8423 136.791 80.767 137.299 82.616C137.362 82.9923 137.503 83.3512 137.713 83.6703C137.922 83.9894 138.195 84.2617 138.514 84.4702C138.844 84.6206 139.201 84.6985 139.563 84.6985C139.925 84.6985 140.283 84.6206 140.612 84.4702C140.689 84.4656 140.767 84.4767 140.84 84.5029C140.913 84.529 140.98 84.5696 141.037 84.6222C141.25 84.8958 141.037 85.2605 141.372 85.5645C141.514 85.7119 141.697 85.8137 141.897 85.857C142.097 85.9003 142.306 85.8831 142.496 85.8076C142.658 85.7001 142.777 85.5385 142.831 85.3517C142.95 85.5633 143.116 85.7446 143.316 85.8817C143.516 86.0187 143.746 86.1078 143.986 86.142C144.113 86.1567 144.242 86.1425 144.363 86.1004C144.484 86.0583 144.594 85.9894 144.685 85.8988C144.937 85.6237 145.212 85.3696 145.506 85.1389C147.154 83.7622 149.256 83.0473 151.402 83.1328C151.554 83.1328 152.071 83.1328 152.801 83.2848H153.561C155.015 83.1984 156.434 82.8047 157.725 82.1297C159.553 81.1754 161.155 79.8407 162.424 78.2154C163.692 76.59 164.598 74.7118 165.081 72.707C166.084 67.5396 163.682 60.0318 157.755 57.9953C155.048 57.3333 152.202 57.5376 149.617 58.5791C147.032 59.6207 144.839 61.4471 143.347 63.8009C142.229 66.3369 140.349 68.4617 137.967 69.8801V69.8193Z" fill="#FF8C64"/>
<path d="M145.749 84.3796C146.003 84.5499 146.211 84.7794 146.357 85.0484C146.57 85.3827 146.357 85.5651 146.722 85.8386C146.899 86.042 147.131 86.1898 147.39 86.2642C147.675 86.3662 147.987 86.3662 148.272 86.2642C148.626 86.0408 148.886 85.6945 149.001 85.2915C149.496 84.3484 150.23 83.5518 151.129 82.9814H148.272L145.749 84.3796Z" fill="#FF8C64"/>
<path d="M152.709 82.4647C152.636 82.4628 152.564 82.4385 152.504 82.3951C152.445 82.3517 152.4 82.2912 152.375 82.2216C152.103 81.6123 151.788 81.0232 151.433 80.4586C151.027 79.808 150.548 79.2063 150.004 78.6652C149.97 78.6313 149.943 78.5911 149.925 78.5468C149.906 78.5024 149.897 78.4549 149.897 78.4069C149.897 78.3589 149.906 78.3113 149.925 78.267C149.943 78.2227 149.97 78.1824 150.004 78.1485C150.036 78.1103 150.075 78.0796 150.12 78.0585C150.164 78.0373 150.213 78.0264 150.263 78.0264C150.312 78.0264 150.361 78.0373 150.405 78.0585C150.45 78.0796 150.49 78.1103 150.521 78.1485C151.102 78.724 151.612 79.3669 152.041 80.0634C152.434 80.6478 152.77 81.2687 153.044 81.9176C153.077 82.0149 153.073 82.1208 153.034 82.2158C152.995 82.3108 152.923 82.3884 152.831 82.4343L152.709 82.4647Z" fill="#122275"/>
<path d="M151.25 80.3065C150.521 80.3065 150.004 81.0056 150.126 81.492C150.247 81.9783 150.916 82.2822 151.646 82.1303C152.375 81.9783 152.892 81.4312 152.801 80.9144C152.71 80.3977 151.98 80.0634 151.25 80.3065Z" fill="#122275"/>
<path d="M142.8 84.9872C142.741 84.9885 142.682 84.9753 142.63 84.9488C142.577 84.9223 142.531 84.8834 142.496 84.8353C142.35 84.648 142.245 84.4322 142.188 84.2019C142.13 83.9716 142.121 83.7318 142.162 83.4978C142.22 83.2188 142.346 82.958 142.527 82.7379C142.6 82.6674 142.698 82.6279 142.8 82.6279C142.902 82.6279 143 82.6674 143.074 82.7379C143.108 82.7718 143.135 82.8121 143.153 82.8564C143.172 82.9007 143.181 82.9483 143.181 82.9963C143.181 83.0443 143.172 83.0918 143.153 83.1362C143.135 83.1805 143.108 83.2208 143.074 83.2547C142.973 83.3797 142.901 83.5248 142.861 83.6802C142.837 83.9416 142.913 84.2024 143.074 84.4097C143.108 84.4436 143.135 84.4839 143.153 84.5282C143.172 84.5725 143.181 84.6201 143.181 84.6681C143.181 84.7161 143.172 84.7636 143.153 84.808C143.135 84.8523 143.108 84.8926 143.074 84.9265C143.035 84.9558 142.991 84.9764 142.944 84.9869C142.897 84.9974 142.848 84.9975 142.8 84.9872Z" fill="#EA522F"/>
<path d="M143.986 84.7746C143.437 84.313 142.919 83.8155 142.436 83.2852C142.357 83.6384 142.351 84.0041 142.419 84.3596C142.487 84.7151 142.627 85.053 142.831 85.3521C142.831 85.3521 143.5 86.2336 144.199 86.1424C144.898 86.0512 144.837 85.96 144.867 85.7168C144.898 85.4737 144.503 85.1697 143.986 84.7746Z" fill="#EA522F"/>
<path d="M156.631 80.792C156.667 80.9716 156.664 81.1569 156.622 81.3352C156.58 81.5135 156.5 81.6807 156.388 81.8254C156.287 81.9441 156.161 82.0385 156.019 82.1016C155.877 82.1648 155.722 82.195 155.567 82.1902L156.631 80.792Z" fill="#122275"/>
<path d="M156.6 80.6406L156.053 81.2789C155.688 81.7348 155.688 81.8564 155.567 81.8564C155.445 81.8564 155.172 80.1238 154.503 78.4521C154.102 77.4808 153.537 76.5862 152.831 75.8076C153.084 75.8418 153.329 75.9134 153.561 76.0204C155.749 77.0234 156.479 80.063 156.6 80.6406Z" fill="#122275"/>
<path d="M141.128 84.927C141.029 84.9273 140.933 84.8898 140.859 84.8221C140.786 84.7545 140.741 84.6616 140.733 84.5622V83.6503C140.729 83.5999 140.735 83.5492 140.752 83.5014C140.768 83.4535 140.794 83.4097 140.829 83.3725C140.863 83.3354 140.905 83.3058 140.951 83.2856C140.997 83.2654 141.047 83.255 141.098 83.2552C141.148 83.251 141.199 83.2572 141.247 83.2737C141.295 83.2901 141.339 83.3163 141.376 83.3506C141.413 83.3849 141.443 83.4266 141.463 83.4729C141.483 83.5193 141.493 83.5693 141.493 83.6199V84.5318C141.497 84.5822 141.491 84.6329 141.475 84.6807C141.458 84.7286 141.432 84.7725 141.398 84.8096C141.363 84.8468 141.322 84.8764 141.275 84.8966C141.229 84.9168 141.179 84.9271 141.128 84.927Z" fill="#EA522F"/>
<path d="M164.625 65.8065C166.996 72.4937 164.382 80.1838 162.375 80.3358C161.251 80.3358 161.342 78.1169 158.91 76.2931C155.324 73.5575 151.798 76.1108 146.053 74.2566C144.807 73.8615 139.73 72.2201 139.062 69.0893C138.028 64.1348 147.907 54.6512 156.296 56.9309C158.261 57.6908 160.03 58.8831 161.472 60.4195C162.914 61.956 163.991 63.7971 164.625 65.8065Z" fill="#3F469A"/>
<path d="M79.6072 248.152H49.8192C49.6539 248.179 49.4847 248.17 49.3234 248.125C49.162 248.081 49.0122 248.001 48.8846 247.893C48.7569 247.784 48.6545 247.649 48.5841 247.497C48.5138 247.345 48.4774 247.18 48.4774 247.012C48.4774 246.845 48.5138 246.68 48.5841 246.528C48.6545 246.376 48.7569 246.241 48.8846 246.132C49.0122 246.024 49.162 245.944 49.3234 245.9C49.4847 245.855 49.6539 245.846 49.8192 245.873H79.6072C79.7725 245.846 79.9417 245.855 80.1031 245.9C80.2645 245.944 80.4141 246.024 80.5418 246.132C80.6694 246.241 80.772 246.376 80.8423 246.528C80.9126 246.68 80.949 246.845 80.949 247.012C80.949 247.18 80.9126 247.345 80.8423 247.497C80.772 247.649 80.6694 247.784 80.5418 247.893C80.4141 248.001 80.2645 248.081 80.1031 248.125C79.9417 248.17 79.7725 248.179 79.6072 248.152Z" fill="#5B98E8"/>
<path d="M80.7621 247.636H63.3755L64.6522 238.274L71.7649 238.639C74.1413 238.671 76.4115 239.629 78.092 241.309C79.7726 242.99 80.7306 245.26 80.7621 247.636Z" fill="#5B98E8"/>
<path d="M43.4663 250.918L14.6205 243.41C14.3252 243.325 14.0745 243.128 13.9214 242.862C13.7683 242.595 13.7247 242.28 13.7998 241.982C13.8784 241.689 14.0691 241.438 14.3308 241.285C14.5924 241.131 14.9038 241.087 15.198 241.161L44.0438 248.699C44.206 248.721 44.3617 248.777 44.5007 248.863C44.6397 248.949 44.7588 249.064 44.85 249.2C44.9413 249.336 45.0026 249.489 45.0301 249.65C45.0575 249.812 45.0505 249.977 45.0093 250.135C44.9681 250.293 44.8937 250.441 44.7911 250.569C44.6885 250.696 44.56 250.8 44.4141 250.874C44.2683 250.948 44.1084 250.99 43.945 250.998C43.7816 251.006 43.6184 250.978 43.4663 250.918Z" fill="#5B98E8"/>
<path d="M44.5909 250.706L27.7515 246.329L31.3687 237.575L38.147 239.703C40.446 240.331 42.4076 241.834 43.612 243.891C44.8164 245.948 45.1678 248.394 44.5909 250.706Z" fill="#5B98E8"/>
<path d="M64.0141 47.7519C63.1867 44.0125 63.1655 40.1398 63.9519 36.3916C64.7382 32.6434 66.314 29.1058 68.5744 26.0142C70.8349 22.9226 73.7281 20.3481 77.0612 18.4621C80.3944 16.5761 84.0912 15.4218 87.9053 15.0762L88.0573 16.5656C84.3868 16.9653 80.8406 18.1293 77.6472 19.9825C74.4538 21.8358 71.6839 24.3372 69.5158 27.3258C67.526 30.2365 66.1449 33.5194 65.4554 36.9772C64.766 40.4351 64.7823 43.9965 65.5035 47.4479L64.0141 47.7519Z" fill="#5B98E8"/>
<path d="M89.8203 39.9099H88.3005V33.4964C88.3005 21.338 88.3005 16.3226 88.3005 6.71751V0H89.8203V6.71751C89.8203 16.353 89.8203 21.4596 89.8203 33.4964V39.9099Z" fill="#5B98E8"/>
<path d="M112.83 50.6395L111.341 50.2747C113.041 43.3915 112.052 36.1187 108.575 29.9398C106.349 26.3065 103.337 23.2187 99.7596 20.904C96.1824 18.5894 92.1315 17.1068 87.9053 16.5656L88.0572 15.0762C92.5196 15.6407 96.7979 17.2013 100.576 19.6426C104.353 22.0839 107.534 25.3434 109.882 29.1799C113.563 35.6959 114.618 43.3719 112.83 50.6395Z" fill="#5B98E8"/>
<path d="M66.3239 40.5477L68.6036 45.1678C68.746 45.4563 68.9556 45.7063 69.2148 45.8967C69.474 46.0872 69.7753 46.2125 70.0931 46.2621L75.1692 46.9916C75.5347 47.0442 75.8783 47.1982 76.1608 47.4361C76.4433 47.674 76.6534 47.9864 76.7673 48.3377C76.8813 48.689 76.8944 49.0653 76.8054 49.4237C76.7163 49.7821 76.5286 50.1085 76.2635 50.3656L72.5855 53.9523C72.3605 54.1822 72.1914 54.4607 72.0912 54.7665C71.9911 55.0722 71.9626 55.3968 72.0079 55.7153L72.8895 60.761C72.9459 61.1255 72.9008 61.4985 72.759 61.839C72.6173 62.1795 72.3843 62.4744 72.0859 62.6911C71.7874 62.9079 71.435 63.0382 71.0673 63.0677C70.6997 63.0972 70.331 63.0247 70.0018 62.8583L65.4728 60.457C65.1866 60.3079 64.8686 60.23 64.5458 60.23C64.223 60.23 63.905 60.3079 63.6187 60.457L59.0896 62.8583C58.7605 63.0247 58.3919 63.0972 58.0242 63.0677C57.6565 63.0382 57.3041 62.9079 57.0057 62.6911C56.7072 62.4744 56.4743 62.1795 56.3325 61.839C56.1907 61.4985 56.1456 61.1255 56.2021 60.761L57.0835 55.7153C57.1289 55.3968 57.1004 55.0722 57.0003 54.7665C56.9001 54.4607 56.7311 54.1822 56.5061 53.9523L52.8281 50.3656C52.5629 50.1085 52.3752 49.7821 52.2862 49.4237C52.1971 49.0653 52.2103 48.689 52.3242 48.3377C52.4381 47.9864 52.6483 47.674 52.9308 47.4361C53.2133 47.1982 53.5568 47.0442 53.9224 46.9916L58.9985 46.2621C59.3146 46.2078 59.6138 46.0807 59.8723 45.8907C60.1308 45.7008 60.3416 45.4533 60.4879 45.1678L62.8284 40.5477C63.003 40.2378 63.2569 39.9799 63.564 39.8004C63.8711 39.6209 64.2205 39.5264 64.5762 39.5264C64.9319 39.5264 65.2812 39.6209 65.5883 39.8004C65.8954 39.9799 66.1493 40.2378 66.3239 40.5477Z" fill="#E3E3FD"/>
<path d="M90.3673 31.8547L92.0087 35.1375C92.1011 35.3482 92.2487 35.5301 92.436 35.6639C92.6233 35.7977 92.8433 35.8783 93.0726 35.8974L96.6897 36.4445C96.9501 36.482 97.1945 36.5921 97.3951 36.7623C97.5957 36.9325 97.7441 37.1558 97.8235 37.4066C97.9028 37.6573 97.9098 37.9254 97.8437 38.18C97.7776 38.4345 97.641 38.6653 97.4496 38.8458L94.8355 41.399C94.6709 41.5572 94.5485 41.7542 94.4794 41.9719C94.4104 42.1895 94.397 42.4211 94.4404 42.6453L95.0483 46.2624C95.097 46.5217 95.0713 46.7896 94.9742 47.035C94.8771 47.2803 94.7125 47.4932 94.4995 47.649C94.2865 47.8048 94.0337 47.8971 93.7705 47.9153C93.5072 47.9335 93.2442 47.8768 93.0118 47.7518L89.7594 46.0496C89.5572 45.9456 89.3332 45.8914 89.1059 45.8914C88.8785 45.8914 88.6545 45.9456 88.4524 46.0496L85.2304 47.7518C84.996 47.8728 84.7327 47.9266 84.4696 47.9071C84.2065 47.8876 83.9539 47.7956 83.7399 47.6414C83.5259 47.4872 83.3586 47.2767 83.2569 47.0333C83.1552 46.7899 83.1229 46.523 83.1635 46.2624L83.7715 42.6453C83.8149 42.4211 83.8014 42.1895 83.7324 41.9719C83.6634 41.7542 83.5409 41.5572 83.3763 41.399L80.7622 38.8458C80.5701 38.6633 80.4339 38.4301 80.3692 38.1733C80.3046 37.9164 80.3142 37.6465 80.397 37.3949C80.4798 37.1433 80.6324 36.9204 80.8369 36.7521C81.0415 36.5839 81.2897 36.4772 81.5525 36.4445L85.1696 35.8974C85.3963 35.8696 85.6124 35.7855 85.7982 35.6527C85.984 35.52 86.1337 35.3429 86.2335 35.1375L87.8445 31.8547C87.9662 31.6258 88.1479 31.4343 88.3701 31.3008C88.5923 31.1672 88.8466 31.0967 89.1059 31.0967C89.3651 31.0967 89.6195 31.1672 89.8417 31.3008C90.064 31.4343 90.2456 31.6258 90.3673 31.8547Z" fill="#E3E3FD"/>
<path d="M113.043 45.1079L114.532 48.1475C114.622 48.3363 114.759 48.4993 114.929 48.6215C115.099 48.7437 115.297 48.8211 115.505 48.8466L118.787 49.3329C119.027 49.3621 119.254 49.4587 119.441 49.6116C119.628 49.7645 119.768 49.9673 119.844 50.1965C119.921 50.4256 119.93 50.6718 119.873 50.9064C119.815 51.1409 119.691 51.3542 119.517 51.5214L117.116 53.8619C116.966 54.0045 116.855 54.1819 116.791 54.3782C116.728 54.5745 116.714 54.7835 116.751 54.9866L117.328 58.2693C117.366 58.5073 117.337 58.7511 117.245 58.9736C117.152 59.1962 117 59.3888 116.805 59.5304C116.61 59.6719 116.38 59.7568 116.14 59.7756C115.899 59.7945 115.659 59.7465 115.444 59.6371L112.404 58.0869C112.224 57.9829 112.02 57.9281 111.812 57.9281C111.603 57.9281 111.399 57.9829 111.219 58.0869L108.179 59.6371C107.965 59.7465 107.724 59.7945 107.484 59.7756C107.243 59.7568 107.013 59.6719 106.818 59.5304C106.623 59.3888 106.471 59.1962 106.379 58.9736C106.286 58.7511 106.257 58.5073 106.295 58.2693L106.872 54.9866C106.909 54.7835 106.895 54.5745 106.832 54.3782C106.768 54.1819 106.657 54.0045 106.507 53.8619L104.106 51.5214C103.932 51.3542 103.809 51.1409 103.751 50.9064C103.693 50.6718 103.703 50.4256 103.779 50.1965C103.855 49.9673 103.995 49.7645 104.182 49.6116C104.369 49.4587 104.596 49.3621 104.836 49.3329L108.118 48.8466C108.326 48.8211 108.524 48.7437 108.694 48.6215C108.864 48.4993 109.001 48.3363 109.091 48.1475L110.581 45.1079C110.627 44.8146 110.776 44.5474 111.002 44.3545C111.228 44.1616 111.515 44.0557 111.812 44.0557C112.108 44.0557 112.396 44.1616 112.621 44.3545C112.847 44.5474 112.996 44.8146 113.043 45.1079Z" fill="#E3E3FD"/>
<path d="M91.2793 13.8604H86.1119V17.5079H91.2793V13.8604Z" fill="#5B98E8"/>
<path d="M192.619 245.661H226.967C227.273 245.661 227.567 245.539 227.784 245.322C228 245.106 228.122 244.812 228.122 244.506C228.122 244.199 228 243.905 227.784 243.689C227.567 243.472 227.273 243.351 226.967 243.351H192.619C192.313 243.351 192.019 243.472 191.803 243.689C191.586 243.905 191.464 244.199 191.464 244.506C191.464 244.812 191.586 245.106 191.803 245.322C192.019 245.539 192.313 245.661 192.619 245.661Z" fill="#3F469A"/>
<path d="M191.464 245.143H211.252L209.793 235.751L201.708 236.116C199.155 235.966 196.646 236.83 194.728 238.521C192.809 240.212 191.636 242.592 191.464 245.143Z" fill="#3F469A"/>
<path d="M240.919 245.661H275.145C275.451 245.661 275.745 245.539 275.961 245.322C276.178 245.106 276.3 244.812 276.3 244.506C276.3 244.199 276.178 243.905 275.961 243.689C275.745 243.472 275.451 243.351 275.145 243.351H240.919C240.612 243.351 240.318 243.472 240.102 243.689C239.885 243.905 239.764 244.199 239.764 244.506C239.764 244.812 239.885 245.106 240.102 245.322C240.318 245.539 240.612 245.661 240.919 245.661Z" fill="#3F469A"/>
<path d="M239.764 245.143H259.582L258.123 235.751L250.037 236.116C247.481 235.965 244.969 236.829 243.046 238.519C241.123 240.209 239.943 242.589 239.764 245.143Z" fill="#3F469A"/>
<path d="M231.131 226.845C227.768 228.062 224.298 228.958 220.766 229.52C217.46 230.049 214.114 230.293 210.766 230.25C214.218 216.173 215.782 201.699 215.416 187.209C214.839 165.932 210.128 153.287 211.982 128.271C212.501 121.126 213.465 114.019 214.869 106.994L239.976 93.7109C243.302 97.0459 245.438 101.382 246.056 106.052C246.527 109.682 246.034 113.372 244.627 116.751L233.776 176.358C236.119 182.301 237.495 188.581 237.849 194.96C238.463 205.995 236.145 216.996 231.131 226.845Z" fill="#3F469A"/>
<path d="M258.822 170.886C261.953 175.489 264.65 180.373 266.877 185.476C272.507 198.552 275.055 212.748 274.324 226.966L253.867 230.006L245.782 182.619C243.313 178.981 241.089 175.184 239.125 171.251C236.108 165.166 233.714 158.79 231.982 152.223C235.549 140.431 237.942 128.314 239.125 116.051C239.85 108.668 240.144 101.249 240.007 93.832C242.736 95.2465 245.145 97.2067 247.085 99.591C249.025 101.975 250.454 104.733 251.284 107.693C252.405 112.273 252.011 117.094 250.159 121.432C252.935 137.947 255.823 154.432 258.822 170.886Z" fill="#3F469A"/>
<path d="M236.086 163.683C235.812 163.683 235.66 163.41 235.721 163.227L243.381 123.044C243.416 122.96 243.479 122.89 243.56 122.847C243.64 122.804 243.733 122.791 243.823 122.808C243.913 122.826 243.993 122.875 244.051 122.945C244.109 123.016 244.141 123.105 244.141 123.196L236.39 163.349C236.379 163.429 236.344 163.504 236.29 163.564C236.236 163.624 236.164 163.665 236.086 163.683Z" fill="#BBBBF9"/>
<path d="M241.983 96.0214C239.528 104.447 234.136 111.715 226.785 116.508C220.799 120.257 213.845 122.17 206.784 122.01C204.338 111.456 201.345 101.036 197.817 90.7933C193.471 78.2093 189.732 69.9416 188.486 60.1845C188.087 57.4374 187.924 54.6613 187.999 51.8864C188.057 47.4974 188.576 43.1267 189.549 38.8465L190.036 36.8708C190.401 36.5668 190.705 36.2629 191.039 35.9285C194.078 33.1929 197.118 30.4269 200.158 27.6304L203.562 24.5908C208.352 26.2602 212.742 28.9104 216.45 32.3722C225.326 40.8223 226.116 50.9137 231.314 67.9051C234.213 77.5133 237.778 86.9081 241.983 96.0214Z" fill="#5B98E8"/>
<path d="M188.546 6.14055C190.157 8.14669 189.884 9.18014 192.042 12.6149C192.479 13.289 192.779 14.0432 192.923 14.8338C193.193 15.6739 193.193 16.5774 192.923 17.4175C192.392 18.3382 191.544 19.0342 190.537 19.3754C189.53 19.7165 188.434 19.6797 187.452 19.2716C185.355 18.2686 185.446 15.1378 184.048 15.077C183.197 15.077 183.136 16.232 181.92 16.688C179.853 17.4783 178.394 14.6818 174.99 14.5299C173.4 14.527 171.842 14.9692 170.491 15.8065C167.847 17.2655 167.634 18.8461 165.841 19.2716C164.998 19.3635 164.146 19.2119 163.386 18.8349C162.627 18.4578 161.991 17.871 161.555 17.1439C159.792 13.5268 165.688 5.86699 172.619 2.7666C174.697 1.71778 177.011 1.22556 179.336 1.33798C182.915 1.67513 186.221 3.39876 188.546 6.14055Z" fill="#3F469A"/>
<path d="M188.546 5.83562C190.157 7.81136 189.884 8.8752 192.042 12.2796C192.473 12.968 192.772 13.7308 192.923 14.5289C193.193 15.369 193.193 16.2724 192.923 17.1125C192.373 17.9783 191.535 18.6231 190.557 18.9342C189.58 19.2454 188.524 19.2031 187.574 18.8147C185.476 17.7812 185.568 14.6808 184.169 14.6201C183.318 14.6201 183.258 15.7447 182.042 16.231C179.975 16.9909 178.516 14.2249 175.111 14.0729C173.525 14.0642 171.968 14.4956 170.613 15.3192C167.968 16.7782 167.756 18.3588 165.962 18.8147C165.116 18.9075 164.26 18.753 163.5 18.37C162.739 17.987 162.106 17.3919 161.676 16.6566C159.913 13.0699 165.81 5.41008 172.741 2.27929C174.819 1.23047 177.133 0.738257 179.458 0.850676C183.021 1.26505 186.282 3.05356 188.546 5.83562Z" fill="#3F469A"/>
<path d="M187.026 14.6815C187.382 15.4429 187.433 16.3119 187.167 17.1092C186.901 17.9066 186.339 18.5716 185.598 18.9673C184.169 19.4233 182.558 18.2378 181.92 16.3229C181.556 15.5626 181.502 14.6909 181.769 13.8914C182.035 13.092 182.602 12.4272 183.349 12.037C184.747 11.5811 186.388 12.7665 187.026 14.6815Z" fill="#FF8C64"/>
<path d="M184.959 19.4535C184.717 19.4828 184.472 19.4828 184.23 19.4535C184.136 19.4252 184.056 19.3628 184.005 19.2785C183.954 19.1942 183.937 19.094 183.956 18.9976C183.991 18.9011 184.059 18.8202 184.148 18.77C184.238 18.7197 184.342 18.7034 184.443 18.724C184.781 18.8157 185.138 18.8157 185.476 18.724C185.857 18.5594 186.185 18.2941 186.426 17.9567C186.667 17.6193 186.812 17.2225 186.844 16.8091C186.844 16.7124 186.882 16.6196 186.951 16.5512C187.019 16.4828 187.112 16.4443 187.209 16.4443C187.306 16.4443 187.398 16.4828 187.467 16.5512C187.535 16.6196 187.574 16.7124 187.574 16.8091C187.522 17.3583 187.323 17.8832 186.996 18.3276C186.67 18.772 186.228 19.1192 185.719 19.3319C185.472 19.4019 185.217 19.4427 184.959 19.4535Z" fill="#EA522F"/>
<path d="M187.239 16.6265C187.189 16.6267 187.139 16.6164 187.092 16.5962C187.046 16.576 187.004 16.5463 186.97 16.5092C186.936 16.472 186.91 16.4281 186.893 16.3803C186.877 16.3325 186.87 16.2818 186.875 16.2314C186.882 15.8309 186.831 15.4316 186.723 15.0459C186.703 14.9495 186.721 14.8494 186.771 14.7651C186.822 14.6808 186.902 14.6183 186.996 14.59C187.044 14.5764 187.094 14.5728 187.144 14.5794C187.193 14.5859 187.241 14.6025 187.283 14.6281C187.326 14.6538 187.363 14.6879 187.392 14.7284C187.421 14.7689 187.442 14.8149 187.452 14.8636C187.572 15.32 187.634 15.7898 187.634 16.2618C187.635 16.3124 187.624 16.3624 187.604 16.4088C187.584 16.4551 187.554 16.4968 187.517 16.5311C187.48 16.5654 187.436 16.5916 187.388 16.608C187.34 16.6244 187.29 16.6307 187.239 16.6265Z" fill="#EA522F"/>
<path d="M186.875 14.6817C186.801 14.6797 186.73 14.6555 186.67 14.612C186.61 14.5686 186.565 14.5081 186.54 14.4385C185.902 12.9491 184.565 12.0372 183.501 12.402C183.256 12.4922 183.029 12.6261 182.832 12.7972C182.801 12.8353 182.761 12.8661 182.717 12.8872C182.672 12.9083 182.623 12.9193 182.574 12.9193C182.524 12.9193 182.475 12.9083 182.431 12.8872C182.386 12.8661 182.347 12.8353 182.315 12.7972C182.245 12.7236 182.205 12.6255 182.205 12.5236C182.205 12.4216 182.245 12.3236 182.315 12.25C182.579 11.9851 182.902 11.787 183.258 11.6725C184.115 11.5316 184.994 11.7066 185.732 12.165C186.47 12.6234 187.016 13.3341 187.27 14.165C187.301 14.258 187.297 14.3593 187.257 14.4492C187.218 14.5391 187.147 14.6111 187.057 14.6513L186.875 14.6817Z" fill="#EA522F"/>
<path d="M184.412 17.7207C184.36 17.7168 184.31 17.7028 184.263 17.6793C184.217 17.6558 184.175 17.6233 184.141 17.5838C184.108 17.5442 184.082 17.4984 184.066 17.4488C184.05 17.3993 184.043 17.3471 184.048 17.2951L184.291 13.7084C184.305 13.6145 184.353 13.5289 184.426 13.4675C184.499 13.4061 184.591 13.3729 184.686 13.3741C184.736 13.3739 184.787 13.3842 184.833 13.4044C184.879 13.4246 184.921 13.4542 184.955 13.4914C184.989 13.5286 185.016 13.5724 185.032 13.6203C185.049 13.6681 185.055 13.7188 185.051 13.7692L184.807 17.3559C184.8 17.4554 184.755 17.5483 184.682 17.6159C184.608 17.6836 184.512 17.721 184.412 17.7207Z" fill="#EA522F"/>
<path d="M184.413 15.6539C184.334 15.6845 184.248 15.6845 184.169 15.6539L183.227 14.8333C183.189 14.8013 183.158 14.7622 183.135 14.7182C183.112 14.6742 183.098 14.6261 183.094 14.5767C183.086 14.477 183.117 14.3779 183.182 14.3013C183.246 14.2247 183.338 14.1769 183.438 14.1684C183.538 14.1598 183.637 14.1912 183.713 14.2557L184.656 15.0764C184.69 15.1103 184.717 15.1506 184.735 15.1949C184.754 15.2393 184.763 15.2868 184.763 15.3348C184.763 15.3828 184.754 15.4303 184.735 15.4747C184.717 15.519 184.69 15.5593 184.656 15.5932C184.583 15.6374 184.498 15.6586 184.413 15.6539Z" fill="#EA522F"/>
<path d="M190.492 90.5804L202.194 89.9117C202.741 83.569 203.268 77.2061 203.775 70.823C203.775 69.5767 203.987 68.3305 204.109 67.0843C204.231 65.838 204.322 64.2878 204.413 62.8896C204.504 61.4914 204.595 60.9443 204.687 59.85L195.75 35.5332C195.044 35.8117 194.371 36.1685 193.744 36.5971C189.914 39.1807 187.665 44.9864 188.516 66.3244C188.516 66.8107 188.516 67.3274 188.516 67.8745V69.1816V70.4886C189.154 75.7775 189.671 82.5862 190.492 90.5804Z" fill="#FF8C64"/>
<path d="M188.698 67.9045L203.896 70.9441C203.896 69.6979 204.109 68.4516 204.231 67.2054C204.352 65.9591 204.443 64.409 204.535 63.0107C199.246 64.5913 193.957 66.2023 188.698 67.9045Z" fill="#122275"/>
<path d="M208.912 66.8407L187.209 67.9653C187.726 59.4848 188.273 50.974 188.79 42.4935C188.96 39.9995 190.079 37.6652 191.916 35.9696C193.753 34.274 196.169 33.3456 198.668 33.3747C200.806 33.5285 202.832 34.3882 204.427 35.8188C206.023 37.2493 207.098 39.1696 207.483 41.2776C207.97 49.8189 208.425 58.3298 208.912 66.8407Z" fill="#5B98E8"/>
<path d="M157.512 110.46L162.071 116.873C166.783 114.776 170.734 113.317 173.531 112.375C183.683 108.879 188.577 108.028 193.957 103.469C195.633 102.031 197.142 100.41 198.455 98.6356C203.015 94.5929 203.076 89.0001 200.948 87.1155C198.82 85.231 195.233 85.8997 191.829 88.4225C189.055 89.5897 186.381 90.9825 183.835 92.5868C174.534 98.4532 171.92 104.076 162.558 108.453C160.927 109.244 159.24 109.914 157.512 110.46Z" fill="#FF8C64"/>
<path d="M162.74 113.498C163 114.095 163.075 114.755 162.956 115.394C162.837 116.034 162.529 116.623 162.071 117.085C160.825 118.119 159.032 117.085 153.895 115.322C146.539 112.647 144.199 112.283 144.259 111.432C144.32 110.581 148.059 109.547 150.339 109.395C152.8 109.348 155.247 109.782 157.542 110.672C160.612 111.462 162.193 111.948 162.74 113.498Z" fill="#FF8C64"/>
</svg>
