<svg width="24" height="24" viewBox="0 0 24 24" fill="none" xmlns="http://www.w3.org/2000/svg">
<path d="M11.5 21.75C5.85 21.75 1.25 17.15 1.25 11.5C1.25 5.85 5.85 1.25 11.5 1.25C17.15 1.25 21.75 5.85 21.75 11.5C21.75 17.15 17.15 21.75 11.5 21.75ZM11.5 2.75C6.67 2.75 2.75 6.68 2.75 11.5C2.75 16.32 6.67 20.25 11.5 20.25C16.33 20.25 20.25 16.32 20.25 11.5C20.25 6.68 16.33 2.75 11.5 2.75Z" fill="#475467"/>
<path d="M20.9702 22.78C20.7802 22.78 20.5902 22.71 20.4402 22.56L17.88 19.84C17.59 19.55 17.59 19.07 17.88 18.78C18.17 18.49 18.65 18.49 18.94 18.78L21.5002 21.5C21.7902 21.79 21.7902 22.27 21.5002 22.56C21.3502 22.71 21.1602 22.78 20.9702 22.78Z" fill="#475467"/>
</svg>
