<svg width="24" height="24" viewBox="0 0 24 24" fill="none" xmlns="http://www.w3.org/2000/svg">
<path d="M20.75 0.75H3.25C1.875 0.75 0.75 1.875 0.75 3.25V20.75C0.75 22.125 1.875 23.25 3.25 23.25H20.75C22.125 23.25 23.25 22.125 23.25 20.75V3.25C23.25 1.875 22.125 0.75 20.75 0.75ZM13.25 18.25H7C6.3125 18.25 5.75 17.6875 5.75 17C5.75 16.3125 6.3125 15.75 7 15.75H13.25C13.9375 15.75 14.5 16.3125 14.5 17C14.5 17.6875 13.9375 18.25 13.25 18.25ZM17 13.25H7C6.3125 13.25 5.75 12.6875 5.75 12C5.75 11.3125 6.3125 10.75 7 10.75H17C17.6875 10.75 18.25 11.3125 18.25 12C18.25 12.6875 17.6875 13.25 17 13.25ZM17 8.25H7C6.3125 8.25 5.75 7.6875 5.75 7C5.75 6.3125 6.3125 5.75 7 5.75H17C17.6875 5.75 18.25 6.3125 18.25 7C18.25 7.6875 17.6875 8.25 17 8.25Z" fill="#EC407A"/>
</svg>
