<svg width="24" height="24" viewBox="0 0 24 24" fill="none" xmlns="http://www.w3.org/2000/svg">
<path d="M14.5 4.5C14.5 5.88071 13.3807 7 12 7C10.6193 7 9.5 5.88071 9.5 4.5C9.5 3.11929 10.6193 2 12 2C13.3807 2 14.5 3.11929 14.5 4.5Z" fill="#EC407A"/>
<path d="M4.02904 7.75974C4.16172 7.22363 4.70389 6.89659 5.24 7.02928C7.90111 7.68789 9.93407 8.00125 11.9567 7.99999C13.9809 7.99872 16.0438 7.68235 18.766 7.02771C19.3029 6.89857 19.8429 7.22919 19.9721 7.76617C20.1012 8.30314 19.7706 8.84313 19.2336 8.97227C17.6807 9.34573 16.3023 9.62063 14.9998 9.79167V13.9643L15.4972 20.9288C15.5366 21.4796 15.1219 21.9581 14.571 21.9975C14.0202 22.0368 13.5417 21.6221 13.5023 21.0712L13.1401 16H10.8595L10.4972 21.0712C10.4579 21.6221 9.97938 22.0368 9.4285 21.9975C8.87762 21.9581 8.46294 21.4796 8.50229 20.9288L8.99975 13.9643V9.80344C7.68939 9.63357 6.31078 9.35464 4.7595 8.9707C4.22339 8.83802 3.89635 8.29585 4.02904 7.75974Z" fill="#EC407A"/>
</svg>
