<svg width="24" height="24" viewBox="0 0 24 24" fill="none" xmlns="http://www.w3.org/2000/svg">
<path fill-rule="evenodd" clip-rule="evenodd" d="M17 4C19.7614 4 22 6.23858 22 9V15C22 17.7614 19.7614 20 17 20H7C4.23858 20 2 17.7614 2 15V9C2 6.23858 4.23858 4 7 4C7 3.44772 7.44771 3 8 3C8.55228 3 9 3.44772 9 4H15C15 3.44772 15.4477 3 16 3C16.5523 3 17 3.44772 17 4ZM8 7C7.44772 7 7 6.55228 7 6C5.34315 6 4 7.34315 4 9H20C20 7.34315 18.6569 6 17 6C17 6.55228 16.5523 7 16 7C15.4477 7 15 6.55228 15 6H9C9 6.55228 8.55228 7 8 7ZM4 11H20V15C20 16.6569 18.6569 18 17 18H7C5.34315 18 4 16.6569 4 15V11Z" fill="black"/>
</svg>
