<svg width="14" height="14" viewBox="0 0 14 14" fill="none" xmlns="http://www.w3.org/2000/svg">
<g clip-path="url(#clip0_429_12712)">
<path d="M5.0349 1.74615L4.53663 1.18559L4.53663 1.18559L5.0349 1.74615ZM8.9638 1.74615L9.46207 1.18559V1.18559L8.9638 1.74615ZM8.83794 1.63427L8.33967 2.19483V2.19483L8.83794 1.63427ZM5.16076 1.63427L5.65903 2.19483V2.19483L5.16076 1.63427ZM2.36831 12.2763L2.80915 11.6695L2.36831 12.2763ZM1.72305 11.631L2.32981 11.1902L1.72305 11.631ZM12.2756 11.631L11.6689 11.1902L12.2756 11.631ZM11.6304 12.2763L11.1896 11.6695L11.6304 12.2763ZM12.0827 4.65785V7.5833H13.5827V4.65785H12.0827ZM7.58268 12.0833H6.41602V13.5833H7.58268V12.0833ZM1.91602 7.5833V4.65785H0.416016V7.5833H1.91602ZM8.33967 2.19483L8.46552 2.3067L9.46207 1.18559L9.33621 1.07372L8.33967 2.19483ZM5.53317 2.3067L5.65903 2.19483L4.66249 1.07372L4.53663 1.18559L5.53317 2.3067ZM3.49056 3.0833C4.24356 3.0833 4.97038 2.80697 5.53317 2.3067L4.53663 1.18559C4.24841 1.44179 3.87619 1.5833 3.49056 1.5833V3.0833ZM8.46552 2.3067C9.02832 2.80697 9.75514 3.0833 10.5081 3.0833V1.5833C10.1225 1.5833 9.75029 1.44179 9.46207 1.18559L8.46552 2.3067ZM9.33621 1.07372C8.0035 -0.110916 5.9952 -0.110916 4.66249 1.07372L5.65903 2.19483C6.42341 1.51538 7.57528 1.51538 8.33967 2.19483L9.33621 1.07372ZM6.41602 12.0833C5.30564 12.0833 4.5331 12.0823 3.9402 12.018C3.36134 11.9553 3.04333 11.8397 2.80915 11.6695L1.92747 12.883C2.45998 13.2699 3.07215 13.4328 3.77863 13.5093C4.47108 13.5843 5.33905 13.5833 6.41602 13.5833V12.0833ZM0.416016 7.5833C0.416016 8.66027 0.414986 9.52824 0.490008 10.2207C0.566551 10.9272 0.729399 11.5393 1.11629 12.0718L2.32981 11.1902C2.15967 10.956 2.044 10.638 1.98128 10.0591C1.91705 9.46622 1.91602 8.69368 1.91602 7.5833H0.416016ZM2.80915 11.6695C2.62521 11.5359 2.46345 11.3741 2.32981 11.1902L1.11629 12.0718C1.34244 12.3831 1.61619 12.6569 1.92747 12.883L2.80915 11.6695ZM12.0827 7.5833C12.0827 8.69368 12.0817 9.46622 12.0174 10.0591C11.9547 10.638 11.839 10.956 11.6689 11.1902L12.8824 12.0718C13.2693 11.5393 13.4321 10.9272 13.5087 10.2207C13.5837 9.52824 13.5827 8.66027 13.5827 7.5833H12.0827ZM7.58268 13.5833C8.65965 13.5833 9.52762 13.5843 10.2201 13.5093C10.9265 13.4328 11.5387 13.2699 12.0712 12.883L11.1896 11.6695C10.9554 11.8397 10.6374 11.9553 10.0585 12.018C9.4656 12.0823 8.69306 12.0833 7.58268 12.0833V13.5833ZM11.6689 11.1902C11.5352 11.3741 11.3735 11.5359 11.1896 11.6695L12.0712 12.883C12.3825 12.6569 12.6563 12.3831 12.8824 12.0718L11.6689 11.1902ZM13.5827 4.65785C13.5827 2.95982 12.2062 1.5833 10.5081 1.5833V3.0833C11.3777 3.0833 12.0827 3.78825 12.0827 4.65785H13.5827ZM1.91602 4.65785C1.91602 3.78825 2.62096 3.0833 3.49056 3.0833V1.5833C1.79254 1.5833 0.416016 2.95982 0.416016 4.65785H1.91602ZM3.91602 7.5833C3.91602 9.28618 5.29647 10.6666 6.99935 10.6666V9.16664C6.1249 9.16664 5.41602 8.45775 5.41602 7.5833H3.91602ZM6.99935 10.6666C8.70223 10.6666 10.0827 9.28618 10.0827 7.5833H8.58268C8.58268 8.45775 7.8738 9.16664 6.99935 9.16664V10.6666ZM10.0827 7.5833C10.0827 5.88042 8.70223 4.49997 6.99935 4.49997V5.99997C7.8738 5.99997 8.58268 6.70885 8.58268 7.5833H10.0827ZM6.99935 4.49997C5.29647 4.49997 3.91602 5.88042 3.91602 7.5833H5.41602C5.41602 6.70885 6.1249 5.99997 6.99935 5.99997V4.49997Z" fill="white"/>
<path d="M9.91602 4.66665C9.91602 4.98881 10.1772 5.24998 10.4993 5.24998C10.8215 5.24998 11.0827 4.98881 11.0827 4.66665C11.0827 4.34448 10.8215 4.08331 10.4993 4.08331C10.1772 4.08331 9.91602 4.34448 9.91602 4.66665Z" fill="white"/>
</g>
<defs>
<clipPath id="clip0_429_12712">
<rect width="14" height="14" fill="white"/>
</clipPath>
</defs>
</svg>
