<svg width="18" height="21" viewBox="0 0 18 21" fill="none" xmlns="http://www.w3.org/2000/svg">
<path d="M4.53418 4.65479V2.6626C4.53418 1.79932 4.74723 1.14909 5.17334 0.711914C5.60498 0.27474 6.24967 0.0561523 7.10742 0.0561523H10.2866C10.7349 0.0561523 11.1361 0.119792 11.4902 0.24707C11.8444 0.368815 12.1681 0.581868 12.4614 0.88623L16.6533 5.14453C16.9632 5.46549 17.179 5.80306 17.3008 6.15723C17.4225 6.51139 17.4834 6.94303 17.4834 7.45215V14.1924C17.4834 15.0557 17.2676 15.7059 16.8359 16.1431C16.4098 16.5802 15.7679 16.7988 14.9102 16.7988H13.2002V15.4624H14.8354C15.2671 15.4624 15.5936 15.3517 15.8149 15.1304C16.0363 14.9035 16.147 14.5825 16.147 14.1675V7.07031H12.2622C11.7863 7.07031 11.4294 6.9541 11.1914 6.72168C10.959 6.48926 10.8428 6.13232 10.8428 5.65088V1.39258H7.17383C6.74219 1.39258 6.41569 1.50602 6.19434 1.73291C5.97852 1.95426 5.87061 2.27246 5.87061 2.6875V4.65479H4.53418ZM12.0464 5.45166C12.0464 5.60107 12.0768 5.70898 12.1377 5.77539C12.2041 5.83626 12.3092 5.8667 12.4531 5.8667H15.7983L12.0464 2.04834V5.45166ZM0.508301 18.3345V6.80469C0.508301 5.94141 0.721354 5.29118 1.14746 4.854C1.5791 4.41683 2.2238 4.19824 3.08154 4.19824H6.01172C6.47656 4.19824 6.86117 4.24805 7.16553 4.34766C7.46989 4.44727 7.77979 4.66032 8.09521 4.98682L12.6689 9.64355C12.8903 9.87044 13.0563 10.0863 13.167 10.291C13.2832 10.4902 13.3607 10.7116 13.3994 10.9551C13.4382 11.1986 13.4575 11.4974 13.4575 11.8516V18.3345C13.4575 19.1978 13.2417 19.848 12.8101 20.2852C12.384 20.7223 11.742 20.9409 10.8843 20.9409H3.08154C2.2238 20.9409 1.5791 20.7223 1.14746 20.2852C0.721354 19.8535 0.508301 19.2033 0.508301 18.3345ZM1.84473 18.3096C1.84473 18.7246 1.95264 19.0428 2.16846 19.2642C2.38981 19.491 2.71354 19.6045 3.13965 19.6045H10.8179C11.244 19.6045 11.5677 19.491 11.7891 19.2642C12.0104 19.0428 12.1211 18.7246 12.1211 18.3096V11.918H7.43115C6.9165 11.918 6.52637 11.7879 6.26074 11.5278C6.00065 11.2677 5.87061 10.8748 5.87061 10.3491V5.53467H3.14795C2.71631 5.53467 2.38981 5.64811 2.16846 5.875C1.95264 6.09635 1.84473 6.41178 1.84473 6.82129V18.3096ZM7.58887 10.6646H11.8638L7.12402 5.8418V10.1997C7.12402 10.3657 7.15999 10.4847 7.23193 10.5566C7.30387 10.6286 7.42285 10.6646 7.58887 10.6646Z" fill="black"/>
</svg>
