<svg width="24" height="25" viewBox="0 0 24 25" fill="none" xmlns="http://www.w3.org/2000/svg">
<path d="M7 4.05859C7 3.52816 7.21071 3.01945 7.58579 2.64438C7.96086 2.26931 8.46957 2.05859 9 2.05859H15C15.5304 2.05859 16.0391 2.26931 16.4142 2.64438C16.7893 3.01945 17 3.52816 17 4.05859V6.05859H21C21.2652 6.05859 21.5196 6.16395 21.7071 6.35149C21.8946 6.53902 22 6.79338 22 7.05859C22 7.32381 21.8946 7.57816 21.7071 7.7657C21.5196 7.95324 21.2652 8.05859 21 8.05859H19.931L19.064 20.2006C19.0281 20.7052 18.8023 21.1774 18.4321 21.5222C18.0619 21.8669 17.5749 22.0586 17.069 22.0586H6.93C6.42414 22.0586 5.93707 21.8669 5.56688 21.5222C5.1967 21.1774 4.97092 20.7052 4.935 20.2006L4.07 8.05859H3C2.73478 8.05859 2.48043 7.95324 2.29289 7.7657C2.10536 7.57816 2 7.32381 2 7.05859C2 6.79338 2.10536 6.53902 2.29289 6.35149C2.48043 6.16395 2.73478 6.05859 3 6.05859H7V4.05859ZM9 6.05859H15V4.05859H9V6.05859ZM6.074 8.05859L6.931 20.0586H17.07L17.927 8.05859H6.074ZM10 10.0586C10.2652 10.0586 10.5196 10.164 10.7071 10.3515C10.8946 10.539 11 10.7934 11 11.0586V17.0586C11 17.3238 10.8946 17.5782 10.7071 17.7657C10.5196 17.9532 10.2652 18.0586 10 18.0586C9.73478 18.0586 9.48043 17.9532 9.29289 17.7657C9.10536 17.5782 9 17.3238 9 17.0586V11.0586C9 10.7934 9.10536 10.539 9.29289 10.3515C9.48043 10.164 9.73478 10.0586 10 10.0586ZM14 10.0586C14.2652 10.0586 14.5196 10.164 14.7071 10.3515C14.8946 10.539 15 10.7934 15 11.0586V17.0586C15 17.3238 14.8946 17.5782 14.7071 17.7657C14.5196 17.9532 14.2652 18.0586 14 18.0586C13.7348 18.0586 13.4804 17.9532 13.2929 17.7657C13.1054 17.5782 13 17.3238 13 17.0586V11.0586C13 10.7934 13.1054 10.539 13.2929 10.3515C13.4804 10.164 13.7348 10.0586 14 10.0586Z" fill="#344054"/>
</svg>
