<svg width="26" height="26" viewBox="0 0 26 26" fill="none" xmlns="http://www.w3.org/2000/svg">
<path d="M23 5.5H18V3C18 1.625 16.875 0.5 15.5 0.5H10.5C9.125 0.5 8 1.625 8 3V5.5H3C1.625 5.5 0.5 6.625 0.5 8V23C0.5 24.375 1.625 25.5 3 25.5H23C24.375 25.5 25.5 24.375 25.5 23V8C25.5 6.625 24.375 5.5 23 5.5ZM10.5 3H15.5V5.5H10.5V3ZM16.75 16.75H14.25V19.25C14.25 19.9375 13.6875 20.5 13 20.5C12.3125 20.5 11.75 19.9375 11.75 19.25V16.75H9.25C8.5625 16.75 8 16.1875 8 15.5C8 14.8125 8.5625 14.25 9.25 14.25H11.75V11.75C11.75 11.0625 12.3125 10.5 13 10.5C13.6875 10.5 14.25 11.0625 14.25 11.75V14.25H16.75C17.4375 14.25 18 14.8125 18 15.5C18 16.1875 17.4375 16.75 16.75 16.75Z" fill="#EC407A"/>
</svg>
