<svg width="24" height="25" viewBox="0 0 24 25" fill="none" xmlns="http://www.w3.org/2000/svg">
<path d="M12 14.8623C11.5858 14.8623 11.25 15.1981 11.25 15.6123C11.25 16.0265 11.5858 16.3623 12 16.3623V14.8623ZM15.75 12.6123C15.75 12.1981 15.4142 11.8623 15 11.8623C14.5858 11.8623 14.25 12.1981 14.25 12.6123H15.75ZM3.22067 10.7377L2.61141 10.3003L3.22067 10.7377ZM3.22045 14.4866L3.82971 14.0492L3.82971 14.0492L3.22045 14.4866ZM5.78797 17.5051L6.35092 17.0095L6.33191 16.988L6.3113 16.9679L5.78797 17.5051ZM18.101 7.61231L17.5824 8.15404L17.6037 8.17444L17.6265 8.1931L18.101 7.61231ZM2.33692 12.6123L1.58692 12.6123L2.33692 12.6123ZM20.7793 14.4869L21.3886 14.9243V14.9243L20.7793 14.4869ZM20.7793 10.7376L20.17 11.175L20.17 11.175L20.7793 10.7376ZM20.3953 9.00307C20.1332 8.68234 19.6607 8.63483 19.34 8.89695C19.0193 9.15907 18.9718 9.63156 19.2339 9.95228L20.3953 9.00307ZM7.93753 18.3445C7.60111 18.1028 7.13249 18.1797 6.89085 18.5161C6.64921 18.8525 6.72604 19.3211 7.06247 19.5628L7.93753 18.3445ZM21.6631 12.6123L20.9131 12.6123L21.6631 12.6123ZM1.53148 20.0267C1.20803 20.2854 1.15559 20.7574 1.41435 21.0808C1.67311 21.4043 2.14507 21.4567 2.46852 21.198L1.53148 20.0267ZM22.4685 5.19796C22.792 4.9392 22.8444 4.46723 22.5857 4.14378C22.3269 3.82034 21.8549 3.7679 21.5315 4.02665L22.4685 5.19796ZM18.1747 7.67252L18.6433 8.25817L18.1747 7.67252ZM5.82765 17.5502L6.29617 18.1358L5.82765 17.5502ZM12 8.86231C9.92893 8.86231 8.25 10.5412 8.25 12.6123H9.75C9.75 11.3697 10.7574 10.3623 12 10.3623V8.86231ZM8.25 12.6123C8.25 13.4931 8.5546 14.3048 9.06365 14.9449L10.2377 14.0113C9.93209 13.6271 9.75 13.142 9.75 12.6123H8.25ZM14.9274 10.2684C14.2414 9.41252 13.1847 8.86231 12 8.86231V10.3623C12.7103 10.3623 13.3434 10.6905 13.7569 11.2065L14.9274 10.2684ZM12 16.3623C14.0711 16.3623 15.75 14.6834 15.75 12.6123H14.25C14.25 13.8549 13.2426 14.8623 12 14.8623V16.3623ZM12 3.8623C9.85904 3.8623 7.92324 4.9213 6.35173 6.20802C4.77163 7.50177 3.47961 9.09095 2.61141 10.3003L3.82992 11.1751C4.65919 10.02 5.86348 8.54644 7.302 7.36862C8.7491 6.18376 10.3542 5.3623 12 5.3623V3.8623ZM2.61118 14.924C3.27304 15.8459 4.17749 16.9834 5.26464 18.0424L6.3113 16.9679C5.30603 15.9886 4.45829 14.9248 3.82971 14.0492L2.61118 14.924ZM18.6197 7.07057C16.8873 5.41189 14.5908 3.8623 12 3.8623V5.3623C14.0028 5.3623 15.9382 6.57993 17.5824 8.15404L18.6197 7.07057ZM2.61141 10.3003C2.05704 11.0725 1.58692 11.6837 1.58692 12.6123L3.08692 12.6123C3.08692 12.2538 3.20597 12.0442 3.82992 11.1751L2.61141 10.3003ZM3.82971 14.0492C3.20592 13.1803 3.08691 12.9708 3.08692 12.6123L1.58692 12.6123C1.58691 13.5409 2.05693 14.1519 2.61119 14.924L3.82971 14.0492ZM12 21.3623C14.141 21.3623 16.0768 20.3033 17.6483 19.0166C19.2284 17.7228 20.5204 16.1337 21.3886 14.9243L20.1701 14.0495C19.3408 15.2047 18.1365 16.6782 16.698 17.856C15.2509 19.0408 13.6458 19.8623 12 19.8623V21.3623ZM21.3885 10.3002C21.1009 9.89952 20.7682 9.45924 20.3953 9.00307L19.2339 9.95228C19.5844 10.3812 19.8981 10.7962 20.17 11.175L21.3885 10.3002ZM7.06247 19.5628C8.487 20.586 10.1676 21.3623 12 21.3623V19.8623C10.5952 19.8623 9.21818 19.2643 7.93753 18.3445L7.06247 19.5628ZM21.3886 14.9243C21.943 14.1521 22.4131 13.5409 22.4131 12.6123L20.9131 12.6123C20.9131 12.9708 20.794 13.1804 20.1701 14.0495L21.3886 14.9243ZM20.17 11.175C20.794 12.0442 20.9131 12.2538 20.9131 12.6123L22.4131 12.6123C22.4131 11.6837 21.9429 11.0725 21.3885 10.3002L20.17 11.175ZM18.6433 8.25817L22.4685 5.19796L21.5315 4.02665L17.7062 7.08687L18.6433 8.25817ZM17.6265 8.1931L17.7002 8.25331L18.6493 7.09172L18.5756 7.03151L17.6265 8.1931ZM2.46852 21.198L6.29617 18.1358L5.35913 16.9645L1.53148 20.0267L2.46852 21.198ZM6.29617 18.1358L18.6433 8.25817L17.7062 7.08687L5.35913 16.9645L6.29617 18.1358ZM5.22503 18.0007L5.2647 18.0458L6.39059 17.0546L6.35092 17.0095L5.22503 18.0007Z" fill="#717680"/>
</svg>
