<svg width="24" height="24" viewBox="0 0 24 24" fill="none" xmlns="http://www.w3.org/2000/svg">
<path fill-rule="evenodd" clip-rule="evenodd" d="M1.33163 22.6683L16.0136 7.98621L1.33163 22.6683ZM8.13436 8.53896C10.1575 10.0564 10.5676 12.9266 9.05016 14.9498C8.85491 15.2101 8.63265 15.4486 8.38728 15.6615L8.13436 15.8656C6.11117 14.3482 5.70116 11.4779 7.21856 9.45476C7.41381 9.19443 7.63607 8.9559 7.88144 8.74307L8.13436 8.53896ZM11.7976 4.87566C13.8208 6.39306 14.2308 9.26328 12.7134 11.2865C12.5182 11.5468 12.2959 11.7853 12.0506 11.9982L11.7976 12.2023C9.77445 10.6849 9.36443 7.81465 10.8818 5.79146C11.0771 5.53113 11.2993 5.29259 11.5447 5.07977L11.7976 4.87566ZM15.4609 1.21236C17.4841 2.72976 17.8941 5.59997 16.3767 7.62316C16.1815 7.8835 15.9592 8.12203 15.7138 8.33485L15.4609 8.53896C13.4377 7.02156 13.0277 4.15134 14.5451 2.12816C14.7404 1.86782 14.9626 1.62929 15.208 1.41647L15.4609 1.21236ZM22.7874 8.53896C21.2701 10.5621 18.3999 10.9722 16.3767 9.4548C16.1164 9.25954 15.8779 9.03727 15.665 8.7919L15.4609 8.53896C16.9783 6.51579 19.8484 6.10576 21.8716 7.62312C22.132 7.81838 22.3705 8.04065 22.5833 8.28603L22.7874 8.53896ZM19.1242 12.2023C17.6068 14.2254 14.7366 14.6355 12.7135 13.1181C12.4531 12.9228 12.2146 12.7006 12.0018 12.4552L11.7976 12.2023C13.315 10.1791 16.1852 9.76906 18.2083 11.2864C18.4687 11.4817 18.7072 11.704 18.9201 11.9493L19.1242 12.2023ZM15.4609 15.8656C13.9435 17.8887 11.0734 18.2988 9.0502 16.7814C8.78985 16.5861 8.55131 16.3639 8.33848 16.1185L8.13436 15.8656C9.65172 13.8424 12.5219 13.4324 14.5451 14.9497C14.8054 15.145 15.044 15.3673 15.2568 15.6126L15.4609 15.8656ZM4.38436 12.289C6.40755 13.8064 6.81757 16.6766 5.30016 18.6998C5.10491 18.9601 4.88265 19.1986 4.63728 19.4115L4.38436 19.6156C2.36117 18.0982 1.95116 15.2279 3.46856 13.2048C3.66381 12.9444 3.88607 12.7059 4.13144 12.4931L4.38436 12.289ZM11.7109 19.6156C10.1935 21.6387 7.32337 22.0488 5.3002 20.5314C5.03985 20.3361 4.80131 20.1139 4.58848 19.8685L4.38436 19.6156C5.90172 17.5924 8.77189 17.1824 10.7951 18.6997C11.0554 18.895 11.294 19.1173 11.5068 19.3626L11.7109 19.6156ZM22.9219 1.07874C23.2796 3.58233 21.54 5.90179 19.0365 6.25943C18.7143 6.30545 18.3885 6.31696 18.0645 6.29395L17.7413 6.25938C17.3836 3.75584 19.1232 1.43638 21.6268 1.07874C22.0563 1.01737 22.4924 1.01737 22.9219 1.07874Z" stroke="#E91E63" stroke-linecap="round"/>
</svg>
