<svg width="24" height="24" viewBox="0 0 24 24" fill="none" xmlns="http://www.w3.org/2000/svg">
<path d="M18.25 1.79285L20.3535 3.8964C20.5488 4.09166 20.5488 4.40825 20.3535 4.60351C20.1583 4.79877 19.8417 4.79877 19.6464 4.60351L18.75 3.70706V22H17.75V3.70706L16.8535 4.60351C16.6583 4.79877 16.3417 4.79877 16.1464 4.60351C15.9512 4.40825 15.9512 4.09166 16.1464 3.8964L18.25 1.79285Z" fill="#595959"/>
<path fill-rule="evenodd" clip-rule="evenodd" d="M14.5 4.5C14.5 5.8807 13.3807 7 12 7C10.6193 7 9.5 5.8807 9.5 4.5C9.5 3.11929 10.6193 2 12 2C13.3807 2 14.5 3.11929 14.5 4.5ZM13.5 4.5C13.5 5.32845 12.8284 6 12 6C11.1716 6 10.5 5.32845 10.5 4.5C10.5 3.67158 11.1716 3 12 3C12.8284 3 13.5 3.67158 13.5 4.5Z" fill="#595959"/>
<path fill-rule="evenodd" clip-rule="evenodd" d="M13.9564 21.9998C13.2722 21.9998 12.6876 21.5397 12.5109 20.901C12.4947 20.8423 12.4819 20.7821 12.4727 20.7207C12.4686 20.6926 12.4652 20.6642 12.4626 20.6356L12.0866 16.4999H11.913L11.5371 20.6356C11.5345 20.6642 11.5311 20.6926 11.5269 20.7207C11.5178 20.7821 11.505 20.8423 11.4888 20.901C11.3121 21.5397 10.7274 21.9998 10.0432 21.9998H9.99983C9.17138 21.9998 8.49983 21.3282 8.49983 20.4998V16.1035C8.02593 15.7498 7.71358 15.1906 7.69593 14.5554L7.56378 9.797C7.53003 8.58315 8.57698 7.6196 9.78383 7.7537L11.7791 7.9754C11.9259 7.9917 12.0741 7.9917 12.2209 7.9754L14.1511 7.7609C15.3802 7.62435 16.4375 8.62485 16.3689 9.85965L16.1049 14.6109C16.0759 15.1322 15.8491 15.5977 15.4998 15.9361V20.4998C15.4998 21.3282 14.8283 21.9998 13.9998 21.9998H13.9564ZM9.49983 16.1035C9.49983 15.788 9.35088 15.4909 9.09803 15.3021C8.85903 15.1238 8.70438 14.8447 8.69553 14.5277L8.56338 9.76925C8.54653 9.1623 9.06998 8.68055 9.67343 8.7476L11.6687 8.9693C11.8889 8.99375 12.1111 8.99375 12.3313 8.9693L14.2615 8.7548C14.8761 8.6865 15.4047 9.18675 15.3704 9.80415L15.1064 14.5554C15.0919 14.8163 14.9794 15.0479 14.8039 15.218C14.6096 15.4063 14.4998 15.6655 14.4998 15.9361V20.4998C14.4998 20.7759 14.276 20.9998 13.9998 20.9998H13.9564C13.6978 20.9998 13.4819 20.8026 13.4585 20.5451L13.0825 16.4094C13.0357 15.8943 12.6038 15.4999 12.0866 15.4999H11.913C11.3958 15.4999 10.964 15.8943 10.9171 16.4094L10.5412 20.5451C10.5178 20.8026 10.3018 20.9998 10.0432 20.9998H9.99983C9.72368 20.9998 9.49983 20.7759 9.49983 20.4998V16.1035Z" fill="black"/>
</svg>
