<svg width="24" height="24" viewBox="0 0 24 24" fill="none" xmlns="http://www.w3.org/2000/svg">
<path d="M17.75 1.79272L19.8535 3.89628C20.0488 4.09154 20.0488 4.40812 19.8535 4.60338C19.6583 4.79865 19.3417 4.79865 19.1464 4.60338L18.25 3.70694V21.9999H17.25V3.70694L16.3535 4.60338C16.1583 4.79865 15.8417 4.79865 15.6464 4.60338C15.4512 4.40812 15.4512 4.09154 15.6464 3.89628L17.75 1.79272Z" fill="#EC407A"/>
<path d="M14 4C14 5.10455 13.1046 6 12 6C10.8954 6 10 5.10455 10 4C10 2.89543 10.8954 2 12 2C13.1046 2 14 2.89543 14 4Z" fill="#EC407A"/>
<path d="M15.0009 14.4004C15.3149 14.2483 15.5385 13.9365 15.5632 13.5666L15.9156 8.27993C15.9589 7.63018 15.3797 7.11098 14.7361 7.20988C13.8456 7.34673 12.6932 7.50008 12.0009 7.50008C11.3087 7.50008 10.1563 7.34673 9.26582 7.20988C8.62222 7.11098 8.04297 7.63018 8.08627 8.27993L8.43872 13.5666C8.46337 13.9365 8.68697 14.2483 9.00092 14.4004V21.0001C9.00092 21.5374 9.42562 21.9787 9.96257 21.9993C10.4995 22.02 10.9568 21.6125 10.998 21.0768L11.498 14.5768C11.5 14.5512 11.5009 14.5256 11.5009 14.5001H12.5009C12.5009 14.5256 12.5019 14.5512 12.5039 14.5768L13.0039 21.0768C13.0451 21.6125 13.5024 22.02 14.0393 21.9993C14.5763 21.9787 15.0009 21.5374 15.0009 21.0001V14.4004Z" fill="#EC407A"/>
</svg>
