<svg width="24" height="24" viewBox="0 0 24 24" fill="none" xmlns="http://www.w3.org/2000/svg">
<path fill-rule="evenodd" clip-rule="evenodd" d="M3 4.5C3 3.67158 3.67158 3 4.5 3H19.5C20.3284 3 21 3.67158 21 4.5V19.5C21 20.3284 20.3284 21 19.5 21H4.5C3.67158 21 3 20.3284 3 19.5V4.5ZM6.0946 10.1379C6.0946 7.9909 7.48535 6 9.3898 6C10.7113 6 11.692 6.89325 12.2973 8.1604C12.9026 6.89335 13.8832 6 15.2048 6C17.1094 6 18.5 7.99125 18.5 10.1379C18.5 14.7333 12.2973 18 12.2973 18C12.2973 18 8.16515 15.9555 6.6462 12.5977H8.5328L9.36995 11.1341L10.3479 14.5L12.6379 11.6046H14.9806C15.2675 11.6046 15.5 11.3759 15.5 11.0939C15.5 10.8118 15.2675 10.5831 14.9806 10.5831H12.1299L10.7844 12.2843L9.6849 8.5L7.9253 11.5763H6.282C6.16175 11.1165 6.0946 10.6365 6.0946 10.1379ZM6.27705 11.5761L5 11.5763V12.5977H6.64235L6.27705 11.5761Z" fill="#EC407A"/>
</svg>
