<svg width="24" height="24" viewBox="0 0 24 24" fill="none" xmlns="http://www.w3.org/2000/svg">
<path d="M14.5 4.5C14.5 5.88071 13.3807 7 12 7C10.6193 7 9.5 5.88071 9.5 4.5C9.5 3.11929 10.6193 2 12 2C13.3807 2 14.5 3.11929 14.5 4.5Z" fill="#EC407A"/>
<path d="M4.02953 7.75974C4.16221 7.22363 4.70437 6.89659 5.24048 7.02928C7.90159 7.68789 9.93455 8.00125 11.9571 7.99999C13.9813 7.99872 16.0442 7.68235 18.7664 7.02771C19.3033 6.89857 19.8433 7.22919 19.9725 7.76617C20.1016 8.30314 19.771 8.84313 19.234 8.97227C17.6811 9.34573 16.3027 9.62063 15.0002 9.79167V13.9643L15.4976 20.9288C15.537 21.4796 15.1223 21.9581 14.5714 21.9975C14.0206 22.0368 13.5421 21.6221 13.5027 21.0712L13.1405 16H10.8599L10.4976 21.0712C10.4583 21.6221 9.97986 22.0368 9.42898 21.9975C8.8781 21.9581 8.46342 21.4796 8.50277 20.9288L9.00024 13.9643V9.80344C7.68988 9.63357 6.31126 9.35464 4.75998 8.9707C4.22387 8.83802 3.89684 8.29585 4.02953 7.75974Z" fill="#EC407A"/>
</svg>
