<svg width="24" height="24" viewBox="0 0 24 24" fill="none" xmlns="http://www.w3.org/2000/svg">
<path fill-rule="evenodd" clip-rule="evenodd" d="M17.2294 5.02401C17.3985 4.96964 17.5838 5.00906 17.7161 5.12761L21.8337 8.81681C21.9678 8.93696 22.027 9.11991 21.9886 9.29581L20.8121 14.6877C20.7723 14.8704 20.6337 15.0156 20.4531 15.0641L15.159 16.483C14.9875 16.5289 14.8046 16.4806 14.6783 16.3559L12.3989 14.1059C12.2023 13.9119 12.2003 13.5953 12.3943 13.3988C12.5882 13.2023 12.9048 13.2002 13.1014 13.3942L15.1768 15.4429L19.9 14.177L20.9495 9.36721L17.2625 6.06386L12.4842 7.60061L11.9753 9.15556C11.8894 9.41801 11.607 9.56111 11.3446 9.47521C11.0821 9.38931 10.939 9.10696 11.0249 8.84451L11.6131 7.04721C11.663 6.89496 11.7827 6.77576 11.9352 6.72671L17.2294 5.02401Z" fill="#EC407A"/>
<path fill-rule="evenodd" clip-rule="evenodd" d="M16.3609 10.0125C16.6302 10.0737 16.7989 10.3416 16.7377 10.6109L15.4877 16.1109C15.4265 16.3802 15.1586 16.5488 14.8893 16.4877C14.62 16.4265 14.4513 16.1585 14.5125 15.8893L15.7625 10.3893C15.8237 10.12 16.0916 9.95134 16.3609 10.0125Z" fill="#EC407A"/>
<path fill-rule="evenodd" clip-rule="evenodd" d="M11.8686 6.92665C12.0472 6.71605 12.3627 6.69005 12.5733 6.86865L16.2058 9.9483L19.6184 9.01765C19.8849 8.94495 20.1597 9.10205 20.2324 9.36845C20.305 9.63485 20.148 9.90975 19.8816 9.9824L16.2149 10.9823C16.0559 11.0257 15.8857 10.9879 15.76 10.8813L11.9267 7.6314C11.716 7.4528 11.69 7.1373 11.8686 6.92665Z" fill="#EC407A"/>
<path fill-rule="evenodd" clip-rule="evenodd" d="M5.37104 7.6383C5.49934 7.51585 5.68294 7.47055 5.85349 7.5192L9.98864 8.69975C10.1595 8.74855 10.2916 8.8844 10.3357 9.05655L11.4844 13.5426C11.531 13.7247 11.4716 13.9176 11.3305 14.0418L8.11434 16.8752C7.98654 16.9877 7.81029 17.0275 7.64654 16.9808L3.5114 15.8002C3.3428 15.7521 3.21173 15.6191 3.16598 15.4499L2.01733 11.1999C1.96953 11.023 2.02228 10.8342 2.15481 10.7077L5.37104 7.6383ZM5.85429 8.5594L3.06025 11.2259L4.05762 14.9162L7.65834 15.9442L10.4397 13.4939L9.43819 9.5826L5.85429 8.5594Z" fill="#EC407A"/>
<path fill-rule="evenodd" clip-rule="evenodd" d="M8.8537 10.1464C9.04895 10.3417 9.04895 10.6583 8.8537 10.8535L6.8537 12.8535C6.7262 12.981 6.54 13.03 6.3663 12.9817L2.3663 11.8706C2.10023 11.7967 1.94446 11.5211 2.01837 11.2551C2.09227 10.989 2.36788 10.8332 2.63395 10.9071L6.35285 11.9401L8.14655 10.1464C8.34185 9.95119 8.6584 9.95119 8.8537 10.1464Z" fill="#EC407A"/>
<path fill-rule="evenodd" clip-rule="evenodd" d="M6.37884 12.0151C6.64674 11.9481 6.91819 12.111 6.98519 12.3789L7.98519 16.3789C8.05214 16.6468 7.88929 16.9182 7.62139 16.9852C7.35349 17.0522 7.08204 16.8893 7.01504 16.6214L6.01504 12.6214C5.94809 12.3535 6.11094 12.082 6.37884 12.0151Z" fill="#EC407A"/>
</svg>
