<svg width="24" height="25" viewBox="0 0 24 25" fill="none" xmlns="http://www.w3.org/2000/svg">
<path d="M9.33333 12.8344C8.78105 12.8344 8.33333 12.3867 8.33333 11.8344C8.33333 11.2822 8.78105 10.8344 9.33333 10.8344V12.8344ZM22 11.8344L22.6245 11.0534C22.8618 11.2432 23 11.5306 23 11.8344C23 12.1383 22.8618 12.4257 22.6245 12.6155L22 11.8344ZM17.5687 9.57174C17.1374 9.22685 17.0673 8.59758 17.4122 8.16622C17.7571 7.73487 18.3863 7.66477 18.8177 8.00966L17.5687 9.57174ZM18.8177 15.6592C18.3863 16.0041 17.7571 15.934 17.4122 15.5027C17.0673 15.0713 17.1374 14.442 17.5687 14.0971L18.8177 15.6592ZM14.5061 20.0588V19.0588V20.0588ZM15.3721 19.2008L16.3721 19.2008V19.2008L15.3721 19.2008ZM3.86595 20.0588L3.86595 21.0588L3.86595 20.0588ZM3 19.2008L4 19.2008V19.2008L3 19.2008ZM3.86595 4.05884L3.86595 3.05884H3.86595V4.05884ZM3 4.91689H2H3ZM14.5061 4.05884V5.05884V4.05884ZM15.3721 4.91689H16.3721H15.3721ZM14.3721 15.5816C14.3721 15.0293 14.8198 14.5816 15.3721 14.5816C15.9244 14.5816 16.3721 15.0293 16.3721 15.5816L14.3721 15.5816ZM16.3721 8.40704C16.3721 8.95932 15.9244 9.40704 15.3721 9.40704C14.8198 9.40704 14.3721 8.95932 14.3721 8.40704H16.3721ZM9.33333 10.8344H22V12.8344H9.33333V10.8344ZM21.3755 12.6155L17.5687 9.57174L18.8177 8.00966L22.6245 11.0534L21.3755 12.6155ZM22.6245 12.6155L18.8177 15.6592L17.5687 14.0971L21.3755 11.0534L22.6245 12.6155ZM14.5061 19.0588C14.4408 19.0588 14.3721 19.1138 14.3721 19.2008L16.3721 19.2008C16.3721 20.2356 15.528 21.0588 14.5061 21.0588V19.0588ZM3.86595 19.0588L14.5061 19.0588V21.0588L3.86595 21.0588L3.86595 19.0588ZM4 19.2008C4 19.1138 3.93132 19.0588 3.86595 19.0588L3.86595 21.0588C2.84408 21.0588 2 20.2356 2 19.2008L4 19.2008ZM3.86595 5.05884C3.93132 5.05884 4 5.00391 4 4.91689H2C2 3.8821 2.84407 3.05884 3.86595 3.05884L3.86595 5.05884ZM14.5061 5.05884H3.86595V3.05884H14.5061V5.05884ZM14.3721 4.91689C14.3721 5.00391 14.4408 5.05884 14.5061 5.05884V3.05884C15.528 3.05884 16.3721 3.8821 16.3721 4.91689H14.3721ZM4 4.91689L4 19.2008L2 19.2008L2 4.91689H4ZM14.3721 19.2008L14.3721 15.5816L16.3721 15.5816L16.3721 19.2008L14.3721 19.2008ZM14.3721 8.40704V4.91689H16.3721V8.40704H14.3721Z" fill="#F04438"/>
</svg>
