<svg width="24" height="24" viewBox="0 0 24 24" fill="none" xmlns="http://www.w3.org/2000/svg">
<g clip-path="url(#clip0_429_12691)">
<path d="M17.9343 19.5C13.5342 23.9 0.0992696 10.4651 4.4993 6.06503L5.73081 4.83348C6.6574 3.90686 8.2099 4.10681 8.87146 5.23798L9.40579 6.15159C9.79462 6.81642 9.76714 7.64546 9.33513 8.28309L8.97277 8.81793C8.56934 9.41337 8.64535 10.2114 9.15392 10.7199L11.2166 12.7827L13.2795 14.8453C13.7881 15.3538 14.5861 15.4298 15.1815 15.0264L15.7161 14.6642C16.3537 14.2322 17.1827 14.2047 17.8475 14.5935L18.7612 15.1279C19.8924 15.7894 20.0924 17.3419 19.1658 18.2685L17.9343 19.5Z" stroke="#E91E63" stroke-width="2" stroke-linecap="round" stroke-linejoin="round"/>
</g>
<defs>
<clipPath id="clip0_429_12691">
<rect width="24" height="24" fill="white"/>
</clipPath>
</defs>
</svg>
