<svg width="18" height="20" viewBox="0 0 18 20" fill="none" xmlns="http://www.w3.org/2000/svg">
<path d="M4.87 19.28C4.08 19.28 3.33 19.09 2.67 18.71C1.11 17.81 0.25 15.98 0.25 13.57V6.43999C0.25 4.01999 1.11 2.19999 2.67 1.29999C4.23 0.399989 6.24 0.569989 8.34 1.77999L14.51 5.33999C16.6 6.54999 17.76 8.20999 17.76 10.01C17.76 11.81 16.61 13.47 14.51 14.68L8.34 18.24C7.13 18.93 5.95 19.28 4.87 19.28ZM4.87 2.21999C4.33 2.21999 3.85 2.33999 3.42 2.58999C2.34 3.20999 1.75 4.57999 1.75 6.43999V13.56C1.75 15.42 2.34 16.78 3.42 17.41C4.5 18.04 5.98 17.86 7.59 16.93L13.76 13.37C15.37 12.44 16.26 11.25 16.26 9.99999C16.26 8.74999 15.37 7.55999 13.76 6.62999L7.59 3.06999C6.61 2.50999 5.69 2.21999 4.87 2.21999Z" fill="#344054"/>
</svg>
