<svg width="24" height="24" viewBox="0 0 24 24" fill="none" xmlns="http://www.w3.org/2000/svg">
<g clip-path="url(#clip0_429_12699)">
<path d="M16 10H8C6.11438 10 5.17157 10 4.58579 10.5858C4 11.1716 4 12.1144 4 14V17C4 18.8856 4 19.8284 4.58579 20.4142C5.17157 21 6.11438 21 8 21H16C17.8856 21 18.8284 21 19.4142 20.4142C20 19.8284 20 18.8856 20 17V14C20 12.1144 20 11.1716 19.4142 10.5858C18.8284 10 17.8856 10 16 10Z" stroke="#E91E63" stroke-width="2"/>
<path d="M8 9.99994C8 9.99994 8 8.49994 8 6.5C8 3.49994 10.4379 2.99994 12 2.99994C13.5621 2.99994 16 3.49994 16 5.99994V9.99994" stroke="#E91E63" stroke-width="2"/>
</g>
<defs>
<clipPath id="clip0_429_12699">
<rect width="24" height="24" fill="white"/>
</clipPath>
</defs>
</svg>
