<svg width="30" height="23" viewBox="0 0 30 23" fill="none" xmlns="http://www.w3.org/2000/svg">
<path d="M14.719 22.9368C10.3985 22.8453 6.17598 21.5498 2.52382 18.6392C1.74834 18.0203 1.09372 17.2503 0.382332 16.5518C-0.0644603 16.1123 -0.103829 15.6728 0.181824 15.0869C2.07703 11.1719 3.93561 7.23872 5.80609 3.31098C6.2245 2.43113 6.63925 1.54944 7.06315 0.671419C7.40374 -0.0353915 7.63171 -0.111378 8.355 0.172444C11.1548 1.27111 14.0516 1.6172 17.0363 1.28485C18.6733 1.10174 20.2719 0.773042 21.7917 0.107432C22.331 -0.128781 22.6093 0.0158815 22.906 0.627474C23.733 2.34079 24.5546 4.05593 25.3706 5.7729C26.8538 8.88579 28.3196 11.9987 29.8276 15.1015C30.1022 15.66 30.05 16.0574 29.6618 16.517C27.8765 18.6347 25.6654 20.1572 23.1394 21.2467C20.5511 22.3582 17.8402 22.9002 14.719 22.9368ZM8.17464 1.68036L1.53502 15.6206C8.4255 23.6418 22.1772 23.1602 28.4643 15.6032L21.8228 1.68036C17.2359 3.2066 12.7341 3.2185 8.17464 1.68036Z" fill="#E91E63"/>
<path d="M20.3058 15.7241C20.3433 16.191 20.4596 16.668 20.4019 17.123C20.2289 18.4964 19.3682 19.3277 18.113 19.7781C16.9045 20.213 15.6721 20.1178 14.4508 19.8248C11.9211 19.2178 10.0213 17.6834 8.52439 15.6298C7.46234 14.1713 7.30853 12.5672 8.0721 10.8753C7.31311 10.0156 7.00548 9.00297 7.0833 7.85394C7.23437 5.63097 8.94921 4.15234 11.1731 4.33912C12.0154 4.40962 12.8156 4.6028 13.5343 5.06058C14.5021 5.67858 15.0322 6.56209 15.1036 7.71569C15.121 7.99769 15.131 8.28059 15.1402 8.47103C15.6895 8.73105 16.2151 8.89493 16.6353 9.20347C17.1096 9.55322 17.1517 10.1383 17.0748 10.7306C18.3465 11.4246 19.6594 11.7112 21.0739 11.4832C21.2347 11.4418 21.3976 11.4091 21.5619 11.3852C22.5635 11.3349 23.2282 12.2486 22.7274 13.1047C22.2504 13.9195 21.6288 14.6547 21.0217 15.3853C20.867 15.5776 20.5328 15.6234 20.3058 15.7241ZM12.0127 12.9261C12.595 12.9756 13.0912 12.9994 13.581 13.0653C14.0388 13.1275 14.3501 12.9646 14.6174 12.6075C14.9672 12.1387 15.5138 10.8341 15.5815 10.2078C14.8875 10.0156 14.8655 10.0247 14.622 10.6226C14.4609 11.0181 14.3171 11.421 14.1422 11.8128C13.9591 12.2221 13.7055 12.3795 13.3054 12.32C12.8119 12.2477 12.3203 12.1598 11.8341 12.0454C11.3919 11.9446 11.1685 11.6141 11.2271 11.2214C11.2857 10.8286 11.5933 10.6162 12.0713 10.6491C12.3725 10.6702 12.6719 10.7251 12.9749 10.7654C13.4446 9.84985 13.7357 8.93979 13.6881 7.9336C13.6497 7.12058 13.278 6.54012 12.5602 6.1684C11.9836 5.88012 11.344 5.74068 10.6998 5.7628C9.83821 5.77471 9.17535 6.1391 8.80729 6.92557C8.39255 7.81457 8.35776 8.7164 8.89885 9.58068C8.98289 9.69605 9.08824 9.79425 9.20922 9.86999C10.0177 10.4431 10.0415 10.5338 9.48389 11.3907C9.04076 12.071 8.9016 12.8218 9.13598 13.5734C9.31675 14.1374 9.59163 14.6667 9.94899 15.139C10.6866 16.1066 11.5989 16.9274 12.6389 17.5588C13.8381 18.3094 15.2366 18.6787 16.65 18.6181C17.4566 18.5879 18.1972 18.3435 18.709 17.6568C18.8417 17.4867 18.9312 17.287 18.9696 17.0747C19.008 16.8624 18.9943 16.644 18.9297 16.4382C18.8143 16.0546 18.6916 15.6911 18.1908 15.5877C17.8338 15.5144 17.6415 15.1299 17.6974 14.8222C17.7245 14.6573 17.8086 14.507 17.9351 14.3976C18.0615 14.2882 18.2223 14.2266 18.3895 14.2235C18.84 14.1969 19.2932 14.218 19.7436 14.1923C19.9212 14.1823 20.151 14.1521 20.2573 14.0385C20.5402 13.7327 20.769 13.3766 21.0867 12.949C19.4204 13.1175 17.9574 12.7842 16.5676 12.1177C16.3295 12.5379 16.1803 12.9637 15.8974 13.2612C15.4396 13.7419 15.4716 14.2216 15.6959 14.76C15.7417 14.8689 15.7875 14.9788 15.825 15.0923C15.9697 15.5382 15.8443 15.9108 15.5028 16.0619C15.1191 16.2304 14.709 16.0729 14.5076 15.6389C14.3492 15.2983 14.2393 14.9349 14.0956 14.5503L11.9138 14.315C11.9477 13.8426 11.9806 13.4443 12.0127 12.9261Z" fill="#E91E63"/>
</svg>
