<svg width="26" height="26" viewBox="0 0 26 26" fill="none" xmlns="http://www.w3.org/2000/svg">
<path d="M1.75 5.5C1.0625 5.5 0.5 6.0625 0.5 6.75V23C0.5 24.375 1.625 25.5 3 25.5H19.25C19.9375 25.5 20.5 24.9375 20.5 24.25C20.5 23.5625 19.9375 23 19.25 23H4.25C3.5625 23 3 22.4375 3 21.75V6.75C3 6.0625 2.4375 5.5 1.75 5.5ZM23 0.5H8C6.625 0.5 5.5 1.625 5.5 3V18C5.5 19.375 6.625 20.5 8 20.5H23C24.375 20.5 25.5 19.375 25.5 18V3C25.5 1.625 24.375 0.5 23 0.5ZM13 16.125V4.875L19.8375 10C20.175 10.25 20.175 10.75 19.8375 11L13 16.125Z" fill="#EC407A"/>
</svg>
